<svg width="242" height="159" viewBox="0 0 242 159" fill="none" xmlns="http://www.w3.org/2000/svg">
<mask id="mask0_96_6414" style="mask-type:luminance" maskUnits="userSpaceOnUse" x="116" y="0" width="5" height="15">
<path d="M116.373 0H120.342V14.8053H116.373V0Z" fill="white"/>
</mask>
<g mask="url(#mask0_96_6414)">
<path d="M118.543 14.2441C119.598 14.2441 120.301 13.5434 120.301 12.4861V1.76114C120.301 0.703835 119.598 0 118.543 0C117.486 0 116.782 0.703835 116.782 1.76114V12.6628C116.782 13.5434 117.486 14.2441 118.543 14.2441Z" fill="#184A3C"/>
</g>
<mask id="mask1_96_6414" style="mask-type:luminance" maskUnits="userSpaceOnUse" x="116" y="82" width="5" height="16">
<path d="M116.373 82.2744H120.342V97.0363H116.373V82.2744Z" fill="white"/>
</mask>
<g mask="url(#mask1_96_6414)">
<path d="M118.543 82.8293C117.486 82.8293 116.782 83.5332 116.782 84.5905V95.4922C116.782 96.5464 117.486 97.2502 118.543 97.2502C119.598 97.2502 120.301 96.5464 120.301 95.4922V84.5905C120.301 83.5332 119.598 82.8293 118.543 82.8293Z" fill="#184A3C"/>
</g>
<path d="M152.659 24.4452L162.507 16.7092C163.21 16.179 163.387 14.9481 162.857 14.2443C162.33 13.5435 161.099 13.3668 160.395 13.8939L150.548 21.633C149.844 22.1601 149.67 23.391 150.197 24.0948C150.724 24.9723 151.779 24.9723 152.659 24.4452Z" fill="#184A3C"/>
<path d="M84.4243 72.6315L74.5768 80.1938C73.873 80.7209 73.6993 81.9519 74.2264 82.6557C74.7535 83.3595 75.9845 83.5332 76.6883 83.0061L86.5358 75.2701C87.2396 74.7399 87.4164 73.5089 86.8862 72.8082C86.3591 72.1044 85.3049 72.1044 84.4243 72.6315Z" fill="#184A3C"/>
<path d="M152.659 72.6315C151.955 72.1044 150.724 72.1044 150.197 72.9819C149.67 73.6857 149.67 74.9167 150.548 75.4438L160.395 83.1829C161.099 83.71 162.33 83.71 162.857 82.8294C163.387 82.1287 163.387 80.8977 162.507 80.3675L152.659 72.6315Z" fill="#184A3C"/>
<path d="M84.4244 24.4451C85.1282 24.9722 86.3591 24.9722 86.8862 24.0947C87.4164 23.3909 87.4164 22.1599 86.5359 21.6328L76.6884 13.8937C75.9845 13.3666 74.7536 13.3666 74.2265 14.2441C73.6994 15.1247 73.6994 16.1789 74.5769 16.7091L84.4244 24.4451Z" fill="#184A3C"/>
<path d="M135.953 16.8827C136.831 17.4098 137.888 17.0594 138.415 16.1788L143.866 6.15462C144.393 5.27715 144.043 4.22295 143.162 3.69275C142.285 3.16565 141.227 3.51911 140.7 4.39658L135.249 14.4208C134.722 15.3014 135.073 16.3556 135.953 16.8827Z" fill="#184A3C"/>
<path d="M101.134 80.1939C100.253 79.6668 99.1987 80.0172 98.6685 80.8977L93.2177 90.9188C92.6906 91.7994 93.041 92.8536 93.9215 93.3838C94.8021 93.9109 95.8563 93.5574 96.3834 92.68L101.834 82.6558C102.364 81.7752 102.011 80.721 101.134 80.1939Z" fill="#184A3C"/>
<path d="M174.993 65.0691L162.156 60.8491C161.276 60.4957 160.221 61.0228 159.868 61.9034C159.518 62.7839 160.045 63.8381 160.925 64.1885L173.762 68.4115C174.642 68.7619 175.696 68.2348 176.047 67.3542C176.4 66.4767 175.873 65.4194 174.993 65.0691Z" fill="#184A3C"/>
<path d="M62.0908 32.0074L74.9303 36.2273C75.8078 36.5808 76.862 36.0537 77.2155 35.1731C77.5658 34.2925 77.0387 33.2383 76.1613 32.8879L63.3217 28.6649C62.4442 28.3146 61.3869 28.8417 61.0366 29.7222C60.6831 30.5997 61.2133 31.657 62.0908 32.0074Z" fill="#184A3C"/>
<mask id="mask2_96_6414" style="mask-type:luminance" maskUnits="userSpaceOnUse" x="160" y="29" width="17" height="9">
<path d="M160.029 29.093H176.99V37.0305H160.029V29.093Z" fill="white"/>
</mask>
<g mask="url(#mask2_96_6414)">
<path d="M160.221 35.5235C160.572 36.404 161.452 36.9311 162.507 36.7544L175.52 32.7112C176.4 32.3577 176.927 31.4803 176.751 30.4261C176.4 29.5455 175.52 29.0184 174.466 29.1951L161.452 33.2383C160.395 33.5887 159.868 34.646 160.221 35.5235Z" fill="#184A3C"/>
</g>
<mask id="mask3_96_6414" style="mask-type:luminance" maskUnits="userSpaceOnUse" x="60" y="60" width="18" height="8">
<path d="M60.308 60.0493H77.4791V67.9868H60.308V60.0493Z" fill="white"/>
</mask>
<g mask="url(#mask3_96_6414)">
<path d="M76.862 61.553C76.5116 60.6725 75.6311 60.1454 74.5769 60.3221L61.7404 64.3653C60.8598 64.7187 60.3327 65.5962 60.5095 66.6504C60.8598 67.531 61.7404 68.0581 62.7946 67.8813L75.8078 63.8382C76.6884 63.4847 77.2155 62.4305 76.862 61.553Z" fill="#184A3C"/>
</g>
<path d="M137.534 81.0714C137.007 80.1939 135.953 79.8405 135.073 80.3676C134.192 80.8978 133.842 81.952 134.369 82.8294L139.646 92.8536C140.173 93.7342 141.227 94.0846 142.108 93.5575C142.985 93.0304 143.339 91.9762 142.812 91.0956L137.534 81.0714Z" fill="#184A3C"/>
<path d="M99.5492 16.0054C100.076 16.8829 101.134 17.2363 102.011 16.7092C102.892 16.179 103.242 15.1248 102.715 14.2443L97.4377 4.22316C96.9106 3.34259 95.8564 2.99222 94.9758 3.51932C94.0983 4.04642 93.7449 5.10063 94.2751 5.98119L99.5492 16.0054Z" fill="#184A3C"/>
<path d="M118.543 24.9722C93.3944 24.9722 73.3459 46.4283 72.4654 47.3057C71.7646 48.0096 71.7646 49.0669 72.4654 49.7676C73.3459 50.6482 93.3944 72.1043 118.543 72.1043C143.689 72.1043 163.738 50.6482 164.618 49.7676C165.322 49.0669 165.322 48.0096 164.618 47.3057C163.738 46.4283 143.689 24.9722 118.543 24.9722ZM118.543 68.5851C107.462 68.5851 98.4948 59.6182 98.4948 48.5367C98.4948 37.4583 107.462 28.4913 118.543 28.4913C129.622 28.4913 138.589 37.4583 138.589 48.5367C138.589 59.6182 129.622 68.5851 118.543 68.5851ZM102.188 31.657C97.791 35.877 94.9757 41.8549 94.9757 48.5367C94.9757 55.2216 97.791 61.1995 102.188 65.4194C89.3481 60.6724 79.5006 51.7024 76.3349 48.5367C79.5006 45.3741 89.3481 36.4041 102.188 31.657ZM134.896 65.4194C139.292 61.1995 142.108 55.2216 142.108 48.5367C142.108 41.8549 139.292 35.877 134.896 31.657C147.735 36.4041 157.583 45.3741 160.749 48.5367C157.583 51.7024 147.735 60.6724 134.896 65.4194Z" fill="#184A3C"/>
<path d="M118.543 35.1733C111.155 35.1733 105.177 41.1513 105.177 48.5369C105.177 55.9256 111.155 61.9036 118.543 61.9036C125.929 61.9036 131.907 55.9256 131.907 48.5369C131.907 41.1513 125.929 35.1733 118.543 35.1733ZM118.543 58.3875C113.089 58.3875 108.693 53.9908 108.693 48.5369C108.693 43.0861 113.089 38.6894 118.543 38.6894C123.994 38.6894 128.391 43.0861 128.391 48.5369C128.391 53.9908 123.994 58.3875 118.543 58.3875Z" fill="#184A3C"/>
<path d="M44.4768 103.624C45.9805 103.798 47.2301 104.257 48.2223 105.001C49.2145 105.739 49.9896 106.657 50.5539 107.754C51.1151 108.846 51.512 110.011 51.7445 111.252C51.9833 112.492 52.1042 113.72 52.1042 114.935C52.1042 115.614 52.0732 116.271 52.0174 116.907C51.9585 117.546 51.8841 118.144 51.7942 118.705C51.4376 120.898 50.8671 123.192 50.0826 125.589C49.3044 127.989 48.3463 130.376 47.2053 132.757C46.0643 135.139 44.7806 137.421 43.3605 139.603C42.418 141.061 41.2831 142.592 39.9623 144.205C38.6476 145.817 37.1625 147.405 35.5098 148.967C33.8541 150.536 32.0496 151.981 30.09 153.296C28.1366 154.617 26.0468 155.714 23.8144 156.582C21.582 157.457 19.2193 157.999 16.7326 158.207C16.4412 158.232 16.1559 158.25 15.8769 158.269C15.5947 158.285 15.3064 158.294 15.0087 158.294C12.1624 158.294 9.77492 157.705 7.84015 156.533C5.90538 155.367 4.4419 153.724 3.44971 151.609C2.45752 149.491 1.96143 147.032 1.96143 144.23C1.96143 142.899 2.07305 141.495 2.29629 140.013C2.51953 138.534 2.8668 136.996 3.33809 135.399C4.10704 132.764 5.4961 129.936 7.50529 126.916C9.52067 123.899 12.3174 120.733 15.8893 117.416C16.2428 117.068 16.5714 116.895 16.8691 116.895C17.0179 116.895 17.1078 116.907 17.1419 116.932C17.2908 117.081 17.3652 117.23 17.3652 117.378C17.3652 117.552 17.2442 117.788 17.0055 118.085C17.0055 118.085 16.7606 118.355 16.2738 118.891C15.7839 119.422 15.1575 120.163 14.3886 121.112C13.6197 122.054 12.7949 123.155 11.9205 124.411C11.0524 125.669 10.2462 127.037 9.50207 128.516C8.14401 131.213 7.10221 133.929 6.37667 136.664C5.64803 139.402 5.28526 141.954 5.28526 144.316C5.28526 146.648 5.66043 148.732 6.41388 150.567C7.17352 152.403 8.35175 153.857 9.94855 154.933C11.5423 156.015 13.6321 156.573 16.2118 156.607C17.4768 156.607 18.6705 156.449 19.796 156.136C20.9184 155.829 21.9851 155.435 22.9958 154.958C25.0608 154.015 27.0793 152.728 29.0482 151.1C31.014 149.47 32.8929 147.615 34.6789 145.532C36.471 143.448 38.1267 141.237 39.6398 138.897C41.8226 135.557 43.6985 132.181 45.2705 128.764C46.8394 125.341 47.9184 122.11 48.5075 119.065C48.6564 118.265 48.8238 117.273 49.016 116.089C49.2145 114.907 49.3137 113.695 49.3137 112.455C49.3137 111.332 49.1928 110.253 48.954 109.218C48.7122 108.176 48.2843 107.317 47.6642 106.638C47.1929 106.136 46.5542 105.729 45.7542 105.423C44.9604 105.109 44.0582 104.951 43.0505 104.951C42.3715 104.951 41.649 105.044 40.8801 105.224C39.1592 105.605 37.3516 106.346 35.4602 107.444C33.5658 108.536 31.7302 109.912 29.9536 111.574C28.1831 113.23 26.5801 115.121 25.1415 117.254C23.709 119.381 22.5928 121.701 21.7928 124.212C21.0239 126.578 20.6394 128.634 20.6394 130.376C20.6394 131.74 20.875 132.9 21.3463 133.849C21.8238 134.791 22.5525 135.47 23.5292 135.883C24.3539 136.205 25.1539 136.366 25.9228 136.366C28.1366 136.366 30.2822 135.064 32.3596 132.46C33.2774 131.278 34.0464 130.113 34.6665 128.962C35.3424 127.598 35.7951 126.29 36.0183 125.031C36.2416 123.775 36.3532 122.674 36.3532 121.732C36.3532 121.046 36.3222 120.46 36.2664 119.97C36.2075 119.484 36.161 119.136 36.13 118.929C36.13 118.873 36.1207 118.805 36.1052 118.73C36.0866 118.656 36.0803 118.591 36.0803 118.532C36.0803 117.788 36.4214 117.347 37.1097 117.205C37.3733 117.205 37.6089 117.329 37.8167 117.577C38.0213 117.825 38.1422 118.247 38.1763 118.842C38.1763 118.991 38.1795 119.158 38.1888 119.338C38.2043 119.512 38.2136 119.673 38.2136 119.822C38.2136 121.477 38.0554 122.947 37.7423 124.237C37.4353 125.521 37.1252 126.525 36.8121 127.251C36.5051 127.979 36.3532 128.342 36.3532 128.342C35.9966 129.111 35.575 129.911 35.0882 130.736C34.5983 131.564 34.0154 132.407 33.3394 133.266C32.155 134.714 30.8372 135.846 29.3831 136.664C27.9351 137.476 26.5181 137.88 25.1291 137.88C23.4082 137.88 21.9975 137.483 20.8998 136.689C19.8084 135.889 19.0023 134.822 18.4814 133.489C17.9667 132.159 17.7124 130.723 17.7124 129.185C17.7124 127.409 18.0101 125.632 18.6054 123.852C19.3744 121.49 20.4596 119.208 21.8672 117.006C23.2718 114.799 24.9058 112.786 26.7662 110.966C28.6327 109.149 30.6481 107.618 32.8061 106.377C34.9641 105.131 37.1966 104.3 39.5034 103.885C40.7746 103.655 41.9591 103.537 43.0505 103.537C43.314 103.537 43.5652 103.547 43.807 103.562C44.0458 103.571 44.269 103.593 44.4768 103.624Z" fill="#184A3C" fill-opacity="0.4"/>
<path d="M75.3052 136.056C75.5098 136.18 75.6152 136.348 75.6152 136.552C75.6152 136.636 75.5842 136.738 75.5284 136.862C74.6106 138.484 73.6246 140.081 72.5766 141.65C71.5255 143.222 70.3938 144.512 69.1784 145.519C67.9692 146.521 66.639 147.02 65.1848 147.02C63.7368 147.02 62.5679 146.654 61.675 145.916C60.7882 145.172 60.3479 144.078 60.3479 142.63C60.3479 142.54 60.3541 142.444 60.3727 142.344C60.3882 142.239 60.3975 142.14 60.3975 142.047C59.4549 143.47 58.4193 144.657 57.2969 145.606C56.1714 146.549 54.9281 147.02 53.5638 147.02C52.1158 147.02 50.9531 146.654 50.0787 145.916C49.2106 145.172 48.7765 144.09 48.7765 142.667C48.7765 141.842 48.9377 140.903 49.2602 139.851C49.5826 138.803 50.0973 137.641 50.8105 136.366L57.2969 124.745H60.9308L54.6304 136.056C53.8026 137.594 53.1452 138.927 52.6584 140.05C52.1685 141.175 51.8523 142.121 51.7034 142.89C51.7034 142.949 51.6941 143.014 51.6786 143.088C51.66 143.163 51.6538 143.247 51.6538 143.337C51.6538 143.752 51.7686 144.211 52.0011 144.713C52.2399 145.219 52.6863 145.529 53.3406 145.643C53.4305 145.677 53.5793 145.693 53.787 145.693C54.2893 145.693 54.8661 145.553 55.511 145.271C56.1621 144.992 56.8752 144.478 57.6442 143.733C58.2395 143.147 58.7728 142.506 59.2441 141.811C59.7154 141.116 60.1867 140.354 60.658 139.517L62.0842 137.036C62.14 136.921 62.2083 136.813 62.2827 136.714C62.3571 136.608 62.4098 136.49 62.4439 136.366L68.9676 124.745H72.6014L66.301 136.056C65.4732 137.594 64.8159 138.927 64.3291 140.05C63.8392 141.175 63.5229 142.121 63.3741 142.89C63.34 142.983 63.3245 143.147 63.3245 143.386C63.3245 143.802 63.4361 144.251 63.6593 144.738C63.8826 145.228 64.3198 145.529 64.974 145.643C65.0546 145.677 65.2158 145.693 65.4577 145.693C65.96 145.693 66.5367 145.553 67.1816 145.271C67.8327 144.992 68.5335 144.478 69.2776 143.733C70.2202 142.85 71.1256 141.758 71.9937 140.459C72.8681 139.154 73.7208 137.762 74.5486 136.28C74.6974 136.106 74.8618 136.019 75.0447 136.019C75.1594 136.019 75.2463 136.032 75.3052 136.056Z" fill="#184A3C" fill-opacity="0.4"/>
<path d="M94.0791 136.057C94.2837 136.205 94.3891 136.385 94.3891 136.59C94.3891 136.649 94.3581 136.739 94.3023 136.863C92.4327 140.205 90.4979 142.741 88.498 144.478C86.5043 146.208 84.399 147.07 82.1852 147.07C81.1744 147.07 80.3527 146.915 79.7171 146.599C79.0784 146.285 78.6443 145.91 78.4149 145.47C78.142 144.934 78.0056 144.354 78.0056 143.734C78.0056 142.586 78.4273 141.213 79.2706 139.616C80.114 138.013 81.348 136.15 82.9789 134.023C83.7479 133.049 84.4982 132.044 85.2362 131.009C85.9803 129.967 86.619 128.873 87.1585 127.722L87.3694 127.226H87.1089C85.7757 127.226 84.7091 127.037 83.9091 126.656C83.1154 126.268 82.5108 125.868 82.0984 125.453L75.7484 136.813C75.6305 137.021 75.4693 137.123 75.2647 137.123C75.1717 137.123 75.0693 137.095 74.9546 137.036C74.7717 136.946 74.6818 136.798 74.6818 136.59C74.6818 136.5 74.7097 136.398 74.7686 136.28L81.3418 124.473C81.1341 124.119 80.9853 123.75 80.8954 123.369C80.8023 122.981 80.7589 122.609 80.7589 122.253C80.7589 121.692 80.8488 121.192 81.0318 120.752C81.0876 120.637 81.1465 120.526 81.2054 120.417C81.2612 120.312 81.3201 120.2 81.379 120.082C81.7325 119.636 82.0891 119.31 82.4456 119.103C82.8921 118.78 83.3417 118.579 83.7975 118.495C84.2595 118.405 84.6688 118.358 85.0253 118.358C85.3478 118.358 85.5958 118.377 85.7695 118.408C85.9493 118.433 86.0423 118.445 86.0423 118.445C85.3292 119.72 84.7804 120.702 84.3928 121.397C84.0114 122.092 83.7293 122.588 83.5495 122.885C83.3758 123.177 83.2704 123.353 83.2394 123.419C83.2146 123.477 83.2022 123.505 83.2022 123.505C83.1433 123.623 83.0534 123.791 82.9293 124.014C82.8115 124.237 82.7433 124.38 82.7185 124.436C83.1898 125.09 83.8874 125.564 84.8145 125.862C85.7478 126.153 86.8237 126.296 88.0391 126.296C88.6003 126.296 89.1832 126.268 89.7879 126.209C90.3987 126.153 91.0281 126.06 91.673 125.936C91.673 125.936 91.3071 126.656 90.5816 128.094C89.8623 129.533 88.7026 131.406 87.1089 133.713L86.4392 134.68C85.7261 135.691 84.9788 136.764 84.1944 137.905C83.4161 139.039 82.7309 140.097 82.1356 141.08C81.9868 141.371 81.8162 141.796 81.6271 142.357C81.4349 142.921 81.3418 143.47 81.3418 144.007C81.3418 144.388 81.4287 144.735 81.6023 145.048C81.7821 145.355 82.0643 145.541 82.4456 145.606C82.5356 145.631 82.6224 145.644 82.7061 145.644C82.796 145.644 82.8859 145.644 82.9789 145.644C84.2843 145.644 85.6889 145.082 87.1958 143.957C88.2283 143.163 89.2545 142.14 90.2715 140.881C91.2947 139.616 92.3117 138.084 93.3225 136.28C93.4124 136.106 93.5737 136.019 93.8062 136.019C93.9302 136.019 94.0202 136.032 94.0791 136.057Z" fill="#184A3C" fill-opacity="0.4"/>
<path d="M180.869 107.221C180.983 107.487 181.086 107.825 181.179 108.238C181.269 108.653 181.315 109.112 181.315 109.614C181.315 109.996 181.278 110.418 181.203 110.88C181.129 111.335 180.986 111.816 180.782 112.318C180.54 112.765 180.186 112.988 179.715 112.988C179.656 112.988 179.597 112.982 179.542 112.963C179.483 112.948 179.421 112.926 179.355 112.901C179.033 112.752 178.872 112.439 178.872 111.959C178.872 111.754 178.915 111.546 179.008 111.338C179.331 110.777 179.557 110.278 179.69 109.838C179.821 109.391 179.889 108.991 179.889 108.635C179.889 108.256 179.842 107.925 179.752 107.642C179.669 107.363 179.569 107.115 179.455 106.898C178.949 106.074 178.332 105.478 177.607 105.112C176.878 104.74 176.187 104.505 175.536 104.405C174.891 104.3 174.407 104.244 174.084 104.244C172.959 104.244 171.995 104.387 171.195 104.666C170.401 104.948 169.75 105.205 169.248 105.435C169.213 105.435 169.189 105.444 169.173 105.46C169.164 105.478 169.142 105.484 169.111 105.484C167.455 106.222 165.555 107.553 163.406 109.478C161.264 111.407 158.861 114.247 156.2 117.998C155.1 119.536 153.968 121.242 152.802 123.108C151.636 124.969 150.399 127.037 149.094 129.309C146.613 133.718 144.393 137.492 142.434 140.633C140.48 143.767 138.719 146.394 137.15 148.508C135.588 150.623 134.161 152.31 132.871 153.568C131.588 154.824 130.379 155.77 129.238 156.409C128.096 157.044 126.98 157.466 125.889 157.674C125.061 157.878 124.246 157.984 123.446 157.984C122.444 157.984 121.601 157.878 120.916 157.674C120.236 157.466 119.868 157.345 119.812 157.314C119.57 157.221 119.452 157.044 119.452 156.781C119.452 156.688 119.468 156.613 119.502 156.557C119.616 156.35 119.778 156.247 119.985 156.247C120.1 156.247 120.19 156.263 120.258 156.297C120.258 156.297 120.277 156.297 120.32 156.297C120.361 156.297 120.398 156.309 120.432 156.334C120.432 156.334 120.497 156.35 120.63 156.384C120.76 156.415 120.931 156.433 121.139 156.433C121.436 156.433 121.774 156.378 122.156 156.272C122.543 156.164 122.974 155.965 123.446 155.677C124.661 154.849 125.904 153.568 127.179 151.832C128.45 150.102 129.684 148.077 130.875 145.755C132.071 143.433 133.181 140.986 134.198 138.413C135.222 135.842 136.062 133.312 136.716 130.823C137.129 129.254 137.504 127.545 137.845 125.7C138.183 123.849 138.353 122.023 138.353 120.218C138.353 118.501 138.136 116.907 137.708 115.444C137.287 113.98 136.561 112.771 135.538 111.81C134.521 110.852 133.095 110.281 131.259 110.098C131.141 110.098 131.03 110.095 130.924 110.086C130.825 110.07 130.713 110.061 130.589 110.061C129.256 110.061 127.836 110.371 126.323 110.991C124.816 111.611 123.303 112.455 121.784 113.521C120.261 114.582 118.798 115.791 117.393 117.155C115.986 118.519 114.705 119.939 113.549 121.409C112.066 123.369 110.885 125.176 110.001 126.829C109.115 128.485 108.433 129.942 107.955 131.207C107.484 132.466 107.13 133.446 106.901 134.146C106.247 136.28 105.921 138.1 105.921 139.603C105.921 141.358 106.237 142.673 106.876 143.547C107.512 144.416 108.153 144.936 108.798 145.11C109.186 145.228 109.561 145.308 109.927 145.358C110.299 145.402 110.649 145.42 110.981 145.42C112.277 145.42 113.465 145.104 114.541 144.465C115.623 143.83 116.727 143.039 117.852 142.096C119.539 140.676 121.027 139.005 122.317 137.086C123.607 135.16 124.636 133.266 125.405 131.405C125.842 130.398 126.174 129.427 126.397 128.491C126.621 127.558 126.769 126.779 126.844 126.159C126.918 125.539 126.955 125.229 126.955 125.229C126.955 124.231 127.321 123.728 128.059 123.728H128.245C128.865 123.787 129.175 124.172 129.175 124.882C129.175 125.09 129.129 125.353 129.039 125.676C128.797 126.593 128.484 127.53 128.096 128.478C127.715 129.421 127.331 130.295 126.943 131.095C126.562 131.889 126.249 132.528 126 133.005C125.752 133.477 125.628 133.712 125.628 133.712C124.791 135.368 123.774 137.018 122.577 138.661C121.387 140.298 120.05 141.737 118.571 142.977C117.207 144.136 115.806 145.033 114.367 145.668C112.935 146.307 111.48 146.623 110.001 146.623H109.741C109.592 146.623 109.425 146.617 109.245 146.598C109.071 146.583 108.922 146.574 108.798 146.574C108.209 146.518 107.571 146.372 106.876 146.139C106.182 145.901 105.527 145.507 104.916 144.961C104.312 144.409 103.816 143.659 103.428 142.716C103.047 141.768 102.858 140.568 102.858 139.12V138.586C102.858 138.586 102.923 138.087 103.056 137.086C103.186 136.078 103.506 134.717 104.011 133.005C104.513 131.288 105.292 129.347 106.343 127.189C107.391 125.024 108.826 122.773 110.646 120.442C112.463 118.104 114.764 115.825 117.542 113.608C118.609 112.783 119.818 111.983 121.176 111.214C122.54 110.445 123.991 109.819 125.529 109.329C127.067 108.833 128.636 108.585 130.242 108.585C130.416 108.585 130.596 108.585 130.788 108.585C130.986 108.585 131.172 108.604 131.346 108.635C134.248 108.901 136.496 110.145 138.093 112.368C139.687 114.585 140.486 117.598 140.486 121.409C140.486 122.832 140.375 124.348 140.152 125.961C139.928 127.573 139.569 129.297 139.073 131.133C138.592 132.993 137.95 134.934 137.15 136.949C136.356 138.958 135.454 140.955 134.447 142.94C133.445 144.924 132.382 146.794 131.259 148.546C130.134 150.307 128.983 151.872 127.811 153.246C126.645 154.626 125.498 155.702 124.376 156.471C125.176 156.263 126.019 155.854 126.906 155.243C127.799 154.638 128.807 153.72 129.932 152.489C131.054 151.265 132.351 149.631 133.814 147.591C135.277 145.557 136.955 142.995 138.849 139.901C140.741 136.81 142.917 133.101 145.373 128.776C146.579 126.652 147.745 124.696 148.87 122.91C149.993 121.118 151.106 119.481 152.207 117.998C152.56 117.496 152.907 117.016 153.248 116.56C153.586 116.098 153.918 115.661 154.241 115.245C156.225 112.7 158.126 110.628 159.946 109.032C161.763 107.438 163.493 106.188 165.13 105.286C166.773 104.387 168.32 103.767 169.768 103.426C171.223 103.078 172.571 102.905 173.812 102.905C174.05 102.905 174.472 102.939 175.077 103.004C175.687 103.063 176.37 103.224 177.123 103.488C177.873 103.754 178.59 104.176 179.269 104.753C179.954 105.333 180.487 106.154 180.869 107.221Z" fill="#184A3C" fill-opacity="0.4"/>
<path d="M164.935 136.056C165.109 136.18 165.196 136.36 165.196 136.59C165.196 136.708 165.183 136.797 165.158 136.863C164.47 138.072 163.745 139.275 162.976 140.472C162.207 141.672 161.391 142.766 160.532 143.758C159.68 144.75 158.777 145.544 157.829 146.14C156.886 146.729 155.882 147.02 154.815 147.02C153.367 147.02 152.204 146.654 151.33 145.916C150.462 145.172 150.028 144.09 150.028 142.667C150.028 141.842 150.189 140.903 150.511 139.852C150.834 138.804 151.348 137.641 152.062 136.366L158.548 124.745H162.182L155.882 136.056C155.054 137.594 154.396 138.928 153.91 140.05C153.42 141.176 153.103 142.121 152.955 142.89C152.955 142.949 152.945 143.014 152.93 143.089C152.911 143.163 152.905 143.247 152.905 143.337C152.905 143.752 153.02 144.202 153.252 144.688C153.491 145.178 153.937 145.482 154.592 145.606C154.682 145.631 154.83 145.643 155.038 145.643C155.54 145.643 156.117 145.504 156.762 145.222C157.413 144.943 158.126 144.434 158.895 143.696C159.813 142.803 160.706 141.709 161.574 140.41C162.449 139.104 163.301 137.728 164.129 136.28C164.278 136.106 164.455 136.019 164.662 136.019C164.786 136.019 164.876 136.032 164.935 136.056ZM165.072 120.219C164.774 120.808 164.393 121.295 163.931 121.682C163.475 122.063 162.966 122.253 162.405 122.253C162.163 122.253 161.928 122.212 161.698 122.129C160.985 121.831 160.632 121.282 160.632 120.479C160.632 120.042 160.78 119.524 161.078 118.929C161.425 118.278 161.859 117.775 162.38 117.428C162.901 117.075 163.397 116.895 163.869 116.895C164.107 116.895 164.315 116.938 164.489 117.019C165.165 117.285 165.506 117.834 165.506 118.668C165.506 119.199 165.36 119.716 165.072 120.219Z" fill="#184A3C" fill-opacity="0.4"/>
<path d="M182.242 136.056C182.416 136.18 182.502 136.348 182.502 136.552C182.502 136.67 182.49 136.757 182.465 136.813C181.25 138.971 179.929 140.816 178.509 142.344C177.086 143.867 175.421 145.029 173.511 145.829C171.607 146.623 169.337 147.02 166.702 147.02C165.195 147.02 164.042 146.58 163.242 145.693C163.034 145.42 162.857 145.153 162.708 144.887C162.59 144.623 162.535 144.329 162.535 144.006C162.535 143.594 162.612 143.225 162.77 142.902C162.935 142.574 163.034 142.378 163.068 142.32C163.366 141.907 163.704 141.597 164.085 141.389C164.473 141.185 164.845 141.079 165.201 141.079C165.406 141.079 165.552 141.092 165.635 141.116C166.196 141.324 166.479 141.768 166.479 142.444C166.479 142.661 166.448 142.878 166.392 143.101C166.333 143.318 166.231 143.544 166.082 143.783C165.908 144.105 165.691 144.403 165.437 144.676C165.189 144.943 164.916 145.132 164.618 145.246C165.065 145.544 165.641 145.693 166.355 145.693H166.751C167.52 145.637 168.258 145.222 168.971 144.453C169.682 143.678 170.292 142.623 170.807 141.29C171.328 139.96 171.663 138.41 171.812 136.639C172.016 134.332 172.401 132.298 172.965 130.537C173.526 128.776 174.308 127.409 175.309 126.432C173.598 126.872 172.153 127.573 170.981 128.54C169.815 129.502 168.801 130.624 167.942 131.914C167.089 133.198 166.262 134.565 165.462 136.019L164.978 136.862C164.885 137.07 164.721 137.173 164.482 137.173C164.423 137.173 164.336 137.145 164.221 137.086C164.038 136.996 163.949 136.831 163.949 136.59C163.949 136.475 163.964 136.388 163.998 136.329L164.482 135.436C165.251 134.081 166.048 132.767 166.875 131.492C167.71 130.221 168.689 129.074 169.815 128.057C170.937 127.034 172.311 126.227 173.932 125.638C175.56 125.043 177.529 124.745 179.836 124.745C180.224 124.745 180.419 124.938 180.419 125.316C180.419 125.707 180.224 125.899 179.836 125.899C179.836 125.899 179.827 125.899 179.811 125.899C179.802 125.899 179.752 125.899 179.662 125.899C178.745 125.899 178.004 126.209 177.442 126.829C176.878 127.449 176.456 128.28 176.177 129.322C175.895 130.357 175.681 131.517 175.532 132.807C175.384 134.091 175.266 135.396 175.185 136.726C175.036 138.735 174.655 140.459 174.044 141.898C173.439 143.33 172.649 144.459 171.675 145.284C173.362 144.812 174.788 144.136 175.954 143.25C177.126 142.366 178.14 141.324 178.993 140.124C179.851 138.927 180.667 137.644 181.436 136.28C181.585 136.106 181.761 136.019 181.969 136.019C182.084 136.019 182.174 136.032 182.242 136.056Z" fill="#184A3C" fill-opacity="0.4"/>
<path d="M195.24 136.056C195.413 136.18 195.5 136.36 195.5 136.59C195.5 136.708 195.488 136.797 195.463 136.863C194.775 138.072 194.049 139.275 193.28 140.472C192.511 141.672 191.696 142.766 190.837 143.758C189.984 144.75 189.082 145.544 188.133 146.14C187.191 146.729 186.186 147.02 185.119 147.02C183.671 147.02 182.509 146.654 181.634 145.916C180.766 145.172 180.332 144.09 180.332 142.667C180.332 141.842 180.493 140.903 180.816 139.852C181.138 138.804 181.653 137.641 182.366 136.366L188.852 124.745H192.486L186.186 136.056C185.358 137.594 184.701 138.928 184.214 140.05C183.724 141.176 183.408 142.121 183.259 142.89C183.259 142.949 183.25 143.014 183.234 143.089C183.216 143.163 183.209 143.247 183.209 143.337C183.209 143.752 183.324 144.202 183.557 144.688C183.795 145.178 184.242 145.482 184.896 145.606C184.986 145.631 185.135 145.643 185.343 145.643C185.845 145.643 186.422 145.504 187.067 145.222C187.718 144.943 188.431 144.434 189.2 143.696C190.118 142.803 191.01 141.709 191.879 140.41C192.753 139.104 193.606 137.728 194.434 136.28C194.582 136.106 194.759 136.019 194.967 136.019C195.091 136.019 195.181 136.032 195.24 136.056ZM195.376 120.219C195.078 120.808 194.697 121.295 194.235 121.682C193.779 122.063 193.271 122.253 192.71 122.253C192.468 122.253 192.232 122.212 192.003 122.129C191.29 121.831 190.936 121.282 190.936 120.479C190.936 120.042 191.085 119.524 191.383 118.929C191.73 118.278 192.164 117.775 192.685 117.428C193.206 117.075 193.702 116.895 194.173 116.895C194.412 116.895 194.62 116.938 194.793 117.019C195.469 117.285 195.81 117.834 195.81 118.668C195.81 119.199 195.664 119.716 195.376 120.219Z" fill="#184A3C" fill-opacity="0.4"/>
<path d="M219.554 129.669C219.758 129.762 219.864 129.923 219.864 130.153C219.864 130.277 219.845 130.37 219.814 130.426C219.135 131.7 218.292 132.729 217.284 133.514C216.283 134.292 215.204 134.859 214.047 135.213C212.897 135.57 211.759 135.746 210.636 135.746H210.103C209.861 136.311 209.595 136.872 209.297 137.433C209.005 137.997 208.683 138.574 208.33 139.169C206.872 141.535 205.235 143.42 203.418 144.825C201.598 146.232 199.846 146.964 198.16 147.02H197.763C196.522 147.02 195.537 146.741 194.811 146.177C194.092 145.615 193.583 144.909 193.285 144.056C192.988 143.197 192.839 142.351 192.839 141.513C192.839 141.365 192.839 141.225 192.839 141.092C192.839 140.961 192.854 140.837 192.889 140.72C193.028 139.414 193.351 138.028 193.856 136.565C194.358 135.101 195.053 133.675 195.94 132.286C197.806 129.384 199.679 127.35 201.558 126.184C203.434 125.018 205.186 124.435 206.816 124.435H207.3C207.48 124.435 207.799 124.482 208.255 124.572C208.717 124.655 209.204 124.854 209.719 125.167C210.24 125.474 210.677 125.945 211.033 126.581C211.387 127.22 211.567 128.1 211.567 129.223C211.567 129.406 211.557 129.592 211.542 129.781C211.523 129.973 211.505 130.199 211.48 130.463C211.421 131.117 211.319 131.79 211.17 132.484C211.021 133.179 210.841 133.898 210.636 134.642C212.115 134.642 213.625 134.277 215.163 133.539C216.701 132.795 217.91 131.579 218.797 129.892C218.887 129.713 219.048 129.619 219.281 129.619C219.405 129.619 219.495 129.638 219.554 129.669ZM210.277 130.736C210.308 130.531 210.329 130.314 210.339 130.091C210.354 129.868 210.364 129.654 210.364 129.446C210.364 129.148 210.345 128.847 210.314 128.54C210.289 128.227 210.218 127.92 210.103 127.623C209.861 126.947 209.489 126.513 208.987 126.32C208.491 126.131 208.047 126.035 207.66 126.035C207.567 126.035 207.486 126.045 207.412 126.06C207.337 126.069 207.269 126.072 207.213 126.072C206.296 126.221 205.641 126.615 205.254 127.251C204.872 127.889 204.652 128.547 204.596 129.223V129.582C204.596 130.584 204.95 131.579 205.663 132.571C206.373 133.563 207.452 134.193 208.9 134.456L209.347 134.556C209.818 133.225 210.128 131.951 210.277 130.736ZM207.399 138.586C207.688 138.084 207.957 137.582 208.206 137.086C208.46 136.583 208.692 136.09 208.9 135.61C208.875 135.61 208.844 135.607 208.813 135.597C208.788 135.582 208.742 135.573 208.677 135.573C206.965 135.25 205.669 134.491 204.795 133.291C203.927 132.094 203.493 130.857 203.493 129.582V129.136C203.517 128.897 203.542 128.683 203.567 128.491C203.598 128.302 203.648 128.116 203.716 127.933C202.144 129.207 200.739 130.881 199.499 132.956C198.696 134.289 197.989 135.635 197.378 136.999C196.774 138.357 196.414 139.641 196.299 140.856C196.274 141.03 196.262 141.2 196.262 141.365C196.262 141.523 196.262 141.675 196.262 141.823C196.262 142.741 196.423 143.519 196.746 144.155C197.068 144.794 197.602 145.184 198.346 145.333C198.46 145.367 198.622 145.383 198.829 145.383C199.598 145.383 200.482 145.095 201.483 144.515C202.491 143.938 203.521 143.138 204.572 142.121C205.62 141.098 206.562 139.92 207.399 138.586Z" fill="#184A3C" fill-opacity="0.4"/>
<path d="M241.74 136.056C241.913 136.149 242 136.314 242 136.552C242 136.67 241.988 136.757 241.963 136.813C240.068 140.155 238.13 142.692 236.146 144.428C234.162 146.158 232.059 147.02 229.846 147.02C228.835 147.02 228.013 146.871 227.378 146.574C226.739 146.276 226.305 145.891 226.075 145.42C225.809 144.918 225.678 144.354 225.678 143.733C225.678 142.611 226.1 141.241 226.944 139.628C227.787 138.016 229.018 136.149 230.639 134.022L231.136 133.402C231.638 132.751 232.202 132.001 232.822 131.157C233.442 130.314 233.969 129.489 234.41 128.677C234.856 127.858 235.079 127.17 235.079 126.606C235.079 126.045 234.797 125.762 234.236 125.762C234.177 125.762 234.112 125.772 234.038 125.787C233.963 125.806 233.895 125.812 233.839 125.812C233.275 125.896 232.698 126.085 232.103 126.383C231.514 126.68 230.912 127.052 230.292 127.499C228.605 128.739 227.08 130.137 225.716 131.691C224.358 133.247 223.214 134.736 222.28 136.156C221.344 137.569 220.643 138.692 220.172 139.517C220.172 139.517 220.141 139.572 220.085 139.678C220.026 139.777 219.877 140.044 219.639 140.472C219.397 140.903 219.006 141.6 218.46 142.568C217.915 143.529 217.136 144.893 216.129 146.66H212.495L224.748 124.745H228.432L224.959 130.959C225.933 129.837 226.968 128.77 228.06 127.759C229.157 126.751 230.28 125.936 231.421 125.316C232.562 124.696 233.678 124.386 234.769 124.386C235.241 124.386 235.7 124.448 236.146 124.572C236.593 124.69 236.931 124.953 237.163 125.366C237.312 125.573 237.424 125.806 237.498 126.06C237.572 126.308 237.61 126.612 237.61 126.965C237.61 127.734 237.355 128.748 236.853 130.004C236.348 131.263 235.445 132.807 234.149 134.643C233.287 135.883 232.382 137.179 231.433 138.524C230.491 139.873 229.765 141.076 229.263 142.134C228.915 142.878 228.742 143.504 228.742 144.006C228.742 144.571 228.915 144.98 229.263 145.234C229.616 145.482 230.075 145.606 230.639 145.606C231.235 145.606 231.898 145.467 232.636 145.185C233.38 144.905 234.118 144.484 234.856 143.919C235.898 143.12 236.927 142.09 237.944 140.831C238.961 139.576 239.957 138.059 240.933 136.28C241.057 136.075 241.222 135.97 241.429 135.97C241.519 135.97 241.622 136.001 241.74 136.056Z" fill="#184A3C" fill-opacity="0.4"/>
<path d="M42.5153 101.663C44.0191 101.837 45.2687 102.296 46.2608 103.04C47.253 103.778 48.0282 104.695 48.5925 105.793C49.1537 106.884 49.5506 108.05 49.7831 109.29C50.0219 110.531 50.1428 111.759 50.1428 112.974C50.1428 113.653 50.1118 114.31 50.056 114.946C49.9971 115.585 49.9226 116.183 49.8327 116.744C49.4762 118.936 48.9057 121.231 48.1212 123.628C47.343 126.027 46.3849 128.415 45.2439 130.796C44.1028 133.177 42.8192 135.459 41.3991 137.642C40.4565 139.1 39.3217 140.631 38.0009 142.244C36.6862 143.856 35.201 145.443 33.5484 147.006C31.8927 148.575 30.0882 150.02 28.1286 151.334C26.1752 152.655 24.0854 153.753 21.853 154.621C19.6206 155.495 17.2579 156.038 14.7712 156.246C14.4798 156.271 14.1945 156.289 13.9155 156.308C13.6333 156.323 13.345 156.333 13.0473 156.333C10.201 156.333 7.81349 155.744 5.87872 154.572C3.94395 153.406 2.48047 151.762 1.48828 149.648C0.496095 147.53 0 145.071 0 142.268C0 140.938 0.111621 139.534 0.334864 138.052C0.558107 136.573 0.905373 135.035 1.37666 133.438C2.14561 130.802 3.53468 127.975 5.54386 124.955C7.55925 121.938 10.356 118.772 13.9279 115.454C14.2813 115.107 14.61 114.934 14.9077 114.934C15.0565 114.934 15.1464 114.946 15.1805 114.971C15.3293 115.12 15.4037 115.268 15.4037 115.417C15.4037 115.591 15.2828 115.826 15.0441 116.124C15.0441 116.124 14.7991 116.394 14.3123 116.93C13.8224 117.461 13.1961 118.202 12.4272 119.15C11.6582 120.093 10.8335 121.194 9.9591 122.449C9.09094 123.708 8.28478 125.076 7.54064 126.555C6.18258 129.252 5.14078 131.968 4.41524 134.703C3.6866 137.441 3.32384 139.993 3.32384 142.355C3.32384 144.687 3.69901 146.77 4.45245 148.606C5.2121 150.442 6.39032 151.896 7.98713 152.972C9.58083 154.054 11.6706 154.612 14.2503 154.646C15.5154 154.646 16.7091 154.488 17.8346 154.175C18.957 153.868 20.0236 153.474 21.0344 152.996C23.0994 152.054 25.1179 150.767 27.0868 149.139C29.0526 147.508 30.9315 145.654 32.7175 143.571C34.5096 141.487 36.1653 139.276 37.6784 136.935C39.8612 133.596 41.7371 130.219 43.3091 126.803C44.878 123.38 45.957 120.149 46.5461 117.104C46.6949 116.304 46.8624 115.312 47.0546 114.127C47.253 112.946 47.3523 111.734 47.3523 110.493C47.3523 109.371 47.2313 108.292 46.9926 107.256C46.7507 106.215 46.3229 105.356 45.7027 104.677C45.2314 104.174 44.5927 103.768 43.7928 103.461C42.999 103.148 42.0967 102.99 41.0891 102.99C40.41 102.99 39.6876 103.083 38.9186 103.263C37.1978 103.644 35.3902 104.385 33.4988 105.483C31.6043 106.574 29.7688 107.951 27.9922 109.613C26.2217 111.269 24.6187 113.16 23.18 115.293C21.7476 117.42 20.6313 119.739 19.8314 122.251C19.0624 124.617 18.678 126.672 18.678 128.415C18.678 129.779 18.9136 130.939 19.3849 131.888C19.8624 132.83 20.591 133.509 21.5677 133.922C22.3925 134.244 23.1924 134.405 23.9614 134.405C26.1752 134.405 28.3208 133.103 30.3982 130.499C31.316 129.317 32.0849 128.151 32.7051 127.001C33.381 125.637 33.8337 124.328 34.0569 123.069C34.2802 121.814 34.3918 120.713 34.3918 119.77C34.3918 119.085 34.3608 118.499 34.305 118.009C34.246 117.523 34.1995 117.175 34.1685 116.968C34.1685 116.912 34.1592 116.843 34.1437 116.769C34.1251 116.695 34.1189 116.63 34.1189 116.571C34.1189 115.826 34.46 115.386 35.1483 115.244C35.4119 115.244 35.6475 115.368 35.8553 115.616C36.0599 115.864 36.1808 116.285 36.2149 116.881C36.2149 117.03 36.218 117.197 36.2273 117.377C36.2428 117.55 36.2521 117.712 36.2521 117.86C36.2521 119.516 36.094 120.986 35.7808 122.276C35.4739 123.559 35.1638 124.564 34.8507 125.29C34.5437 126.018 34.3918 126.381 34.3918 126.381C34.0352 127.15 33.6135 127.95 33.1267 128.775C32.6368 129.602 32.0539 130.446 31.378 131.305C30.1936 132.753 28.8758 133.884 27.4216 134.703C25.9737 135.515 24.5567 135.918 23.1676 135.918C21.4468 135.918 20.036 135.521 18.9384 134.728C17.847 133.928 17.0409 132.861 16.52 131.528C16.0053 130.198 15.751 128.762 15.751 127.224C15.751 125.448 16.0487 123.671 16.644 121.891C17.4129 119.529 18.4981 117.247 19.9058 115.045C21.3104 112.838 22.9444 110.825 24.8047 109.005C26.6713 107.188 28.6867 105.657 30.8447 104.416C33.0027 103.17 35.2351 102.339 37.542 101.923C38.8132 101.694 39.9976 101.576 41.0891 101.576C41.3526 101.576 41.6038 101.585 41.8456 101.601C42.0843 101.61 42.3076 101.632 42.5153 101.663Z" fill="#184A3C"/>
<path d="M73.3437 134.095C73.5484 134.219 73.6538 134.387 73.6538 134.591C73.6538 134.675 73.6228 134.777 73.567 134.901C72.6492 136.523 71.6632 138.12 70.6152 139.689C69.5641 141.261 68.4324 142.55 67.217 143.558C66.0077 144.56 64.6776 145.059 63.2234 145.059C61.7754 145.059 60.6065 144.693 59.7135 143.955C58.8268 143.211 58.3865 142.116 58.3865 140.668C58.3865 140.578 58.3927 140.482 58.4113 140.383C58.4268 140.278 58.4361 140.179 58.4361 140.085C57.4935 141.509 56.4579 142.696 55.3355 143.645C54.21 144.588 52.9666 145.059 51.6024 145.059C50.1544 145.059 48.9917 144.693 48.1173 143.955C47.2491 143.211 46.8151 142.129 46.8151 140.706C46.8151 139.881 46.9763 138.941 47.2988 137.89C47.6212 136.842 48.1359 135.68 48.8491 134.405L55.3355 122.784H58.9694L52.669 134.095C51.8411 135.633 51.1838 136.966 50.697 138.089C50.2071 139.214 49.8909 140.16 49.742 140.929C49.742 140.988 49.7327 141.053 49.7172 141.127C49.6986 141.202 49.6924 141.285 49.6924 141.375C49.6924 141.791 49.8071 142.25 50.0397 142.752C50.2784 143.257 50.7249 143.567 51.3791 143.682C51.4691 143.716 51.6179 143.732 51.8256 143.732C52.3279 143.732 52.9046 143.592 53.5496 143.31C54.2007 143.031 54.9138 142.516 55.6828 141.772C56.2781 141.186 56.8114 140.544 57.2827 139.85C57.754 139.155 58.2252 138.393 58.6965 137.555L60.1228 135.075C60.1786 134.96 60.2468 134.852 60.3212 134.752C60.3957 134.647 60.4484 134.529 60.4825 134.405L67.0061 122.784H70.64L64.3396 134.095C63.5118 135.633 62.8544 136.966 62.3676 138.089C61.8777 139.214 61.5615 140.16 61.4127 140.929C61.3785 141.022 61.363 141.186 61.363 141.425C61.363 141.84 61.4747 142.29 61.6979 142.777C61.9212 143.267 62.3583 143.567 63.0126 143.682C63.0932 143.716 63.2544 143.732 63.4963 143.732C63.9986 143.732 64.5753 143.592 65.2202 143.31C65.8713 143.031 66.572 142.516 67.3162 141.772C68.2588 140.889 69.1641 139.797 70.0323 138.498C70.9067 137.193 71.7593 135.8 72.5872 134.318C72.736 134.145 72.9004 134.058 73.0833 134.058C73.198 134.058 73.2848 134.07 73.3437 134.095Z" fill="#184A3C"/>
<path d="M92.1178 134.095C92.3224 134.244 92.4278 134.424 92.4278 134.628C92.4278 134.687 92.3968 134.777 92.341 134.901C90.4714 138.244 88.5366 140.78 86.5367 142.516C84.543 144.246 82.4377 145.108 80.2239 145.108C79.2131 145.108 78.3914 144.953 77.7558 144.637C77.1171 144.324 76.683 143.949 76.4536 143.509C76.1807 142.972 76.0443 142.392 76.0443 141.772C76.0443 140.625 76.466 139.251 77.3093 137.655C78.1527 136.052 79.3867 134.188 81.0176 132.061C81.7866 131.088 82.5369 130.083 83.2749 129.047C84.019 128.006 84.6577 126.911 85.1972 125.761L85.4081 125.265H85.1476C83.8144 125.265 82.7478 125.076 81.9478 124.694C81.1541 124.307 80.5495 123.907 80.1371 123.491L73.7871 134.852C73.6692 135.059 73.508 135.162 73.3034 135.162C73.2104 135.162 73.108 135.134 72.9933 135.075C72.8104 134.985 72.7205 134.836 72.7205 134.628C72.7205 134.539 72.7484 134.436 72.8073 134.318L79.3805 122.511C79.1728 122.158 79.024 121.789 78.934 121.408C78.841 121.02 78.7976 120.648 78.7976 120.291C78.7976 119.73 78.8875 119.231 79.0705 118.791C79.1263 118.676 79.1852 118.564 79.2441 118.456C79.2999 118.35 79.3588 118.239 79.4177 118.121C79.7712 117.674 80.1278 117.349 80.4843 117.141C80.9308 116.819 81.3804 116.617 81.8362 116.533C82.2982 116.443 82.7075 116.397 83.064 116.397C83.3865 116.397 83.6345 116.416 83.8082 116.447C83.988 116.471 84.081 116.484 84.081 116.484C83.3679 117.758 82.8191 118.741 82.4315 119.436C82.0501 120.13 81.768 120.626 81.5882 120.924C81.4145 121.215 81.3091 121.392 81.2781 121.457C81.2533 121.516 81.2409 121.544 81.2409 121.544C81.182 121.662 81.0921 121.829 80.968 122.052C80.8502 122.276 80.782 122.418 80.7572 122.474C81.2285 123.128 81.9261 123.603 82.8532 123.9C83.7865 124.192 84.8624 124.334 86.0778 124.334C86.639 124.334 87.2219 124.307 87.8265 124.248C88.4374 124.192 89.0668 124.099 89.7117 123.975C89.7117 123.975 89.3458 124.694 88.6203 126.133C87.901 127.572 86.7413 129.444 85.1476 131.751L84.4779 132.718C83.7648 133.729 83.0175 134.802 82.2331 135.943C81.4548 137.078 80.7696 138.135 80.1743 139.118C80.0255 139.41 79.8549 139.834 79.6658 140.396C79.4736 140.96 79.3805 141.509 79.3805 142.045C79.3805 142.426 79.4673 142.774 79.641 143.087C79.8208 143.394 80.103 143.58 80.4843 143.645C80.5743 143.67 80.6611 143.682 80.7448 143.682C80.8347 143.682 80.9246 143.682 81.0176 143.682C82.323 143.682 83.7276 143.121 85.2345 141.995C86.2669 141.202 87.2932 140.179 88.3102 138.92C89.3334 137.655 90.3504 136.123 91.3612 134.318C91.4511 134.145 91.6124 134.058 91.8449 134.058C91.9689 134.058 92.0589 134.07 92.1178 134.095Z" fill="#184A3C"/>
<path d="M178.907 105.26C179.022 105.526 179.124 105.864 179.217 106.277C179.307 106.692 179.354 107.151 179.354 107.653C179.354 108.035 179.317 108.456 179.242 108.918C179.168 109.374 179.025 109.855 178.82 110.357C178.579 110.803 178.225 111.027 177.754 111.027C177.695 111.027 177.636 111.021 177.58 111.002C177.521 110.986 177.459 110.965 177.394 110.94C177.072 110.791 176.91 110.478 176.91 109.997C176.91 109.793 176.954 109.585 177.047 109.377C177.369 108.816 177.596 108.317 177.729 107.877C177.859 107.43 177.927 107.03 177.927 106.673C177.927 106.295 177.881 105.963 177.791 105.681C177.707 105.402 177.608 105.154 177.493 104.937C176.988 104.112 176.371 103.517 175.645 103.151C174.917 102.779 174.225 102.544 173.574 102.444C172.929 102.339 172.446 102.283 172.123 102.283C170.998 102.283 170.033 102.426 169.233 102.705C168.44 102.987 167.789 103.244 167.286 103.474C167.252 103.474 167.227 103.483 167.212 103.498C167.203 103.517 167.181 103.523 167.15 103.523C165.494 104.261 163.593 105.591 161.445 107.517C159.302 109.445 156.899 112.286 154.239 116.037C153.138 117.575 152.007 119.281 150.841 121.147C149.675 123.007 148.438 125.076 147.132 127.348C144.652 131.757 142.432 135.531 140.472 138.672C138.519 141.806 136.758 144.433 135.189 146.547C133.626 148.662 132.2 150.348 130.91 151.607C129.626 152.863 128.417 153.809 127.276 154.447C126.135 155.083 125.019 155.505 123.928 155.712C123.1 155.917 122.284 156.023 121.484 156.023C120.483 156.023 119.639 155.917 118.954 155.712C118.275 155.505 117.906 155.384 117.85 155.353C117.609 155.26 117.491 155.083 117.491 154.82C117.491 154.726 117.506 154.652 117.54 154.596C117.655 154.389 117.816 154.286 118.024 154.286C118.139 154.286 118.229 154.302 118.297 154.336C118.297 154.336 118.315 154.336 118.359 154.336C118.399 154.336 118.436 154.348 118.471 154.373C118.471 154.373 118.536 154.389 118.669 154.423C118.799 154.454 118.97 154.472 119.177 154.472C119.475 154.472 119.813 154.416 120.194 154.311C120.582 154.202 121.013 154.004 121.484 153.716C122.7 152.888 123.943 151.607 125.217 149.871C126.489 148.141 127.723 146.116 128.913 143.794C130.11 141.471 131.22 139.025 132.237 136.452C133.26 133.881 134.101 131.351 134.755 128.861C135.167 127.292 135.542 125.584 135.883 123.739C136.221 121.888 136.392 120.062 136.392 118.257C136.392 116.54 136.175 114.946 135.747 113.482C135.325 112.019 134.6 110.81 133.577 109.849C132.56 108.89 131.133 108.32 129.298 108.137C129.18 108.137 129.068 108.134 128.963 108.125C128.864 108.109 128.752 108.1 128.628 108.1C127.295 108.1 125.875 108.41 124.362 109.03C122.855 109.65 121.342 110.493 119.822 111.56C118.3 112.62 116.837 113.83 115.432 115.194C114.024 116.558 112.744 117.978 111.587 119.448C110.105 121.408 108.924 123.215 108.04 124.868C107.153 126.523 106.471 127.981 105.994 129.246C105.522 130.505 105.169 131.484 104.94 132.185C104.285 134.318 103.96 136.138 103.96 137.642C103.96 139.397 104.276 140.712 104.915 141.586C105.55 142.454 106.192 142.975 106.837 143.149C107.225 143.267 107.6 143.347 107.966 143.397C108.338 143.44 108.688 143.459 109.02 143.459C110.316 143.459 111.503 143.143 112.579 142.504C113.662 141.868 114.765 141.078 115.891 140.135C117.578 138.715 119.066 137.044 120.356 135.125C121.646 133.199 122.675 131.305 123.444 129.444C123.881 128.437 124.213 127.466 124.436 126.53C124.659 125.596 124.808 124.818 124.883 124.198C124.957 123.578 124.994 123.268 124.994 123.268C124.994 122.269 125.36 121.767 126.098 121.767H126.284C126.904 121.826 127.214 122.211 127.214 122.921C127.214 123.128 127.168 123.392 127.078 123.714C126.836 124.632 126.523 125.569 126.135 126.517C125.754 127.46 125.369 128.334 124.982 129.134C124.6 129.928 124.287 130.567 124.039 131.044C123.791 131.515 123.667 131.751 123.667 131.751C122.83 133.407 121.813 135.056 120.616 136.7C119.426 138.337 118.089 139.775 116.61 141.016C115.246 142.175 113.844 143.071 112.406 143.707C110.973 144.346 109.519 144.662 108.04 144.662H107.78C107.631 144.662 107.463 144.656 107.284 144.637C107.11 144.622 106.961 144.612 106.837 144.612C106.248 144.557 105.609 144.411 104.915 144.178C104.22 143.94 103.566 143.546 102.955 143C102.351 142.448 101.854 141.698 101.467 140.755C101.085 139.806 100.896 138.607 100.896 137.159V136.625C100.896 136.625 100.961 136.126 101.095 135.125C101.225 134.117 101.544 132.756 102.05 131.044C102.552 129.326 103.33 127.385 104.381 125.227C105.429 123.063 106.865 120.812 108.685 118.481C110.502 116.143 112.803 113.864 115.581 111.647C116.647 110.822 117.857 110.022 119.215 109.253C120.579 108.484 122.03 107.858 123.568 107.368C125.106 106.872 126.675 106.624 128.281 106.624C128.454 106.624 128.634 106.624 128.826 106.624C129.025 106.624 129.211 106.642 129.385 106.673C132.287 106.94 134.535 108.183 136.131 110.407C137.725 112.624 138.525 115.637 138.525 119.448C138.525 120.871 138.414 122.387 138.19 124C137.967 125.612 137.607 127.336 137.111 129.171C136.631 131.032 135.989 132.973 135.189 134.988C134.395 136.997 133.493 138.994 132.485 140.978C131.484 142.963 130.42 144.832 129.298 146.584C128.172 148.345 127.022 149.911 125.85 151.285C124.684 152.665 123.537 153.74 122.414 154.509C123.214 154.302 124.058 153.892 124.945 153.282C125.838 152.677 126.845 151.759 127.971 150.528C129.093 149.304 130.389 147.67 131.853 145.629C133.316 143.595 134.994 141.034 136.888 137.94C138.779 134.849 140.956 131.14 143.412 126.815C144.618 124.691 145.784 122.735 146.909 120.949C148.032 119.156 149.145 117.519 150.245 116.037C150.599 115.535 150.946 115.054 151.287 114.599C151.625 114.137 151.957 113.699 152.279 113.284C154.264 110.738 156.164 108.667 157.984 107.07C159.801 105.477 161.532 104.227 163.169 103.325C164.812 102.426 166.359 101.806 167.807 101.465C169.261 101.117 170.61 100.944 171.85 100.944C172.089 100.944 172.511 100.978 173.115 101.043C173.726 101.102 174.408 101.263 175.162 101.527C175.912 101.793 176.628 102.215 177.307 102.792C177.993 103.371 178.526 104.193 178.907 105.26Z" fill="#184A3C"/>
<path d="M162.974 134.095C163.148 134.219 163.235 134.399 163.235 134.629C163.235 134.746 163.222 134.836 163.197 134.901C162.509 136.111 161.783 137.314 161.014 138.51C160.246 139.71 159.43 140.805 158.571 141.797C157.719 142.789 156.816 143.583 155.867 144.178C154.925 144.767 153.92 145.059 152.854 145.059C151.406 145.059 150.243 144.693 149.369 143.955C148.5 143.211 148.066 142.129 148.066 140.706C148.066 139.881 148.228 138.941 148.55 137.89C148.873 136.842 149.387 135.68 150.1 134.405L156.587 122.784H160.221L153.92 134.095C153.092 135.633 152.435 136.966 151.948 138.089C151.458 139.214 151.142 140.16 150.993 140.929C150.993 140.988 150.984 141.053 150.969 141.127C150.95 141.202 150.944 141.286 150.944 141.375C150.944 141.791 151.058 142.241 151.291 142.727C151.53 143.217 151.976 143.521 152.63 143.645C152.72 143.67 152.869 143.682 153.077 143.682C153.579 143.682 154.156 143.543 154.801 143.261C155.452 142.982 156.165 142.473 156.934 141.735C157.852 140.842 158.745 139.748 159.613 138.448C160.487 137.143 161.34 135.766 162.168 134.318C162.317 134.145 162.493 134.058 162.701 134.058C162.825 134.058 162.915 134.07 162.974 134.095ZM163.11 118.257C162.813 118.847 162.431 119.333 161.969 119.721C161.514 120.102 161.005 120.291 160.444 120.291C160.202 120.291 159.966 120.251 159.737 120.167C159.024 119.87 158.67 119.321 158.67 118.518C158.67 118.081 158.819 117.563 159.117 116.968C159.464 116.316 159.898 115.814 160.419 115.467C160.94 115.113 161.436 114.934 161.907 114.934C162.146 114.934 162.354 114.977 162.528 115.058C163.203 115.324 163.545 115.873 163.545 116.707C163.545 117.237 163.399 117.755 163.11 118.257Z" fill="#184A3C"/>
<path d="M180.281 134.095C180.454 134.219 180.541 134.387 180.541 134.591C180.541 134.709 180.529 134.796 180.504 134.852C179.289 137.01 177.968 138.855 176.548 140.383C175.124 141.906 173.459 143.068 171.549 143.868C169.646 144.662 167.376 145.059 164.741 145.059C163.234 145.059 162.08 144.619 161.28 143.732C161.073 143.459 160.896 143.192 160.747 142.926C160.629 142.662 160.573 142.368 160.573 142.045C160.573 141.633 160.651 141.264 160.809 140.941C160.973 140.613 161.073 140.417 161.107 140.358C161.404 139.946 161.742 139.636 162.124 139.428C162.511 139.224 162.883 139.118 163.24 139.118C163.445 139.118 163.59 139.131 163.674 139.155C164.235 139.363 164.517 139.806 164.517 140.482C164.517 140.699 164.486 140.916 164.431 141.14C164.372 141.357 164.269 141.583 164.12 141.822C163.947 142.144 163.73 142.442 163.476 142.715C163.227 142.981 162.955 143.171 162.657 143.285C163.103 143.583 163.68 143.732 164.393 143.732H164.79C165.559 143.676 166.297 143.26 167.01 142.492C167.72 141.716 168.331 140.662 168.846 139.329C169.367 137.999 169.702 136.448 169.85 134.678C170.055 132.371 170.439 130.337 171.004 128.576C171.565 126.815 172.346 125.448 173.348 124.471C171.636 124.911 170.191 125.612 169.019 126.579C167.854 127.54 166.84 128.663 165.981 129.953C165.128 131.236 164.3 132.604 163.5 134.058L163.017 134.901C162.924 135.109 162.759 135.211 162.521 135.211C162.462 135.211 162.375 135.183 162.26 135.125C162.077 135.035 161.987 134.87 161.987 134.628C161.987 134.514 162.003 134.427 162.037 134.368L162.521 133.475C163.289 132.12 164.086 130.805 164.914 129.531C165.748 128.26 166.728 127.113 167.854 126.096C168.976 125.072 170.35 124.266 171.971 123.677C173.599 123.082 175.568 122.784 177.875 122.784C178.262 122.784 178.458 122.976 178.458 123.355C178.458 123.745 178.262 123.938 177.875 123.938C177.875 123.938 177.865 123.938 177.85 123.938C177.841 123.938 177.791 123.938 177.701 123.938C176.783 123.938 176.042 124.248 175.481 124.868C174.917 125.488 174.495 126.319 174.216 127.361C173.934 128.396 173.72 129.556 173.571 130.846C173.422 132.129 173.304 133.435 173.224 134.765C173.075 136.774 172.694 138.498 172.083 139.937C171.478 141.369 170.687 142.498 169.714 143.323C171.401 142.851 172.827 142.175 173.993 141.289C175.165 140.405 176.179 139.363 177.031 138.163C177.89 136.966 178.706 135.683 179.475 134.318C179.623 134.145 179.8 134.058 180.008 134.058C180.123 134.058 180.213 134.07 180.281 134.095Z" fill="#184A3C"/>
<path d="M193.278 134.095C193.452 134.219 193.539 134.399 193.539 134.629C193.539 134.746 193.526 134.836 193.502 134.901C192.813 136.111 192.088 137.314 191.319 138.51C190.55 139.71 189.734 140.805 188.876 141.797C188.023 142.789 187.121 143.583 186.172 144.178C185.229 144.767 184.225 145.059 183.158 145.059C181.71 145.059 180.547 144.693 179.673 143.955C178.805 143.211 178.371 142.129 178.371 140.706C178.371 139.881 178.532 138.941 178.854 137.89C179.177 136.842 179.692 135.68 180.405 134.405L186.891 122.784H190.525L184.225 134.095C183.397 135.633 182.739 136.966 182.253 138.089C181.763 139.214 181.447 140.16 181.298 140.929C181.298 140.988 181.288 141.053 181.273 141.127C181.254 141.202 181.248 141.286 181.248 141.375C181.248 141.791 181.363 142.241 181.595 142.727C181.834 143.217 182.281 143.521 182.935 143.645C183.025 143.67 183.174 143.682 183.381 143.682C183.884 143.682 184.46 143.543 185.105 143.261C185.756 142.982 186.469 142.473 187.238 141.735C188.156 140.842 189.049 139.748 189.917 138.448C190.792 137.143 191.644 135.766 192.472 134.318C192.621 134.145 192.798 134.058 193.006 134.058C193.13 134.058 193.219 134.07 193.278 134.095ZM193.415 118.257C193.117 118.847 192.736 119.333 192.274 119.721C191.818 120.102 191.31 120.291 190.748 120.291C190.506 120.291 190.271 120.251 190.041 120.167C189.328 119.87 188.975 119.321 188.975 118.518C188.975 118.081 189.124 117.563 189.421 116.968C189.769 116.316 190.203 115.814 190.723 115.467C191.244 115.113 191.74 114.934 192.212 114.934C192.451 114.934 192.658 114.977 192.832 115.058C193.508 115.324 193.849 115.873 193.849 116.707C193.849 117.237 193.703 117.755 193.415 118.257Z" fill="#184A3C"/>
<path d="M217.592 127.708C217.797 127.801 217.902 127.962 217.902 128.192C217.902 128.316 217.884 128.409 217.853 128.464C217.174 129.739 216.33 130.768 215.323 131.553C214.321 132.331 213.242 132.898 212.086 133.252C210.935 133.608 209.798 133.785 208.675 133.785H208.142C207.9 134.349 207.633 134.911 207.336 135.472C207.044 136.036 206.722 136.613 206.368 137.208C204.911 139.574 203.274 141.459 201.457 142.864C199.637 144.271 197.885 145.003 196.198 145.059H195.801C194.561 145.059 193.575 144.78 192.85 144.215C192.13 143.654 191.622 142.947 191.324 142.095C191.027 141.236 190.878 140.389 190.878 139.552C190.878 139.403 190.878 139.264 190.878 139.131C190.878 139 190.893 138.876 190.927 138.758C191.067 137.453 191.389 136.067 191.895 134.604C192.397 133.14 193.092 131.714 193.978 130.325C195.845 127.423 197.718 125.389 199.597 124.223C201.472 123.057 203.224 122.474 204.855 122.474H205.339C205.519 122.474 205.838 122.521 206.294 122.611C206.756 122.694 207.243 122.893 207.757 123.206C208.278 123.513 208.715 123.984 209.072 124.62C209.425 125.258 209.605 126.139 209.605 127.261C209.605 127.444 209.596 127.63 209.58 127.82C209.562 128.012 209.543 128.238 209.518 128.502C209.46 129.156 209.357 129.829 209.208 130.523C209.06 131.218 208.88 131.937 208.675 132.681C210.154 132.681 211.664 132.315 213.202 131.577C214.74 130.833 215.949 129.618 216.836 127.931C216.926 127.751 217.087 127.658 217.32 127.658C217.444 127.658 217.533 127.677 217.592 127.708ZM208.315 128.775C208.346 128.57 208.368 128.353 208.377 128.13C208.393 127.906 208.402 127.692 208.402 127.485C208.402 127.187 208.384 126.886 208.353 126.579C208.328 126.266 208.257 125.959 208.142 125.662C207.9 124.986 207.528 124.552 207.026 124.359C206.529 124.17 206.086 124.074 205.699 124.074C205.606 124.074 205.525 124.083 205.45 124.099C205.376 124.108 205.308 124.111 205.252 124.111C204.334 124.26 203.68 124.654 203.292 125.289C202.911 125.928 202.691 126.586 202.635 127.261V127.621C202.635 128.623 202.989 129.618 203.702 130.61C204.412 131.602 205.491 132.232 206.939 132.495L207.385 132.594C207.857 131.264 208.167 129.99 208.315 128.775ZM205.438 136.625C205.726 136.123 205.996 135.621 206.244 135.125C206.498 134.622 206.731 134.129 206.939 133.649C206.914 133.649 206.883 133.646 206.852 133.636C206.827 133.621 206.781 133.611 206.716 133.611C205.004 133.289 203.708 132.529 202.834 131.329C201.965 130.133 201.531 128.895 201.531 127.621V127.175C201.556 126.936 201.581 126.722 201.606 126.53C201.637 126.341 201.686 126.155 201.755 125.972C200.183 127.246 198.778 128.92 197.538 130.995C196.735 132.328 196.028 133.673 195.417 135.038C194.812 136.396 194.453 137.679 194.338 138.895C194.313 139.068 194.301 139.239 194.301 139.403C194.301 139.561 194.301 139.713 194.301 139.862C194.301 140.78 194.462 141.558 194.784 142.194C195.107 142.833 195.64 143.223 196.384 143.372C196.499 143.406 196.66 143.422 196.868 143.422C197.637 143.422 198.521 143.133 199.522 142.554C200.53 141.977 201.559 141.177 202.61 140.16C203.658 139.137 204.601 137.958 205.438 136.625Z" fill="#184A3C"/>
<path d="M239.778 134.095C239.952 134.188 240.039 134.353 240.039 134.591C240.039 134.709 240.026 134.796 240.001 134.852C238.107 138.194 236.169 140.73 234.185 142.467C232.2 144.197 230.098 145.059 227.884 145.059C226.874 145.059 226.052 144.91 225.416 144.612C224.778 144.315 224.343 143.93 224.114 143.459C223.847 142.957 223.717 142.392 223.717 141.772C223.717 140.65 224.139 139.279 224.982 137.667C225.826 136.055 227.057 134.188 228.678 132.061L229.174 131.441C229.677 130.79 230.241 130.04 230.861 129.196C231.481 128.353 232.008 127.528 232.448 126.716C232.895 125.897 233.118 125.209 233.118 124.645C233.118 124.083 232.836 123.801 232.275 123.801C232.216 123.801 232.151 123.811 232.076 123.826C232.002 123.845 231.934 123.851 231.878 123.851C231.314 123.935 230.737 124.124 230.142 124.421C229.552 124.719 228.951 125.091 228.331 125.538C226.644 126.778 225.119 128.176 223.754 129.73C222.396 131.286 221.252 132.774 220.319 134.194C219.383 135.608 218.682 136.731 218.211 137.555C218.211 137.555 218.18 137.611 218.124 137.717C218.065 137.816 217.916 138.083 217.677 138.51C217.435 138.941 217.045 139.639 216.499 140.606C215.953 141.568 215.175 142.932 214.167 144.699H210.533L222.787 122.784H226.47L222.998 128.998C223.971 127.875 225.007 126.809 226.098 125.798C227.196 124.79 228.318 123.975 229.459 123.355C230.6 122.735 231.717 122.425 232.808 122.425C233.279 122.425 233.738 122.487 234.185 122.611C234.631 122.728 234.969 122.992 235.202 123.404C235.351 123.612 235.462 123.845 235.537 124.099C235.611 124.347 235.648 124.651 235.648 125.004C235.648 125.773 235.394 126.787 234.892 128.043C234.386 129.302 233.484 130.846 232.188 132.681C231.326 133.922 230.421 135.218 229.472 136.563C228.529 137.912 227.804 139.115 227.301 140.172C226.954 140.916 226.781 141.543 226.781 142.045C226.781 142.609 226.954 143.019 227.301 143.273C227.655 143.521 228.114 143.645 228.678 143.645C229.273 143.645 229.937 143.505 230.675 143.223C231.419 142.944 232.157 142.523 232.895 141.958C233.937 141.158 234.966 140.129 235.983 138.87C237 137.614 237.995 136.098 238.972 134.318C239.096 134.114 239.26 134.008 239.468 134.008C239.558 134.008 239.66 134.039 239.778 134.095Z" fill="#184A3C"/>
</svg>
