<svg width="788" height="104" viewBox="0 0 788 104" fill="none" xmlns="http://www.w3.org/2000/svg">
<path d="M156.229 15.0273C156.438 15.4753 156.609 16.043 156.75 16.7357C156.901 17.4336 156.979 18.2044 156.979 19.0482C156.979 19.6888 156.917 20.3971 156.792 21.1732C156.667 21.9388 156.427 22.7461 156.083 23.5898C155.693 24.3398 155.094 24.7148 154.292 24.7148C154.193 24.7148 154.094 24.7044 154 24.6732C153.901 24.6471 153.802 24.6107 153.708 24.569C153.151 24.319 152.875 23.819 152.875 23.069C152.875 22.668 152.979 22.293 153.188 21.944C153.729 21.0013 154.109 20.1628 154.333 19.4232C154.552 18.6732 154.667 18.0013 154.667 17.4023C154.667 16.7096 154.573 16.1419 154.396 15.694C154.229 15.2513 154.047 14.8503 153.854 14.4857C153.005 13.1003 151.969 12.1003 150.75 11.4857C149.542 10.8607 148.385 10.4648 147.292 10.2982C146.193 10.1211 145.375 10.0273 144.833 10.0273C142.943 10.0273 141.323 10.2669 139.979 10.7357C138.646 11.2096 137.552 11.6419 136.708 12.0273C136.651 12.0273 136.609 12.043 136.583 12.069C136.568 12.1003 136.531 12.1107 136.479 12.1107C133.698 13.3503 130.505 15.5846 126.896 18.819C123.297 22.0586 119.26 26.8294 114.792 33.1315C112.958 35.7148 111.052 38.5794 109.083 41.7148C107.125 44.8398 105.052 48.3138 102.875 52.1315C98.75 59.5378 95.0312 65.8763 91.7292 71.1523C88.4219 76.418 85.4479 80.8294 82.8125 84.3815C80.1875 87.9336 77.7917 90.7669 75.625 92.8815C73.4583 94.9909 71.4167 96.5794 69.5 97.6523C67.5938 98.7201 65.7188 99.4284 63.875 99.7773C62.4844 100.121 61.125 100.298 59.7917 100.298C58.0938 100.298 56.6719 100.121 55.5208 99.7773C54.3802 99.4284 53.7604 99.2253 53.6667 99.1732C53.276 99.0169 53.0833 98.7201 53.0833 98.2773C53.0833 98.1211 53.1042 97.9961 53.1458 97.9023C53.3385 97.5534 53.6094 97.3815 53.9583 97.3815C54.1667 97.3815 54.3177 97.4076 54.4167 97.4648C54.4167 97.4648 54.5469 97.4961 54.8125 97.569C55.0885 97.6523 55.401 97.7409 55.75 97.8398C55.9583 97.8815 56.1927 97.9232 56.4583 97.9648C56.7344 98.0169 57.0469 98.0482 57.3958 98.0482C58.3958 98.0482 59.5885 97.7773 60.9792 97.2357C62.3646 96.694 63.8333 95.5742 65.375 93.8815C66.6667 92.4336 67.8177 90.6107 68.8333 88.4023C69.8594 86.194 70.7708 83.8711 71.5625 81.444C72.3542 79.0013 73.0052 76.7253 73.5208 74.6107C74.0469 72.5013 74.4635 70.8294 74.7708 69.5898L74.9792 68.5482C75.5312 66.3555 76.2188 63.4232 77.0417 59.7565C77.8594 56.0794 78.8854 52.194 80.125 48.1107V47.819C80.125 47.6263 80.026 47.5273 79.8333 47.5273C79.776 47.5273 79.6979 47.5794 79.6042 47.6732C78.8125 48.8711 78.026 50.0482 77.25 51.2148C76.4844 52.3815 75.7552 53.5378 75.0625 54.6732C72.9792 58.1055 70.6146 61.8086 67.9792 65.7773C65.3542 69.7513 62.151 74.0638 58.375 78.7148C54.5938 83.3503 49.9219 88.4544 44.3542 94.0273C42.1562 96.2201 40.1146 97.7773 38.2292 98.694C36.3542 99.6107 34.4688 100.069 32.5833 100.069C31.0417 100.069 29.6927 99.8294 28.5417 99.3607C27.401 98.8867 26.4844 98.4284 25.7917 97.9857C25.6927 97.8867 25.5521 97.7461 25.375 97.569C25.2083 97.4023 25.125 97.194 25.125 96.944C25.125 96.8451 25.1719 96.694 25.2708 96.4857C25.4219 96.2357 25.6458 96.1107 25.9375 96.1107C26.1875 96.1107 26.3958 96.1576 26.5625 96.2565C26.7396 96.3659 26.8333 96.4232 26.8333 96.4232C27.026 96.5169 27.5 96.7409 28.25 97.0898C29 97.4336 29.8958 97.6107 30.9375 97.6107C31.4792 97.6107 32.0208 97.5482 32.5625 97.4232C33.1146 97.2982 33.6927 97.0586 34.2917 96.7148C36.3333 95.3659 38.4271 93.2409 40.5833 90.3398C42.75 87.4336 44.8594 84.0169 46.9167 80.0898C48.9844 76.1628 50.875 72.0013 52.5833 67.6107C54.3021 63.2096 55.7344 58.8971 56.875 54.6732C57.5677 52.0378 58.1979 49.168 58.7708 46.069C59.3385 42.9596 59.625 39.8919 59.625 36.8607C59.625 33.9753 59.2604 31.2982 58.5417 28.8398C57.8333 26.3815 56.6146 24.3503 54.8958 22.7357C53.1875 21.1263 50.7917 20.168 47.7083 19.8607C47.401 19.819 47.1042 19.7982 46.8125 19.7982C46.5208 19.7982 46.2188 19.7982 45.9167 19.7982C41.6927 19.7982 37.5521 21.043 33.5 23.5273C29.4583 26.0013 25.6094 29.3398 21.9583 33.5482C18.3021 37.7461 14.9375 42.4753 11.8542 47.7357C9.77083 51.319 8.10417 55.0378 6.85417 58.8815C5.61458 62.7305 5 66.2253 5 69.3607C5 71.6419 5.39583 73.6263 6.1875 75.319C6.97917 77.0169 8.23958 78.1315 9.97917 78.6732C11.3229 79.1211 12.5938 79.3398 13.7917 79.3398C15.9271 79.3398 17.8854 78.7878 19.6667 77.6732C21.4583 76.5482 23.2969 75.194 25.1875 73.6107C28.0208 71.2253 30.5208 68.418 32.6875 65.194C34.8542 61.9596 36.5833 58.7773 37.875 55.6523C38.6094 53.9596 39.1667 52.3294 39.5417 50.7565C39.9167 49.1888 40.1667 47.8815 40.2917 46.8398C40.4167 45.7982 40.4792 45.2773 40.4792 45.2773C40.4792 43.6003 41.0938 42.7565 42.3333 42.7565H42.6458C43.6875 42.8555 44.2083 43.5013 44.2083 44.694C44.2083 45.043 44.1302 45.4857 43.9792 46.0273C43.5729 47.569 43.0469 49.1419 42.3958 50.7357C41.7552 52.319 41.1094 53.7878 40.4583 55.1315C39.8177 56.4648 39.2917 57.5378 38.875 58.3398C38.4583 59.1315 38.25 59.5273 38.25 59.5273C36.8438 62.3086 35.1354 65.0794 33.125 67.8398C31.125 70.5898 28.8802 73.0065 26.3958 75.0898C24.1042 77.0378 21.75 78.543 19.3333 79.6107C16.9271 80.6836 14.4844 81.2148 12 81.2148H11.5625C11.3125 81.2148 11.0313 81.2044 10.7292 81.1732C10.4375 81.1471 10.1875 81.1315 9.97917 81.1315C8.48958 80.9805 6.97917 80.5378 5.4375 79.7982C3.89583 79.0482 2.60417 77.7253 1.5625 75.819C0.520833 73.9023 0 71.1836 0 67.6523C0 67.4023 0.0833333 66.444 0.25 64.7773C0.427083 63.1107 0.901041 60.9128 1.66667 58.1732C2.44271 55.4388 3.71354 52.319 5.47917 48.819C7.23958 45.319 9.66667 41.6107 12.75 37.694C15.8333 33.7669 19.8021 29.7878 24.6667 25.7565C26.4167 24.3138 28.4271 22.9596 30.7083 21.694C33 20.4336 35.4688 19.4023 38.125 18.6107C40.7917 17.8086 43.4635 17.4023 46.1458 17.4023C46.4896 17.4023 46.8125 17.4023 47.1042 17.4023C47.4063 17.4023 47.7344 17.4336 48.0833 17.4857C53.151 17.9336 57.1719 20.1315 60.1458 24.0898C63.1302 28.0378 64.625 33.4128 64.625 40.2148C64.625 42.4544 64.4479 44.8138 64.1042 47.2982C63.7552 49.7878 63.2083 52.418 62.4583 55.194C61.625 58.4753 60.5208 61.8763 59.1458 65.4023C57.7813 68.9336 56.2292 72.4232 54.4792 75.8815C52.7396 79.3398 50.8594 82.5534 48.8333 85.5273C48.7188 85.6211 48.6667 85.7773 48.6667 85.9857C48.6667 86.0794 48.7188 86.1315 48.8333 86.1315C48.9271 86.1315 49.0104 86.0898 49.0833 86.0065C49.151 85.9336 49.1875 85.9023 49.1875 85.9023C52.9219 81.6419 56.1042 77.7305 58.7292 74.1732C61.3646 70.6211 63.6667 67.3138 65.625 64.2565C67.5938 61.2044 69.4219 58.2773 71.1042 55.4857L72.2292 53.7148C73.2292 52.1211 74.2188 50.5169 75.2083 48.9023C76.2083 47.2773 77.25 45.6263 78.3333 43.944C78.3333 43.944 78.6458 43.4388 79.2708 42.4232C79.8958 41.3971 80.776 40.0638 81.9167 38.4232C83.0677 36.7878 84.4062 35.0378 85.9375 33.1732C87.4792 31.3138 89.1719 29.5378 91.0208 27.8398C91.5625 27.2982 92.1302 27.0273 92.7292 27.0273C93.1302 27.0273 93.4792 27.1732 93.7708 27.4648C94.0208 27.8138 94.1458 28.1419 94.1458 28.444C94.1458 28.9857 93.8229 29.6315 93.1875 30.3815C93.1875 30.3815 92.6094 31.1211 91.4583 32.5898C90.3177 34.0482 88.9635 36.2253 87.3958 39.1107C85.8385 41.9857 84.3594 45.5586 82.9583 49.819C81.7188 53.6003 80.6771 57.2305 79.8333 60.7148C78.9844 64.1888 78.2917 66.944 77.75 68.9857C76.8021 72.5169 75.7708 76.2721 74.6458 80.2565C73.5312 84.2253 71.9062 87.9023 69.7708 91.2773C69.7135 91.319 69.6875 91.4128 69.6875 91.569C69.6875 91.7201 69.7135 91.7982 69.7708 91.7982C69.8646 91.7982 69.9635 91.7669 70.0625 91.7148C70.1562 91.6732 70.2344 91.6211 70.2917 91.569C72.2344 89.4857 74.4375 86.7253 76.8958 83.2982C79.3542 79.8711 82.1927 75.5378 85.4167 70.2982C88.651 65.0482 92.3802 58.694 96.6042 51.2357C98.6458 47.668 100.615 44.3815 102.521 41.3815C104.438 38.3711 106.292 35.6211 108.083 33.1315C108.677 32.2878 109.26 31.4805 109.833 30.7148C110.401 29.9388 110.964 29.2044 111.521 28.5065C114.839 24.2305 118.026 20.7513 121.083 18.069C124.151 15.3919 127.062 13.293 129.812 11.7773C132.573 10.2669 135.172 9.22526 137.604 8.65234C140.031 8.06901 142.297 7.77734 144.396 7.77734C144.781 7.77734 145.484 7.83464 146.5 7.94401C147.526 8.04297 148.672 8.3138 149.938 8.75651C151.198 9.20443 152.401 9.91276 153.542 10.8815C154.693 11.8555 155.589 13.2357 156.229 15.0273Z" fill="#184A3C"/>
<path d="M153.481 63.4647C153.773 63.6209 153.919 63.897 153.919 64.298C153.919 64.4959 153.898 64.6418 153.856 64.7355C150.716 70.3501 147.466 74.6001 144.106 77.4855C140.757 80.3605 137.221 81.798 133.502 81.798C131.804 81.798 130.424 81.5584 129.356 81.0688C128.284 80.5688 127.554 79.9438 127.169 79.1938C126.721 78.3501 126.502 77.3813 126.502 76.298C126.502 74.3553 127.211 72.0584 128.627 69.4022C130.044 66.7355 132.112 63.6209 134.836 60.048C135.388 59.298 136.086 58.3918 136.919 57.3188C137.763 56.2511 138.627 55.1209 139.502 53.923C140.377 52.7303 141.096 51.5793 141.669 50.4647C142.237 49.3397 142.523 48.4126 142.523 47.673C142.523 47.3293 142.398 46.9803 142.148 46.6313C141.992 46.423 141.804 46.298 141.586 46.2563C141.362 46.2043 141.127 46.173 140.877 46.173C140.778 46.173 140.669 46.1886 140.544 46.2147C140.419 46.2459 140.304 46.2563 140.211 46.2563C139.263 46.397 138.294 46.7147 137.294 47.2147C136.304 47.7147 135.294 48.3397 134.252 49.0897C131.419 51.173 128.856 53.522 126.565 56.1313C124.284 58.7459 122.362 61.2459 120.794 63.6313C119.221 66.0063 118.044 67.8918 117.252 69.2772C117.252 69.2772 117.2 69.3553 117.106 69.5063C117.007 69.6626 116.757 70.1001 116.356 70.8188C115.95 71.5428 115.294 72.7251 114.377 74.3605C113.461 76.0011 112.153 78.3084 110.461 81.2772H104.356L135.586 25.4438H141.711L125.231 54.9022C126.867 53.0168 128.606 51.2251 130.44 49.5272C132.284 47.8345 134.159 46.4647 136.065 45.423C137.981 44.3813 139.862 43.8605 141.711 43.8605C142.544 43.8605 143.336 43.9647 144.086 44.173C144.836 44.3709 145.403 44.8136 145.794 45.5063C146.252 46.147 146.481 47.0168 146.481 48.1105C146.481 49.4022 146.054 51.1053 145.211 53.2147C144.362 55.3293 142.841 57.9543 140.648 61.0897C139.257 63.173 137.763 65.3345 136.169 67.5688C134.586 69.8084 133.346 71.8397 132.461 73.673C132.153 74.272 131.94 74.8345 131.815 75.3605C131.7 75.8761 131.648 76.3345 131.648 76.7355C131.648 77.6834 131.94 78.3813 132.523 78.8397C133.117 79.2876 133.888 79.5063 134.836 79.5063C135.836 79.5063 136.966 79.272 138.231 78.798C139.492 78.3293 140.721 77.6209 141.919 76.673C143.669 75.3293 145.398 73.6001 147.106 71.4855C148.815 69.3761 150.513 66.8293 152.211 63.8397C152.362 63.4959 152.612 63.3188 152.961 63.3188C153.112 63.3188 153.284 63.3709 153.481 63.4647Z" fill="#184A3C"/>
<path d="M193.501 63.5479C193.803 63.7041 193.959 63.9749 193.959 64.3604C193.959 64.5583 193.928 64.7093 193.876 64.8187C192.334 67.5426 190.678 70.2249 188.917 72.8604C187.152 75.501 185.23 77.6676 183.147 79.3604C181.063 81.0426 178.777 81.8812 176.292 81.8812C173.845 81.8812 171.902 81.277 170.459 80.0687C169.027 78.8499 168.313 77.0895 168.313 74.7979C168.313 74.6051 168.313 74.3968 168.313 74.1729C168.313 73.9541 168.339 73.7354 168.397 73.527C166.506 76.1104 164.563 78.1416 162.563 79.6104C160.574 81.0687 158.636 81.8291 156.751 81.8812H156.459C154.667 81.8812 153.235 81.4749 152.167 80.652C151.095 79.8343 150.339 78.8083 149.897 77.5687C149.449 76.3187 149.23 75.0218 149.23 73.6729C149.23 73.3812 149.23 73.1051 149.23 72.8395C149.23 72.5635 149.256 72.2979 149.313 72.0479C149.605 69.9124 150.194 67.626 151.084 65.1937C151.985 62.751 153.157 60.3604 154.605 58.027C156.839 54.402 159.001 51.5635 161.084 49.5062C163.167 47.4385 165.136 45.9801 167.001 45.1312C168.876 44.2874 170.574 43.8604 172.105 43.8604C172.756 43.8604 173.355 43.9229 173.897 44.0479C174.449 44.1729 174.97 44.3343 175.459 44.527C176.511 44.9333 177.277 45.5895 177.751 46.5062C178.22 47.4229 178.459 48.527 178.459 49.8187C178.459 50.277 178.428 50.7458 178.376 51.2145C178.319 51.6885 178.24 52.1937 178.147 52.7354L182.772 44.4645H188.959L178.292 63.4645C176.709 66.2979 175.553 68.6104 174.834 70.402C174.11 72.1937 173.626 73.7354 173.376 75.027C173.376 75.126 173.36 75.2354 173.334 75.3604C173.319 75.4854 173.313 75.626 173.313 75.777C173.313 76.4749 173.506 77.2145 173.897 78.0062C174.298 78.7979 175.048 79.3187 176.147 79.5687C176.282 79.626 176.428 79.652 176.584 79.652C176.735 79.652 176.886 79.652 177.042 79.652C177.876 79.652 178.824 79.402 179.897 78.902C180.964 78.402 182.126 77.5583 183.376 76.3604C184.917 74.876 186.417 73.0426 187.876 70.8604C189.345 68.6676 190.777 66.3551 192.167 63.9229C192.36 63.5791 192.631 63.402 192.98 63.402C193.131 63.402 193.303 63.4541 193.501 63.5479ZM161.834 77.6312C164.709 75.4958 167.563 71.9385 170.397 66.9645C170.839 66.1312 171.407 65.0374 172.105 63.6729C172.813 62.2979 173.485 60.8083 174.126 59.1937C174.777 57.5687 175.324 55.9645 175.772 54.3812C176.214 52.7874 176.438 51.3708 176.438 50.1312C176.438 49.2874 176.313 48.5479 176.063 47.9229C175.813 47.2979 175.417 46.8135 174.876 46.4645C174.47 46.2301 174.022 46.1104 173.522 46.1104C172.339 46.1104 171.001 46.7249 169.501 47.9437C168.011 49.152 166.485 50.7458 164.917 52.7145C163.345 54.6729 161.897 56.7718 160.563 59.0062C159.214 61.2874 158.053 63.5583 157.084 65.8187C156.126 68.0843 155.49 70.2301 155.188 72.2562C155.048 73.0635 154.98 73.8343 154.98 74.5687C154.98 76.1104 155.272 77.2562 155.855 78.0062C156.449 78.7562 157.22 79.1312 158.167 79.1312C159.209 79.1312 160.428 78.6312 161.834 77.6312Z" fill="#184A3C"/>
<path d="M218.413 44.4647C219.048 44.4647 219.371 44.7876 219.371 45.423C219.371 46.0793 219.048 46.4022 218.413 46.4022H208.642L199.246 63.4647C197.855 66.048 196.725 68.298 195.85 70.2147C194.986 72.1313 194.434 73.7355 194.184 75.0272C194.184 75.1261 194.168 75.2355 194.142 75.3605C194.111 75.4855 194.1 75.6261 194.1 75.7772C194.1 76.4751 194.293 77.2303 194.684 78.048C195.085 78.8709 195.835 79.3761 196.934 79.5688C197.085 79.6261 197.335 79.6522 197.684 79.6522C198.527 79.6522 199.506 79.4178 200.621 78.9438C201.746 78.4751 202.923 77.6105 204.163 76.3605C205.756 74.8761 207.288 73.0428 208.746 70.8605C210.215 68.6678 211.647 66.3293 213.038 63.8397C213.189 63.548 213.46 63.4022 213.85 63.4022C214.059 63.4022 214.21 63.423 214.309 63.4647C214.6 63.673 214.746 63.9751 214.746 64.3605C214.746 64.5584 214.725 64.7095 214.684 64.8188C213.142 67.5428 211.486 70.2251 209.725 72.8605C207.96 75.5011 206.059 77.6834 204.017 79.4022C201.975 81.1105 199.736 81.9647 197.309 81.9647C194.876 81.9647 192.923 81.3501 191.454 80.1105C189.996 78.8605 189.267 77.0428 189.267 74.6522C189.267 73.2668 189.538 71.673 190.079 69.8813C190.621 68.0897 191.486 66.1261 192.684 63.9855L202.517 46.4022H196.413C195.772 46.4022 195.454 46.0793 195.454 45.423C195.454 44.7876 195.772 44.4647 196.413 44.4647H203.579L214.163 25.4438H220.35L209.767 44.4647H218.413Z" fill="#184A3C"/>
<path d="M265.745 63.4648C266.036 63.6732 266.182 63.9544 266.182 64.2982C266.182 64.4961 266.161 64.6419 266.12 64.7357C264.078 68.3607 261.859 71.4596 259.474 74.0273C257.083 76.5846 254.286 78.5378 251.078 79.8815C247.88 81.2148 244.068 81.8815 239.641 81.8815C237.109 81.8815 235.172 81.1419 233.828 79.6523C233.479 79.194 233.182 78.7461 232.932 78.2982C232.734 77.8555 232.641 77.3607 232.641 76.819C232.641 76.1263 232.771 75.5065 233.036 74.9648C233.312 74.4128 233.479 74.0846 233.536 73.9857C234.036 73.293 234.604 72.7721 235.245 72.4232C235.896 72.0794 236.521 71.9023 237.12 71.9023C237.464 71.9023 237.708 71.9232 237.849 71.9648C238.792 72.3138 239.266 73.0586 239.266 74.194C239.266 74.5586 239.214 74.9232 239.12 75.2982C239.021 75.6628 238.849 76.043 238.599 76.444C238.307 76.9857 237.943 77.4857 237.516 77.944C237.099 78.3919 236.641 78.7096 236.141 78.9023C236.891 79.4023 237.859 79.6523 239.057 79.6523H239.724C241.016 79.5586 242.255 78.8607 243.453 77.569C244.646 76.2669 245.672 74.4961 246.536 72.2565C247.411 70.0221 247.974 67.418 248.224 64.444C248.568 60.569 249.214 57.1523 250.161 54.194C251.104 51.2357 252.417 48.9388 254.099 47.2982C251.224 48.0378 248.797 49.2148 246.828 50.8398C244.87 52.4544 243.167 54.3398 241.724 56.5065C240.292 58.6628 238.901 60.9596 237.557 63.4023L236.745 64.819C236.589 65.168 236.312 65.3398 235.911 65.3398C235.812 65.3398 235.667 65.293 235.474 65.194C235.167 65.043 235.016 64.7669 235.016 64.3607C235.016 64.168 235.042 64.0221 235.099 63.9232L235.911 62.4232C237.203 60.1471 238.542 57.9388 239.932 55.7982C241.333 53.6628 242.979 51.7357 244.87 50.0273C246.755 48.3086 249.062 46.9544 251.786 45.9648C254.521 44.9648 257.828 44.4648 261.703 44.4648C262.354 44.4648 262.682 44.7878 262.682 45.4232C262.682 46.0794 262.354 46.4023 261.703 46.4023C261.703 46.4023 261.688 46.4023 261.661 46.4023C261.646 46.4023 261.562 46.4023 261.411 46.4023C259.87 46.4023 258.625 46.9232 257.682 47.9648C256.734 49.0065 256.026 50.4023 255.557 52.1523C255.083 53.8919 254.724 55.8398 254.474 58.0065C254.224 60.1628 254.026 62.3555 253.891 64.5898C253.641 67.9648 253 70.8607 251.974 73.2773C250.958 75.6836 249.63 77.5794 247.995 78.9648C250.828 78.1732 253.224 77.0378 255.182 75.5482C257.151 74.0638 258.854 72.3138 260.286 70.2982C261.729 68.2878 263.099 66.1315 264.391 63.8398C264.641 63.5482 264.938 63.4023 265.286 63.4023C265.479 63.4023 265.63 63.4232 265.745 63.4648Z" fill="#184A3C"/>
<path d="M326.19 52.7355C326.534 52.8918 326.711 53.1626 326.711 53.548C326.711 53.7563 326.68 53.9126 326.628 54.0063C325.487 56.147 324.071 57.8761 322.378 59.1938C320.696 60.5011 318.883 61.4543 316.94 62.048C315.008 62.647 313.097 62.9438 311.211 62.9438H310.315C309.909 63.8918 309.461 64.8345 308.961 65.7772C308.472 66.7251 307.93 67.6938 307.336 68.6938C304.888 72.6678 302.138 75.8345 299.086 78.1938C296.029 80.5584 293.086 81.7876 290.253 81.8813H289.586C287.503 81.8813 285.847 81.4126 284.628 80.4647C283.42 79.522 282.565 78.3345 282.065 76.9022C281.565 75.4595 281.315 74.0376 281.315 72.6313C281.315 72.3813 281.315 72.147 281.315 71.923C281.315 71.7043 281.341 71.4959 281.399 71.298C281.633 69.1053 282.175 66.7772 283.024 64.3188C283.868 61.8605 285.034 59.4647 286.524 57.1313C289.659 52.2563 292.805 48.8397 295.961 46.8813C299.112 44.923 302.055 43.9438 304.795 43.9438H305.607C305.909 43.9438 306.446 44.022 307.211 44.173C307.987 44.3136 308.805 44.647 309.67 45.173C310.545 45.6886 311.279 46.4803 311.878 47.548C312.472 48.6209 312.774 50.1001 312.774 51.9855C312.774 52.2928 312.758 52.6053 312.732 52.923C312.701 53.2459 312.67 53.6261 312.628 54.0688C312.529 55.1678 312.357 56.298 312.107 57.4647C311.857 58.6313 311.555 59.8397 311.211 61.0897C313.696 61.0897 316.232 60.4751 318.815 59.2355C321.399 57.9855 323.43 55.9438 324.92 53.1105C325.071 52.8084 325.341 52.6522 325.732 52.6522C325.94 52.6522 326.091 52.6834 326.19 52.7355ZM310.607 54.5272C310.659 54.1834 310.696 53.8188 310.711 53.4438C310.737 53.0688 310.753 52.7095 310.753 52.3605C310.753 51.8605 310.722 51.3553 310.67 50.8397C310.628 50.3136 310.508 49.798 310.315 49.298C309.909 48.1626 309.284 47.4334 308.44 47.1105C307.607 46.7928 306.862 46.6313 306.211 46.6313C306.055 46.6313 305.92 46.647 305.795 46.673C305.67 46.6886 305.555 46.6938 305.461 46.6938C303.92 46.9438 302.821 47.6053 302.17 48.673C301.529 49.7459 301.159 50.8501 301.065 51.9855V52.5897C301.065 54.272 301.659 55.9438 302.857 57.6105C304.05 59.2772 305.862 60.3345 308.295 60.7772L309.045 60.9438C309.836 58.7095 310.357 56.5688 310.607 54.5272ZM305.774 67.7147C306.258 66.8709 306.711 66.0272 307.128 65.1938C307.555 64.3501 307.946 63.522 308.295 62.7147C308.253 62.7147 308.201 62.7095 308.149 62.6938C308.107 62.6678 308.029 62.6522 307.92 62.6522C305.045 62.1105 302.868 60.8345 301.399 58.8188C299.94 56.8084 299.211 54.7303 299.211 52.5897V51.8397C299.253 51.4386 299.295 51.0793 299.336 50.7563C299.388 50.4386 299.472 50.1261 299.586 49.8188C296.946 51.9595 294.586 54.772 292.503 58.2563C291.154 60.4959 289.966 62.7563 288.94 65.048C287.925 67.3293 287.321 69.4855 287.128 71.5272C287.086 71.8188 287.065 72.1053 287.065 72.3813C287.065 72.647 287.065 72.9022 287.065 73.1522C287.065 74.6938 287.336 76.0011 287.878 77.0688C288.42 78.1418 289.315 78.798 290.565 79.048C290.758 79.1053 291.029 79.1313 291.378 79.1313C292.67 79.1313 294.154 78.647 295.836 77.673C297.529 76.7043 299.258 75.3605 301.024 73.6522C302.784 71.9334 304.368 69.9543 305.774 67.7147Z" fill="#184A3C"/>
<path d="M363.462 63.4645C363.754 63.6208 363.899 63.8968 363.899 64.2979C363.899 64.4958 363.879 64.6416 363.837 64.7354C360.655 70.3499 357.399 74.6104 354.066 77.527C350.733 80.4333 347.201 81.8812 343.483 81.8812C341.785 81.8812 340.405 81.6312 339.337 81.1312C338.264 80.6312 337.535 79.9854 337.149 79.1937C336.701 78.3499 336.483 77.402 336.483 76.3604C336.483 74.4749 337.191 72.1729 338.608 69.4645C340.024 66.7562 342.092 63.6208 344.816 60.0479L345.649 59.0062C346.493 57.9124 347.441 56.652 348.483 55.2354C349.524 53.8187 350.41 52.4333 351.149 51.0687C351.899 49.6937 352.274 48.5374 352.274 47.5895C352.274 46.6468 351.8 46.1729 350.858 46.1729C350.759 46.1729 350.649 46.1885 350.524 46.2145C350.399 46.2458 350.285 46.2562 350.191 46.2562C349.243 46.3968 348.274 46.7145 347.274 47.2145C346.285 47.7145 345.274 48.3395 344.233 49.0895C341.399 51.1729 338.837 53.5218 336.545 56.1312C334.264 58.7458 332.342 61.2458 330.774 63.6312C329.201 66.0062 328.024 67.8916 327.233 69.277C327.233 69.277 327.181 69.3708 327.087 69.5479C326.988 69.7145 326.738 70.1624 326.337 70.8812C325.931 71.6051 325.274 72.777 324.358 74.402C323.441 76.0166 322.134 78.3083 320.441 81.277H314.337L334.92 44.4645H341.108L335.274 54.902C336.91 53.0166 338.649 51.2249 340.483 49.527C342.326 47.8343 344.212 46.4645 346.129 45.4229C348.045 44.3812 349.92 43.8604 351.754 43.8604C352.545 43.8604 353.316 43.9645 354.066 44.1729C354.816 44.3708 355.384 44.8135 355.774 45.5062C356.024 45.8551 356.212 46.2458 356.337 46.6729C356.462 47.0895 356.524 47.5999 356.524 48.1937C356.524 49.4854 356.097 51.1885 355.254 53.2979C354.405 55.4124 352.889 58.0062 350.712 61.0895C349.264 63.1729 347.743 65.3499 346.149 67.6104C344.566 69.876 343.347 71.8968 342.504 73.6729C341.92 74.9229 341.629 75.9749 341.629 76.8187C341.629 77.7666 341.92 78.4541 342.504 78.8812C343.097 79.2979 343.868 79.5062 344.816 79.5062C345.816 79.5062 346.931 79.2718 348.17 78.7979C349.42 78.3291 350.66 77.6208 351.899 76.6729C353.649 75.3291 355.379 73.5999 357.087 71.4854C358.795 69.376 360.467 66.8291 362.108 63.8395C362.316 63.4958 362.592 63.3187 362.941 63.3187C363.092 63.3187 363.264 63.3708 363.462 63.4645Z" fill="#184A3C"/>
<path d="M425.572 62.4984H405.009L398.884 80.9359H385.864L407.926 19.79H423.259L444.884 80.9359H431.593L425.572 62.4984ZM415.364 30.2484L408.114 52.8317H422.468L415.364 30.2484Z" fill="#184A3C"/>
<path d="M510.554 19.79V80.9359H498.325V52.665C498.325 42.9723 498.377 35.9984 498.491 31.7484C496.835 38.8473 494.95 45.79 492.825 52.5817L484.22 80.9359H470.929L462.158 52.4775C459.908 44.9775 458.075 38.0973 456.658 31.8317C456.783 36.0973 456.845 43.04 456.845 52.665V80.9359H444.616V19.79H463.929L477.762 69.6859L491.575 19.79H510.554Z" fill="#184A3C"/>
<path d="M536.681 18.54C543.649 18.54 548.977 20.2848 552.66 23.7692C556.352 27.2588 558.561 31.9255 559.285 37.7692H546.785C546.42 34.5921 545.352 32.113 543.576 30.3317C541.811 28.5557 539.368 27.665 536.243 27.665C533.701 27.665 531.628 28.29 530.035 29.54C528.436 30.7796 527.639 32.5765 527.639 34.9359C527.639 37.5348 528.597 39.5765 530.514 41.0609C532.431 42.5348 535.811 43.8317 540.66 44.9567C547.337 46.488 552.253 48.8213 555.41 51.9567C558.576 55.0817 560.16 59.1338 560.16 64.1025C560.16 69.6598 557.972 74.0609 553.597 77.3109C549.222 80.5609 543.873 82.1859 537.556 82.1859C530.108 82.1859 524.17 80.5505 519.743 77.2692C515.311 73.9775 512.806 69.1755 512.222 62.8525H524.701C525.352 66.1025 526.832 68.6182 529.139 70.3942C531.441 72.1598 534.191 73.04 537.389 73.04C540.222 73.04 542.597 72.3317 544.514 70.915C546.441 69.4984 547.41 67.639 547.41 65.3317C547.41 62.738 546.477 60.639 544.618 59.04C542.753 57.4463 539.602 56.1182 535.16 55.0609C528.311 53.4098 523.201 51.2067 519.826 48.4567C516.462 45.7067 514.785 41.7015 514.785 36.4359C514.785 31.0088 516.91 26.665 521.16 23.415C525.42 20.165 530.597 18.54 536.681 18.54Z" fill="#184A3C"/>
<path d="M595.7 62.4984H575.137L569.012 80.9359H555.991L578.054 19.79H593.387L615.012 80.9359H601.72L595.7 62.4984ZM585.491 30.2484L578.241 52.8317H592.595L585.491 30.2484Z" fill="#184A3C"/>
<path d="M630.244 59.3107H609.682V52.394H630.244V59.3107Z" fill="#184A3C"/>
<path d="M682.888 19.79V56.04C682.888 58.9307 682.825 61.3213 682.7 63.2067C682.294 68.764 680.039 73.3213 675.929 76.8734C671.815 80.415 665.747 82.1859 657.721 82.1859C649.622 82.1859 643.518 80.415 639.409 76.8734C635.31 73.3213 633.054 68.764 632.638 63.2067C632.513 61.3213 632.45 58.9307 632.45 56.04V19.79H644.596V57.2692C644.596 59.3421 644.659 60.8213 644.784 61.7067C645.075 65.3057 646.294 68.0973 648.45 70.0817C650.601 72.0557 653.69 73.04 657.721 73.04C661.679 73.04 664.731 72.0557 666.888 70.0817C669.039 68.0973 670.268 65.3057 670.575 61.7067C670.685 60.8213 670.742 59.3421 670.742 57.2692V19.79H682.888Z" fill="#184A3C"/>
<path d="M699.986 80.9359H687.756V19.79H699.986V80.9359Z" fill="#184A3C"/>
<path d="M738.592 80.5581C737.269 82.8914 735.592 84.0581 733.55 84.0581C732.811 84.0581 732.155 83.9123 731.571 83.6206C730.113 82.9696 729.384 81.6519 729.384 79.6623C729.384 78.4279 729.707 77.2248 730.363 76.0581C731.613 73.6414 733.368 72.4331 735.634 72.4331C736.144 72.4331 736.728 72.5477 737.384 72.7664C738.91 73.3498 739.675 74.631 739.675 76.5998C739.675 77.9227 739.311 79.2404 738.592 80.5581ZM766.321 0.183105C770.571 0.183105 773.884 0.865397 776.259 2.22477C778.634 3.57373 780.311 5.30811 781.3 7.43311C782.285 9.54769 782.78 11.8029 782.78 14.2039C782.78 16.4852 782.467 18.7196 781.842 20.9123C781.217 23.0946 780.467 25.0269 779.592 26.7039C777.394 31.0946 775.035 34.5321 772.509 37.0164C769.993 39.506 767.436 41.5529 764.842 43.1623C762.243 44.7769 759.644 46.3862 757.05 47.9956C754.467 49.5946 751.988 51.5998 749.613 54.0164C747.238 56.4331 745.019 59.7612 742.967 63.9956C742.451 64.7352 741.905 65.0998 741.321 65.0998C741.181 65.0998 740.967 65.0269 740.675 64.8706C740.16 64.6519 739.905 64.2144 739.905 63.5581C739.905 63.2664 739.972 62.9019 740.113 62.4539L743.842 55.1206C745.675 51.9696 747.41 49.5529 749.05 47.8706C750.701 46.1935 752.347 44.8237 753.988 43.7664C755.639 42.7144 757.342 41.5477 759.092 40.2664C760.842 38.9748 762.665 37.2404 764.571 35.0581C766.472 32.8654 768.519 29.756 770.717 25.7248C771.519 24.2664 772.326 22.3706 773.134 20.0373C773.936 17.6935 774.342 15.3862 774.342 13.1206C774.342 10.7769 773.717 8.65706 772.467 6.76644C771.228 4.8654 768.889 3.72477 765.446 3.34977C762.155 3.34977 759.321 4.12061 756.946 5.66227C754.571 7.19352 752.556 9.01644 750.905 11.1414C749.264 13.2664 748.009 15.3029 747.134 17.2456C746.259 19.1779 745.707 20.5789 745.488 21.4539L746.05 21.6623C747.509 22.3289 748.238 23.6831 748.238 25.7248C748.238 26.8914 747.978 27.9904 747.467 29.0164C746.951 30.1831 746.201 31.1154 745.217 31.8081C744.228 32.506 743.264 32.8498 742.321 32.8498C741.806 32.8498 741.326 32.7404 740.884 32.5164C740.16 32.1571 739.613 31.6154 739.238 30.8914C738.873 30.1571 738.696 29.3498 738.696 28.4748C738.696 28.256 738.696 28.0321 738.696 27.8081C738.696 27.5894 738.728 27.3706 738.8 27.1623C740.342 21.1623 742.368 16.3706 744.884 12.7873C747.41 9.20394 750.061 6.50602 752.842 4.68311C755.618 2.84977 758.228 1.64144 760.675 1.05811C763.134 0.474772 765.014 0.183105 766.321 0.183105Z" fill="#184A3C"/>
</svg>
