<svg width="275" height="62" viewBox="0 0 275 62" fill="none" xmlns="http://www.w3.org/2000/svg">
<path d="M41.9262 1.93047C43.3438 2.09415 44.5217 2.52672 45.457 3.22819C46.3922 3.92382 47.1229 4.78896 47.6549 5.82363C48.1839 6.85246 48.558 7.95143 48.7772 9.12054C49.0023 10.2897 49.1163 11.4471 49.1163 12.5928C49.1163 13.2329 49.0871 13.8525 49.0345 14.4517C48.9789 15.0538 48.9088 15.6179 48.824 16.1469C48.4879 18.2134 47.9501 20.3762 47.2106 22.6355C46.477 24.8978 45.5739 27.1483 44.4983 29.393C43.4227 31.6377 42.2127 33.7889 40.874 35.8466C39.9855 37.2203 38.9157 38.6641 37.6706 40.184C36.4314 41.7038 35.0313 43.2003 33.4735 44.6734C31.9127 46.1523 30.2117 47.5144 28.3645 48.7536C26.5231 49.9987 24.5531 51.0334 22.4487 51.8518C20.3443 52.676 18.1171 53.1875 15.7731 53.3833C15.4983 53.4067 15.2294 53.4242 14.9664 53.4418C14.7004 53.4564 14.4286 53.4652 14.148 53.4652C11.4649 53.4652 9.21432 52.9098 7.39049 51.805C5.56667 50.706 4.18711 49.157 3.25182 47.1636C2.31652 45.1674 1.84888 42.8496 1.84888 40.2074C1.84888 38.9535 1.9541 37.6295 2.16454 36.2324C2.37498 34.8382 2.70233 33.3885 3.1466 31.8833C3.87145 29.3989 5.18086 26.7333 7.07483 23.8865C8.97465 21.0426 11.611 18.0584 14.9781 14.9311C15.3113 14.6037 15.6211 14.44 15.9017 14.44C16.042 14.44 16.1267 14.4517 16.1589 14.4751C16.2992 14.6154 16.3693 14.7557 16.3693 14.896C16.3693 15.0597 16.2553 15.2818 16.0303 15.5624C16.0303 15.5624 15.7994 15.8167 15.3405 16.3223C14.8787 16.8221 14.2883 17.5207 13.5634 18.415C12.8386 19.3036 12.0611 20.3411 11.2369 21.5249C10.4185 22.7115 9.65858 24.0005 8.95711 25.3947C7.67693 27.9375 6.69487 30.4979 6.01093 33.0758C5.32408 35.6566 4.98211 38.062 4.98211 40.2892C4.98211 42.4872 5.33577 44.4513 6.04601 46.1816C6.76209 47.9119 7.87275 49.2826 9.37799 50.2969C10.8803 51.3169 12.8503 51.843 15.282 51.8752C16.4745 51.8752 17.5998 51.7261 18.6608 51.4309C19.7188 51.1415 20.7243 50.7703 21.6771 50.3202C23.6237 49.4317 25.5264 48.2188 27.3824 46.6843C29.2355 45.1469 31.0067 43.3991 32.6902 41.4349C34.3796 39.4708 35.9403 37.3869 37.3667 35.1802C39.4243 32.0323 41.1926 28.8494 42.6745 25.6285C44.1534 22.4017 45.1705 19.3562 45.7259 16.486C45.8661 15.7319 46.024 14.7966 46.2052 13.6801C46.3922 12.5665 46.4858 11.4237 46.4858 10.2546C46.4858 9.19654 46.3718 8.1794 46.1467 7.20319C45.9188 6.22113 45.5154 5.41152 44.9309 4.77143C44.4866 4.29793 43.8845 3.91505 43.1304 3.62569C42.3822 3.33049 41.5316 3.18143 40.5817 3.18143C39.9416 3.18143 39.2606 3.26911 38.5358 3.43863C36.9136 3.79814 35.2096 4.49668 33.4267 5.53135C31.6409 6.56018 29.9106 7.8579 28.2359 9.42451C26.5669 10.9853 25.0559 12.7682 23.6997 14.7791C22.3493 16.7841 21.2971 18.9704 20.5431 21.3378C19.8182 23.5679 19.4558 25.5057 19.4558 27.1483C19.4558 28.4344 19.6779 29.5275 20.1222 30.4219C20.5723 31.3104 21.2591 31.9505 22.1798 32.3392C22.9573 32.6432 23.7114 32.7952 24.4362 32.7952C26.5231 32.7952 28.5457 31.5676 30.5039 29.1124C31.3691 27.9989 32.0939 26.8999 32.6785 25.8155C33.3157 24.5295 33.7424 23.2961 33.9528 22.1094C34.1633 20.9257 34.2685 19.8881 34.2685 18.9996C34.2685 18.3536 34.2393 17.8012 34.1867 17.3394C34.1311 16.8806 34.0873 16.5532 34.0581 16.3574C34.0581 16.3048 34.0493 16.2405 34.0347 16.1703C34.0171 16.1002 34.0113 16.0388 34.0113 15.9833C34.0113 15.2818 34.3328 14.8668 34.9817 14.7323C35.2301 14.7323 35.4522 14.8492 35.6481 15.083C35.841 15.3169 35.955 15.7144 35.9871 16.2755C35.9871 16.4158 35.99 16.5737 35.9988 16.7432C36.0134 16.9069 36.0222 17.0588 36.0222 17.1991C36.0222 18.7599 35.8731 20.1453 35.5779 21.3612C35.2886 22.5712 34.9963 23.5182 34.7011 24.2022C34.4117 24.889 34.2685 25.231 34.2685 25.231C33.9324 25.9558 33.5349 26.7099 33.076 27.4874C32.6142 28.2678 32.0647 29.0628 31.4275 29.8724C30.311 31.2373 29.0689 32.3041 27.6981 33.0758C26.3331 33.8415 24.9974 34.2215 23.688 34.2215C22.0658 34.2215 20.736 33.8474 19.7013 33.0991C18.6725 32.3451 17.9125 31.3396 17.4215 30.0828C16.9363 28.8289 16.6967 27.4757 16.6967 26.026C16.6967 24.3512 16.9773 22.6765 17.5384 20.9988C18.2633 18.7716 19.2863 16.6204 20.6132 14.5452C21.9372 12.4642 23.4775 10.5673 25.2312 8.85165C26.9907 7.13889 28.8906 5.69503 30.9248 4.52591C32.9591 3.35095 35.0635 2.56764 37.2381 2.17599C38.4364 1.9597 39.5529 1.84863 40.5817 1.84863C40.8302 1.84863 41.0669 1.8574 41.2949 1.87202C41.52 1.88078 41.7304 1.90124 41.9262 1.93047Z" fill="#184A3C" fill-opacity="0.4"/>
<path d="M70.9923 32.5029C71.1852 32.6198 71.2846 32.7777 71.2846 32.9706C71.2846 33.0495 71.2553 33.1459 71.2027 33.2629C70.3376 34.7915 69.4081 36.2967 68.4202 37.7756C67.4294 39.2575 66.3626 40.4734 65.2168 41.4233C64.077 42.3674 62.8231 42.8379 61.4523 42.8379C60.0873 42.8379 58.9854 42.493 58.1437 41.7974C57.3078 41.0959 56.8927 40.0642 56.8927 38.6992C56.8927 38.6145 56.8986 38.5239 56.9161 38.4304C56.9307 38.331 56.9395 38.2374 56.9395 38.1498C56.051 39.4913 55.0748 40.6108 54.0167 41.5051C52.9557 42.3937 51.7837 42.8379 50.4977 42.8379C49.1327 42.8379 48.0367 42.493 47.2124 41.7974C46.3941 41.0959 45.9849 40.0759 45.9849 38.7343C45.9849 37.9569 46.1368 37.0713 46.4408 36.0804C46.7448 35.0925 47.23 33.9965 47.9022 32.7952L54.0167 21.8406H57.4422L51.5031 32.5029C50.7227 33.9526 50.1031 35.2094 49.6442 36.2675C49.1824 37.3285 48.8843 38.2199 48.744 38.9448C48.744 39.0003 48.7352 39.0617 48.7206 39.1318C48.7031 39.202 48.6972 39.2809 48.6972 39.3656C48.6972 39.7573 48.8054 40.1899 49.0246 40.6634C49.2496 41.1398 49.6705 41.4321 50.2872 41.5402C50.372 41.5724 50.5123 41.587 50.7081 41.587C51.1816 41.587 51.7252 41.4554 52.3332 41.1895C52.947 40.9264 53.6192 40.4412 54.3441 39.7398C54.9052 39.1874 55.4079 38.5823 55.8522 37.9276C56.2965 37.2729 56.7407 36.5539 57.185 35.7648L58.5295 33.4265C58.5821 33.3184 58.6464 33.2161 58.7166 33.1226C58.7867 33.0232 58.8364 32.9121 58.8685 32.7952L65.0181 21.8406H68.4436L62.5045 32.5029C61.7241 33.9526 61.1045 35.2094 60.6456 36.2675C60.1838 37.3285 59.8857 38.2199 59.7454 38.9448C59.7132 39.0324 59.6986 39.1874 59.6986 39.4124C59.6986 39.8041 59.8038 40.2279 60.0143 40.6867C60.2247 41.1486 60.6368 41.4321 61.2535 41.5402C61.3295 41.5724 61.4815 41.587 61.7095 41.587C62.183 41.587 62.7266 41.4554 63.3346 41.1895C63.9484 40.9264 64.6089 40.4412 65.3104 39.7398C66.1989 38.9068 67.0524 37.8779 67.8707 36.6533C68.695 35.4228 69.4987 34.1105 70.2791 32.7134C70.4194 32.5497 70.5743 32.4679 70.7468 32.4679C70.8549 32.4679 70.9368 32.4795 70.9923 32.5029Z" fill="#184A3C" fill-opacity="0.4"/>
<path d="M88.6925 32.5031C88.8854 32.6434 88.9847 32.8129 88.9847 33.0058C88.9847 33.0614 88.9555 33.1461 88.9029 33.2631C87.1405 36.4138 85.3166 38.8047 83.4314 40.4414C81.5521 42.0724 79.5675 42.8849 77.4806 42.8849C76.5278 42.8849 75.7533 42.7388 75.1541 42.4406C74.552 42.1454 74.1428 41.7918 73.9265 41.3767C73.6693 40.8711 73.5407 40.3245 73.5407 39.74C73.5407 38.6585 73.9382 37.3637 74.7332 35.8585C75.5282 34.3474 76.6915 32.5908 78.2289 30.5858C78.9537 29.668 79.661 28.721 80.3567 27.7448C81.0581 26.7628 81.6602 25.731 82.1688 24.6467L82.3675 24.179H82.122C80.8652 24.179 79.8598 24.0007 79.1057 23.6412C78.3575 23.2759 77.7875 22.8988 77.3988 22.5072L71.4129 33.2163C71.3018 33.4121 71.1499 33.5086 70.957 33.5086C70.8693 33.5086 70.7728 33.4823 70.6647 33.4267C70.4922 33.342 70.4075 33.2017 70.4075 33.0058C70.4075 32.9211 70.4338 32.8246 70.4893 32.7136L76.6856 21.5836C76.4898 21.2504 76.3495 20.9026 76.2647 20.5431C76.1771 20.1777 76.1361 19.827 76.1361 19.4909C76.1361 18.9618 76.2209 18.4913 76.3934 18.0762C76.446 17.9681 76.5015 17.8629 76.557 17.7606C76.6096 17.6612 76.6652 17.556 76.7207 17.4449C77.0539 17.024 77.39 16.7171 77.7261 16.5213C78.147 16.2173 78.5708 16.0273 79.0005 15.9484C79.436 15.8637 79.8218 15.8198 80.1579 15.8198C80.4619 15.8198 80.6957 15.8374 80.8594 15.8666C81.0289 15.89 81.1166 15.9017 81.1166 15.9017C80.4443 17.1029 79.927 18.0295 79.5617 18.6842C79.2022 19.3389 78.9362 19.8065 78.7667 20.0871C78.603 20.3618 78.5036 20.5284 78.4744 20.5898C78.451 20.6454 78.4393 20.6717 78.4393 20.6717C78.3838 20.7827 78.299 20.9406 78.1821 21.151C78.071 21.3614 78.0067 21.4959 77.9834 21.5485C78.4276 22.1652 79.0852 22.6124 79.9592 22.893C80.8389 23.1677 81.8531 23.3022 82.9989 23.3022C83.5279 23.3022 84.0774 23.2759 84.6473 23.2203C85.2231 23.1677 85.8164 23.08 86.4244 22.9631C86.4244 22.9631 86.0795 23.6412 85.3956 24.9974C84.7175 26.3536 83.6243 28.1189 82.122 30.2935L81.4907 31.2054C80.8185 32.1582 80.1141 33.1695 79.3746 34.2451C78.641 35.3149 77.995 36.3115 77.4339 37.2381C77.2936 37.5128 77.1328 37.9132 76.9545 38.4422C76.7733 38.9742 76.6856 39.4915 76.6856 39.9972C76.6856 40.3567 76.7675 40.684 76.9311 40.9792C77.1007 41.2686 77.3666 41.444 77.7261 41.5053C77.8109 41.5287 77.8927 41.5404 77.9717 41.5404C78.0564 41.5404 78.1412 41.5404 78.2289 41.5404C79.4594 41.5404 80.7834 41.0114 82.2039 39.9504C83.1772 39.2022 84.1446 38.2376 85.1033 37.051C86.0678 35.8585 87.0265 34.4146 87.9793 32.7136C88.0641 32.5499 88.2161 32.4681 88.4353 32.4681C88.5522 32.4681 88.6369 32.4797 88.6925 32.5031Z" fill="#184A3C" fill-opacity="0.4"/>
<path d="M178.751 3.68434C178.859 3.84802 178.914 3.9737 178.914 4.05846C178.914 4.19875 178.859 4.32443 178.751 4.43258C178.64 4.54949 178.517 4.60794 178.377 4.60794C178.204 4.60794 178.078 4.54949 178.002 4.43258C178.002 4.35658 177.818 4.2309 177.453 4.05846C177.342 4.00585 177.126 3.92985 176.798 3.83633C176.477 3.73695 176.053 3.68434 175.524 3.68434C175.249 3.68434 174.945 3.70772 174.612 3.75449C174.276 3.79541 173.913 3.86848 173.525 3.97662C172.66 4.22798 171.584 4.70147 170.298 5.40294C169.018 6.09857 167.586 7.15077 165.996 8.55956C164.406 9.97127 162.693 11.8623 160.863 14.2298C159.039 16.6002 157.151 19.5814 155.205 23.1735C154.284 24.8512 153.375 26.7013 152.481 28.7268C151.592 30.7465 150.78 32.8421 150.049 35.0167C149.324 37.1912 148.745 39.3658 148.319 41.5404C147.889 43.7149 147.676 45.8076 147.676 47.8185C147.676 50.0457 148.015 52.0887 148.693 53.9447C149.377 55.7977 150.493 57.3176 152.036 58.5043C153.585 59.688 155.672 60.4333 158.291 60.7373C158.548 60.7665 158.8 60.784 159.051 60.784C159.3 60.784 159.548 60.784 159.799 60.784C161.249 60.784 162.611 60.6496 163.891 60.3865C165.177 60.1206 166.381 59.7786 167.504 59.3577C167.752 59.2788 167.995 59.1882 168.229 59.0888C168.468 58.9953 168.688 58.8901 168.883 58.7732C170.386 58.0483 171.645 57.2533 172.66 56.3881C173.68 55.523 174.44 54.7689 174.939 54.1318C175.445 53.4917 175.699 53.1731 175.699 53.1731C176.003 52.7522 176.366 52.5418 176.787 52.5418C176.979 52.5418 177.175 52.6119 177.371 52.7522C177.596 52.8925 177.71 53.1292 177.71 53.4654C177.71 53.6583 177.643 53.8892 177.511 54.1551C177.386 54.4182 177.172 54.6608 176.868 54.88C176.307 55.3535 175.691 55.8299 175.021 56.3063C174.358 56.7798 173.718 57.2211 173.104 57.6274C172.487 58.0308 171.984 58.3581 171.596 58.6095C171.204 58.8579 171.011 58.9836 171.011 58.9836C169.474 59.8487 167.752 60.5648 165.844 61.1348C163.932 61.7106 161.708 61.9999 159.168 61.9999H158.712C155.117 61.9122 152.247 61.2341 150.096 59.9656C147.95 58.6942 146.404 56.9786 145.454 54.8215C144.501 52.6616 144.028 50.2415 144.028 47.5613C144.028 44.9951 144.373 42.2944 145.068 39.4476C145.77 36.6038 146.711 33.7482 147.898 30.878C149.081 28.002 150.4 25.2546 151.849 22.6357C154 18.7309 156.181 15.5596 158.396 13.1191C160.618 10.6815 162.702 8.73493 164.651 7.28522C164.651 7.28522 164.713 7.23261 164.838 7.12155C164.961 7.00463 165.154 6.84973 165.411 6.6539C163.26 7.82302 161.027 9.3721 158.712 11.2953C156.397 13.2214 154.097 15.5918 151.814 18.4035L150.435 20.1689C150.403 20.1923 150.169 20.5196 149.733 21.151C149.304 21.7764 148.728 22.6182 148.003 23.6762C147.278 24.7372 146.474 25.9531 145.595 27.3239C144.721 28.6888 143.817 30.1239 142.882 31.6262C141.947 33.1315 141.061 34.6396 140.228 36.1507C139.083 38.185 137.972 40.1666 136.896 42.0898C135.821 44.0072 134.833 45.7083 133.938 47.1989C133.05 48.6954 132.272 49.7943 131.612 50.4958C131.416 50.7121 131.217 50.8933 131.016 51.0336C130.82 51.1739 130.612 51.244 130.396 51.244C130.285 51.244 130.118 51.2002 129.893 51.1154C129.557 50.981 129.391 50.677 129.391 50.2035C129.391 49.7826 129.569 49.3764 129.928 48.9876L130.525 48.2394C131.185 47.4269 131.992 46.36 132.945 45.036C133.895 43.7091 134.912 42.0489 135.996 40.0439C137.086 38.033 138.174 35.5866 139.258 32.7018C140.348 29.8112 141.339 26.3857 142.227 22.4253C142.678 20.4466 142.906 18.6198 142.906 16.9421C142.906 15.6649 142.792 14.5045 142.567 13.4582C142.339 12.406 142.046 11.4648 141.69 10.6289C141.602 11.0732 141.479 11.5613 141.316 12.0903C141.316 12.0903 141.131 12.6456 140.766 13.7504C140.407 14.8494 139.878 16.343 139.176 18.2282C138.48 20.1075 137.633 22.2265 136.627 24.5882C135.622 26.9439 134.465 29.3757 133.155 31.8835C131.79 34.473 130.262 37.0276 128.572 39.5529C126.889 42.0782 125.041 44.3638 123.031 46.4156C121.02 48.4645 118.848 50.1012 116.519 51.3259C114.195 52.5564 111.725 53.1731 109.106 53.1731H108.686C107.321 53.1175 106.268 52.8633 105.529 52.4132C104.786 51.9689 104.26 51.4545 103.951 50.8699C103.647 50.2854 103.465 49.7739 103.413 49.3384C103.357 48.9087 103.331 48.6954 103.331 48.6954C103.331 48.5551 103.413 48.4265 103.576 48.3096C103.746 48.1985 103.845 48.1459 103.869 48.1459C104.202 48.1459 104.371 48.3125 104.371 48.6486C104.371 48.6778 104.398 48.862 104.453 49.1981C104.515 49.5313 104.678 49.9142 104.944 50.3438C105.207 50.7793 105.625 51.1563 106.195 51.4779C106.762 51.7964 107.566 51.9572 108.604 51.9572H108.931C110.802 51.9017 112.585 51.4136 114.286 50.4958C115.992 49.5751 117.606 48.3242 119.126 46.7429C120.646 45.1675 122.095 43.3876 123.475 41.4001C124.854 39.4067 126.155 37.2935 127.38 35.0634C128.61 32.8275 129.782 30.5945 130.899 28.3644C133.018 24.0708 134.865 20.4466 136.44 17.4916C138.013 14.5308 139.147 12.4381 139.842 11.2135L140.977 9.24934C140.36 8.15914 139.702 7.30276 139.001 6.67728C138.305 6.04596 137.715 5.59585 137.224 5.3211C136.738 5.04052 136.499 4.90022 136.499 4.90022C135.47 4.33905 134.397 3.98831 133.284 3.84802C132.167 3.70772 131.121 3.62588 130.139 3.6025H129.601C127.643 3.6025 125.632 3.94739 123.568 4.63133C121.511 5.30941 119.476 6.26517 117.466 7.49566C115.461 8.72031 113.572 10.1349 111.795 11.7396C110.024 13.3383 108.443 15.0599 107.049 16.9071C106.376 17.7722 105.757 18.6198 105.19 19.444C104.62 20.2624 104.097 21.075 103.623 21.8758C102.086 24.5823 101.01 26.903 100.396 28.8437C99.7885 30.7845 99.4845 32.4271 99.4845 33.7657C99.4845 35.0225 99.6716 36.0309 100.046 36.7937C100.42 37.5595 100.852 38.1382 101.343 38.5357C101.834 38.9274 102.244 39.1612 102.571 39.2372C102.881 39.2927 103.173 39.3424 103.448 39.3892C103.728 39.4301 104.009 39.4476 104.29 39.4476C105.459 39.4476 106.616 39.1729 107.762 38.6176C108.908 38.0564 110.021 37.3169 111.106 36.3962C112.696 35.0576 114.099 33.4822 115.314 31.673C116.53 29.858 117.501 28.0721 118.226 26.3185C118.638 25.3685 118.95 24.4566 119.161 23.5827C119.371 22.703 119.512 21.9693 119.582 21.3848C119.652 20.7944 119.687 20.4962 119.687 20.4962C119.687 19.523 120.09 19.0349 120.903 19.0349C121.151 19.067 121.359 19.1722 121.522 19.3505C121.692 19.5317 121.78 19.8035 121.78 20.1689C121.78 20.3647 121.736 20.6132 121.651 20.9171C121.423 21.7823 121.128 22.665 120.762 23.5593C120.403 24.4479 120.041 25.2721 119.675 26.0262C119.316 26.7744 119.021 27.3765 118.787 27.8266C118.553 28.2709 118.436 28.493 118.436 28.493C117.647 30.0538 116.688 31.6087 115.56 33.1578C114.438 34.701 113.178 36.063 111.784 37.238C110.498 38.3224 109.177 39.1641 107.82 39.7633C106.47 40.3654 105.099 40.6635 103.705 40.6635H103.46C103.319 40.6635 103.161 40.6577 102.992 40.6401C102.828 40.6255 102.688 40.6168 102.571 40.6168C100.256 40.4239 98.6808 39.4476 97.8478 37.694C97.2632 36.5248 96.9709 35.1044 96.9709 33.4267V33.0876C96.9709 33.0876 97.0089 32.6083 97.0879 31.6496C97.1726 30.6851 97.4269 29.3669 97.8478 27.698C98.2687 26.0233 98.9643 24.1322 99.9405 22.0278C100.914 19.9234 102.267 17.7225 103.997 15.4223C105.728 13.1162 107.972 10.8627 110.731 8.66478C113.575 6.37331 116.56 4.67809 119.687 3.57912C122.811 2.48015 125.877 1.93066 128.888 1.93066H129.554C131.261 1.95405 132.769 2.15864 134.079 2.53861C135.388 2.91272 136.528 3.39206 137.504 3.97662L137.96 4.2689C138.434 4.60502 139.018 5.06098 139.714 5.63677C140.415 6.20671 141.105 6.95787 141.783 7.89316C142.467 8.82261 143.04 9.99757 143.502 11.4239C143.969 12.8444 144.203 14.5747 144.203 16.6148C144.203 18.5643 143.929 20.8294 143.385 23.4074C142.838 25.9882 141.868 28.9373 140.474 32.2576C140.45 32.281 140.439 32.3219 140.439 32.3745C140.439 32.5791 140.465 32.6784 140.521 32.6784C140.597 32.6784 140.673 32.6288 140.743 32.5265C140.813 32.4271 140.848 32.3745 140.848 32.3745C142.078 30.3402 143.245 28.4901 144.344 26.8212C145.443 25.1464 146.536 23.571 147.629 22.0979C148.719 20.619 149.833 19.1635 150.972 17.7371C153.007 15.2294 154.997 13.1162 156.947 11.4005C158.902 9.68776 160.729 8.28774 162.43 7.20338C164.137 6.11318 165.627 5.27434 166.908 4.68978C168.386 4.02046 169.889 3.51482 171.409 3.16993C172.929 2.81919 174.217 2.64383 175.278 2.64383C176.5 2.64383 177.377 2.80458 177.909 3.12316C178.438 3.44467 178.719 3.63173 178.751 3.68434Z" fill="#184A3C" fill-opacity="0.4"/>
<path d="M169.34 32.503C169.504 32.62 169.585 32.7895 169.585 33.0058C169.585 33.1168 169.574 33.2016 169.55 33.263C168.901 34.4029 168.218 35.5369 167.493 36.6651C166.768 37.7962 165.999 38.828 165.19 39.7633C164.386 40.6986 163.535 41.4468 162.641 42.008C161.752 42.5633 160.805 42.838 159.8 42.838C158.435 42.838 157.339 42.4932 156.515 41.7975C155.696 41.0961 155.287 40.076 155.287 38.7344C155.287 37.957 155.439 37.0714 155.743 36.0805C156.047 35.0926 156.532 33.9966 157.204 32.7953L163.319 21.8407H166.744L160.805 32.503C160.025 33.9528 159.405 35.2096 158.946 36.2676C158.485 37.3286 158.187 38.22 158.046 38.9449C158.046 39.0004 158.037 39.0618 158.023 39.1319C158.005 39.2021 157.999 39.281 157.999 39.3658C157.999 39.7574 158.108 40.1812 158.327 40.6401C158.552 41.1019 158.973 41.3883 159.589 41.5053C159.674 41.5286 159.815 41.5403 160.01 41.5403C160.484 41.5403 161.027 41.4088 161.635 41.1428C162.249 40.8798 162.921 40.4004 163.646 39.7048C164.511 38.863 165.353 37.8313 166.172 36.6067C166.996 35.3762 167.8 34.0784 168.58 32.7135C168.72 32.5498 168.887 32.468 169.083 32.468C169.2 32.468 169.284 32.4797 169.34 32.503ZM169.469 17.5734C169.188 18.1288 168.828 18.5876 168.393 18.953C167.963 19.3125 167.484 19.4908 166.955 19.4908C166.727 19.4908 166.505 19.4528 166.289 19.3739C165.616 19.0933 165.283 18.5759 165.283 17.8189C165.283 17.4068 165.423 16.9187 165.704 16.3575C166.031 15.7438 166.44 15.2703 166.932 14.9429C167.423 14.6097 167.89 14.4402 168.334 14.4402C168.56 14.4402 168.755 14.4811 168.919 14.5571C169.556 14.8085 169.878 15.3258 169.878 16.112C169.878 16.6118 169.74 17.0999 169.469 17.5734Z" fill="#184A3C" fill-opacity="0.4"/>
<path d="M185.656 32.5029C185.82 32.6198 185.901 32.7777 185.901 32.9706C185.901 33.0816 185.89 33.1635 185.866 33.2161C184.721 35.2504 183.475 36.9894 182.137 38.4304C180.795 39.8654 179.226 40.9615 177.425 41.7156C175.631 42.4638 173.491 42.8379 171.007 42.8379C169.586 42.8379 168.499 42.4229 167.745 41.587C167.549 41.3298 167.383 41.0784 167.242 40.827C167.131 40.5786 167.079 40.3009 167.079 39.997C167.079 39.6082 167.152 39.2604 167.301 38.9565C167.456 38.6466 167.549 38.4625 167.581 38.407C167.862 38.0182 168.181 37.726 168.54 37.5301C168.905 37.3372 169.256 37.2379 169.592 37.2379C169.785 37.2379 169.922 37.2495 170.001 37.2729C170.53 37.4688 170.796 37.8867 170.796 38.5239C170.796 38.7285 170.767 38.9331 170.715 39.1435C170.659 39.3481 170.563 39.5615 170.422 39.7865C170.259 40.0905 170.054 40.3711 169.814 40.6283C169.581 40.8797 169.323 41.0579 169.043 41.1661C169.464 41.4467 170.007 41.587 170.679 41.587H171.054C171.778 41.5344 172.474 41.1427 173.146 40.4179C173.816 39.6872 174.391 38.6934 174.877 37.4366C175.368 36.1827 175.683 34.7213 175.824 33.0524C176.017 30.8779 176.379 28.9605 176.911 27.3004C177.44 25.6402 178.176 24.3513 179.121 23.4306C177.507 23.8456 176.145 24.5062 175.04 25.4181C173.941 26.3241 172.986 27.3822 172.176 28.5981C171.372 29.8081 170.592 31.0971 169.838 32.4679L169.382 33.2629C169.294 33.4587 169.139 33.5551 168.914 33.5551C168.859 33.5551 168.777 33.5288 168.669 33.4733C168.496 33.3885 168.411 33.2336 168.411 33.0056C168.411 32.8975 168.426 32.8157 168.458 32.7601L168.914 31.9184C169.639 30.6411 170.39 29.4018 171.171 28.2006C171.957 27.0022 172.88 25.9208 173.941 24.9621C174.999 23.9976 176.294 23.2377 177.823 22.6823C179.357 22.1212 181.213 21.8406 183.388 21.8406C183.753 21.8406 183.937 22.0218 183.937 22.3784C183.937 22.7466 183.753 22.9279 183.388 22.9279C183.388 22.9279 183.379 22.9279 183.364 22.9279C183.356 22.9279 183.309 22.9279 183.224 22.9279C182.359 22.9279 181.66 23.2201 181.131 23.8047C180.599 24.3893 180.202 25.1726 179.939 26.1546C179.673 27.1308 179.471 28.224 179.331 29.4398C179.191 30.6499 179.08 31.8804 179.004 33.1342C178.863 35.0282 178.504 36.6533 177.928 38.0095C177.358 39.3598 176.613 40.4237 175.695 41.2012C177.285 40.7569 178.629 40.1197 179.728 39.2838C180.833 38.4508 181.789 37.4688 182.593 36.3376C183.402 35.2094 184.171 33.9994 184.896 32.7134C185.036 32.5497 185.203 32.4679 185.399 32.4679C185.507 32.4679 185.592 32.4795 185.656 32.5029Z" fill="#184A3C" fill-opacity="0.4"/>
<path d="M202.388 32.5029C202.551 32.6198 202.633 32.7777 202.633 32.9706C202.633 33.0816 202.622 33.1635 202.598 33.2161C201.453 35.2504 200.207 36.9894 198.869 38.4304C197.527 39.8654 195.958 40.9615 194.157 41.7156C192.363 42.4638 190.223 42.8379 187.739 42.8379C186.318 42.8379 185.231 42.4229 184.477 41.587C184.281 41.3298 184.115 41.0784 183.974 40.827C183.863 40.5786 183.811 40.3009 183.811 39.997C183.811 39.6082 183.884 39.2604 184.033 38.9565C184.188 38.6466 184.281 38.4625 184.313 38.407C184.594 38.0182 184.912 37.726 185.272 37.5301C185.637 37.3372 185.988 37.2379 186.324 37.2379C186.517 37.2379 186.654 37.2495 186.733 37.2729C187.262 37.4688 187.528 37.8867 187.528 38.5239C187.528 38.7285 187.499 38.9331 187.447 39.1435C187.391 39.3481 187.295 39.5615 187.154 39.7865C186.991 40.0905 186.786 40.3711 186.546 40.6283C186.312 40.8797 186.055 41.0579 185.775 41.1661C186.196 41.4467 186.739 41.587 187.411 41.587H187.786C188.51 41.5344 189.206 41.1427 189.878 40.4179C190.548 39.6872 191.123 38.6934 191.609 37.4366C192.1 36.1827 192.415 34.7213 192.556 33.0524C192.748 30.8779 193.111 28.9605 193.643 27.3004C194.172 25.6402 194.908 24.3513 195.852 23.4306C194.239 23.8456 192.877 24.5062 191.772 25.4181C190.673 26.3241 189.718 27.3822 188.908 28.5981C188.104 29.8081 187.324 31.0971 186.57 32.4679L186.114 33.2629C186.026 33.4587 185.871 33.5551 185.646 33.5551C185.591 33.5551 185.509 33.5288 185.401 33.4733C185.228 33.3885 185.143 33.2336 185.143 33.0056C185.143 32.8975 185.158 32.8157 185.19 32.7601L185.646 31.9184C186.371 30.6411 187.122 29.4018 187.902 28.2006C188.689 27.0022 189.612 25.9208 190.673 24.9621C191.731 23.9976 193.026 23.2377 194.555 22.6823C196.089 22.1212 197.945 21.8406 200.12 21.8406C200.485 21.8406 200.669 22.0218 200.669 22.3784C200.669 22.7466 200.485 22.9279 200.12 22.9279C200.12 22.9279 200.111 22.9279 200.096 22.9279C200.088 22.9279 200.041 22.9279 199.956 22.9279C199.091 22.9279 198.392 23.2201 197.863 23.8047C197.331 24.3893 196.934 25.1726 196.671 26.1546C196.405 27.1308 196.203 28.224 196.063 29.4398C195.923 30.6499 195.812 31.8804 195.736 33.1342C195.595 35.0282 195.236 36.6533 194.66 38.0095C194.09 39.3598 193.345 40.4237 192.427 41.2012C194.017 40.7569 195.361 40.1197 196.46 39.2838C197.565 38.4508 198.521 37.4688 199.325 36.3376C200.134 35.2094 200.903 33.9994 201.628 32.7134C201.768 32.5497 201.935 32.4679 202.131 32.4679C202.239 32.4679 202.324 32.4795 202.388 32.5029Z" fill="#184A3C" fill-opacity="0.4"/>
<path d="M214.642 32.503C214.806 32.62 214.888 32.7895 214.888 33.0058C214.888 33.1168 214.876 33.2016 214.853 33.263C214.204 34.4029 213.52 35.5369 212.795 36.6651C212.07 37.7962 211.302 38.828 210.492 39.7633C209.688 40.6986 208.838 41.4468 207.943 42.008C207.055 42.5633 206.108 42.838 205.102 42.838C203.737 42.838 202.641 42.4932 201.817 41.7975C200.999 41.0961 200.59 40.076 200.59 38.7344C200.59 37.957 200.742 37.0714 201.046 36.0805C201.35 35.0926 201.835 33.9966 202.507 32.7953L208.621 21.8407H212.047L206.108 32.503C205.327 33.9528 204.708 35.2096 204.249 36.2676C203.787 37.3286 203.489 38.22 203.349 38.9449C203.349 39.0004 203.34 39.0618 203.325 39.1319C203.308 39.2021 203.302 39.281 203.302 39.3658C203.302 39.7574 203.41 40.1812 203.629 40.6401C203.854 41.1019 204.275 41.3883 204.892 41.5053C204.977 41.5286 205.117 41.5403 205.313 41.5403C205.786 41.5403 206.33 41.4088 206.938 41.1428C207.552 40.8798 208.224 40.4004 208.949 39.7048C209.814 38.863 210.656 37.8313 211.474 36.6067C212.298 35.3762 213.102 34.0784 213.882 32.7135C214.023 32.5498 214.189 32.468 214.385 32.468C214.502 32.468 214.587 32.4797 214.642 32.503ZM214.771 17.5734C214.49 18.1288 214.131 18.5876 213.695 18.953C213.266 19.3125 212.786 19.4908 212.257 19.4908C212.029 19.4908 211.807 19.4528 211.591 19.3739C210.919 19.0933 210.586 18.5759 210.586 17.8189C210.586 17.4068 210.726 16.9187 211.006 16.3575C211.334 15.7438 211.743 15.2703 212.234 14.9429C212.725 14.6097 213.193 14.4402 213.637 14.4402C213.862 14.4402 214.058 14.4811 214.222 14.5571C214.859 14.8085 215.18 15.3258 215.18 16.112C215.18 16.6118 215.043 17.0999 214.771 17.5734Z" fill="#184A3C" fill-opacity="0.4"/>
<path d="M237.564 26.4823C237.757 26.5699 237.856 26.7219 237.856 26.9382C237.856 27.0551 237.838 27.1428 237.809 27.1954C237.169 28.3967 236.374 29.3671 235.424 30.1065C234.48 30.8401 233.463 31.375 232.373 31.7082C231.288 32.0443 230.216 32.2109 229.158 32.2109H228.655C228.427 32.7429 228.176 33.2719 227.895 33.8009C227.62 34.3329 227.316 34.8765 226.983 35.4377C225.609 37.6678 224.066 39.4448 222.353 40.7689C220.638 42.0958 218.986 42.7856 217.396 42.8382H217.022C215.853 42.8382 214.924 42.5752 214.24 42.0432C213.562 41.5142 213.082 40.8478 212.802 40.044C212.521 39.2344 212.381 38.4365 212.381 37.6473C212.381 37.507 212.381 37.3755 212.381 37.2498C212.381 37.1271 212.395 37.0102 212.428 36.8991C212.559 35.6686 212.863 34.3621 213.34 32.9826C213.813 31.603 214.468 30.2585 215.304 28.9491C217.063 26.2134 218.829 24.296 220.6 23.197C222.368 22.0981 224.019 21.5486 225.557 21.5486H226.013C226.182 21.5486 226.483 21.5924 226.913 21.6772C227.348 21.7561 227.807 21.9432 228.293 22.2384C228.784 22.5277 229.196 22.972 229.532 23.5712C229.865 24.1733 230.035 25.0033 230.035 26.0614C230.035 26.2338 230.026 26.4092 230.011 26.5875C229.994 26.7687 229.976 26.9821 229.953 27.2305C229.897 27.8472 229.801 28.4814 229.66 29.1362C229.52 29.7909 229.351 30.4689 229.158 31.1704C230.552 31.1704 231.975 30.8255 233.425 30.1299C234.875 29.4284 236.015 28.2827 236.85 26.6927C236.935 26.5232 237.087 26.4355 237.306 26.4355C237.423 26.4355 237.508 26.453 237.564 26.4823ZM228.819 27.4877C228.848 27.2948 228.868 27.0902 228.877 26.8798C228.892 26.6693 228.9 26.4676 228.9 26.2718C228.9 25.9912 228.883 25.7077 228.854 25.4184C228.83 25.1232 228.763 24.8338 228.655 24.5532C228.427 23.916 228.076 23.5069 227.603 23.3256C227.135 23.1474 226.717 23.0567 226.352 23.0567C226.264 23.0567 226.188 23.0655 226.118 23.0801C226.048 23.0889 225.984 23.0918 225.931 23.0918C225.066 23.2321 224.449 23.6033 224.084 24.2025C223.724 24.8046 223.517 25.4242 223.464 26.0614V26.4004C223.464 27.3445 223.797 28.2827 224.47 29.218C225.139 30.1533 226.156 30.7466 227.521 30.9951L227.942 31.0886C228.386 29.8347 228.678 28.6334 228.819 27.4877ZM226.106 34.8882C226.378 34.4147 226.632 33.9412 226.866 33.4736C227.106 33.0001 227.325 32.5354 227.521 32.0823C227.498 32.0823 227.468 32.0794 227.439 32.0706C227.416 32.056 227.372 32.0473 227.31 32.0473C225.697 31.7433 224.475 31.0272 223.651 29.8961C222.833 28.7679 222.424 27.6017 222.424 26.4004V25.9795C222.447 25.7545 222.47 25.5528 222.494 25.3716C222.523 25.1933 222.57 25.0179 222.634 24.8455C221.152 26.0468 219.828 27.6251 218.659 29.5804C217.902 30.8372 217.236 32.1057 216.66 33.3917C216.09 34.6719 215.751 35.882 215.643 37.0277C215.619 37.1914 215.608 37.3521 215.608 37.507C215.608 37.6561 215.608 37.7993 215.608 37.9396C215.608 38.8048 215.76 39.5384 216.064 40.1375C216.368 40.7396 216.87 41.1079 217.572 41.2482C217.68 41.2804 217.832 41.295 218.028 41.295C218.753 41.295 219.586 41.0232 220.53 40.4766C221.48 39.933 222.45 39.1789 223.441 38.2202C224.429 37.2557 225.317 36.145 226.106 34.8882Z" fill="#184A3C" fill-opacity="0.4"/>
<path d="M258.48 32.5031C258.643 32.5908 258.725 32.7457 258.725 32.9707C258.725 33.0818 258.713 33.1637 258.69 33.2163C256.904 36.367 255.078 38.7579 253.207 40.3946C251.336 42.0256 249.355 42.8381 247.268 42.8381C246.315 42.8381 245.54 42.6978 244.941 42.4172C244.339 42.1366 243.93 41.7742 243.714 41.3299C243.462 40.8564 243.34 40.3245 243.34 39.7399C243.34 38.6819 243.737 37.39 244.532 35.8702C245.327 34.3503 246.487 32.5908 248.016 30.5858L248.484 30.0012C248.957 29.3874 249.489 28.6801 250.074 27.8851C250.658 27.0901 251.155 26.3126 251.57 25.5469C251.991 24.7752 252.201 24.1264 252.201 23.5944C252.201 23.0654 251.936 22.7994 251.406 22.7994C251.351 22.7994 251.29 22.8082 251.219 22.8228C251.149 22.8403 251.085 22.8462 251.032 22.8462C250.5 22.9251 249.957 23.1034 249.396 23.384C248.84 23.6646 248.273 24.0153 247.689 24.4362C246.099 25.6053 244.661 26.9235 243.375 28.3878C242.094 29.8551 241.016 31.258 240.136 32.5966C239.254 33.9294 238.593 34.9875 238.149 35.7649C238.149 35.7649 238.119 35.8176 238.067 35.9169C238.011 36.0105 237.871 36.2618 237.646 36.6652C237.418 37.0714 237.05 37.7291 236.535 38.641C236.021 39.547 235.287 40.8331 234.337 42.4991H230.912L242.463 21.8408H245.935L242.661 27.698C243.579 26.64 244.555 25.6345 245.584 24.6817C246.619 23.7318 247.677 22.9631 248.753 22.3785C249.828 21.794 250.88 21.5017 251.909 21.5017C252.353 21.5017 252.786 21.5602 253.207 21.6771C253.628 21.7881 253.946 22.0366 254.166 22.4253C254.306 22.6211 254.411 22.8403 254.481 23.08C254.551 23.3138 254.586 23.6003 254.586 23.9335C254.586 24.6583 254.347 25.6141 253.873 26.7978C253.397 27.9845 252.546 29.44 251.325 31.1703C250.512 32.3394 249.659 33.5612 248.764 34.8296C247.876 36.1011 247.192 37.2351 246.718 38.2318C246.391 38.9332 246.227 39.5237 246.227 39.9971C246.227 40.5291 246.391 40.9149 246.718 41.1546C247.052 41.3884 247.484 41.5053 248.016 41.5053C248.577 41.5053 249.203 41.3738 249.898 41.1078C250.6 40.8448 251.295 40.4473 251.991 39.9153C252.973 39.1612 253.943 38.1909 254.902 37.0042C255.861 35.8205 256.799 34.3912 257.72 32.7135C257.837 32.5206 257.992 32.4213 258.187 32.4213C258.272 32.4213 258.369 32.4505 258.48 32.5031Z" fill="#184A3C" fill-opacity="0.4"/>
<path d="M274.671 32.5029C274.834 32.6198 274.916 32.7777 274.916 32.9706C274.916 33.0816 274.905 33.1635 274.881 33.2161C273.735 35.2504 272.49 36.9894 271.152 38.4304C269.81 39.8654 268.241 40.9615 266.44 41.7156C264.646 42.4638 262.506 42.8379 260.022 42.8379C258.601 42.8379 257.514 42.4229 256.76 41.587C256.564 41.3298 256.397 41.0784 256.257 40.827C256.146 40.5786 256.094 40.3009 256.094 39.997C256.094 39.6082 256.167 39.2604 256.316 38.9565C256.471 38.6466 256.564 38.4625 256.596 38.407C256.877 38.0182 257.195 37.726 257.555 37.5301C257.92 37.3372 258.271 37.2379 258.607 37.2379C258.8 37.2379 258.937 37.2495 259.016 37.2729C259.545 37.4688 259.811 37.8867 259.811 38.5239C259.811 38.7285 259.782 38.9331 259.729 39.1435C259.674 39.3481 259.577 39.5615 259.437 39.7865C259.274 40.0905 259.069 40.3711 258.829 40.6283C258.595 40.8797 258.338 41.0579 258.058 41.1661C258.479 41.4467 259.022 41.587 259.694 41.587H260.069C260.793 41.5344 261.489 41.1427 262.161 40.4179C262.831 39.6872 263.406 38.6934 263.892 37.4366C264.383 36.1827 264.698 34.7213 264.839 33.0524C265.031 30.8779 265.394 28.9605 265.926 27.3004C266.455 25.6402 267.191 24.3513 268.135 23.4306C266.522 23.8456 265.16 24.5062 264.055 25.4181C262.956 26.3241 262 27.3822 261.191 28.5981C260.387 29.8081 259.607 31.0971 258.853 32.4679L258.397 33.2629C258.309 33.4587 258.154 33.5551 257.929 33.5551C257.873 33.5551 257.792 33.5288 257.684 33.4733C257.511 33.3885 257.426 33.2336 257.426 33.0056C257.426 32.8975 257.441 32.8157 257.473 32.7601L257.929 31.9184C258.654 30.6411 259.405 29.4018 260.185 28.2006C260.972 27.0022 261.895 25.9208 262.956 24.9621C264.014 23.9976 265.309 23.2377 266.838 22.6823C268.372 22.1212 270.228 21.8406 272.403 21.8406C272.768 21.8406 272.952 22.0218 272.952 22.3784C272.952 22.7466 272.768 22.9279 272.403 22.9279C272.403 22.9279 272.394 22.9279 272.379 22.9279C272.371 22.9279 272.324 22.9279 272.239 22.9279C271.374 22.9279 270.675 23.2201 270.146 23.8047C269.614 24.3893 269.217 25.1726 268.954 26.1546C268.688 27.1308 268.486 28.224 268.346 29.4398C268.206 30.6499 268.094 31.8804 268.019 33.1342C267.878 35.0282 267.519 36.6533 266.943 38.0095C266.373 39.3598 265.628 40.4237 264.71 41.2012C266.3 40.7569 267.644 40.1197 268.743 39.2838C269.848 38.4508 270.804 37.4688 271.608 36.3376C272.417 35.2094 273.186 33.9994 273.911 32.7134C274.051 32.5497 274.218 32.4679 274.414 32.4679C274.522 32.4679 274.606 32.4795 274.671 32.5029Z" fill="#184A3C" fill-opacity="0.4"/>
<path d="M40.0773 0.0818382C41.4949 0.245515 42.6728 0.678088 43.6081 1.37956C44.5434 2.07518 45.2741 2.94033 45.806 3.975C46.335 5.00382 46.7092 6.10279 46.9284 7.27191C47.1534 8.44103 47.2674 9.59845 47.2674 10.7442C47.2674 11.3843 47.2382 12.0039 47.1856 12.6031C47.13 13.2052 47.0599 13.7693 46.9751 14.2983C46.639 16.3647 46.1012 18.5276 45.3618 20.7869C44.6281 23.0491 43.725 25.2997 42.6494 27.5444C41.5738 29.7891 40.3638 31.9403 39.0251 33.9979C38.1366 35.3716 37.0669 36.8155 35.8218 38.3354C34.5825 39.8552 33.1825 41.3517 31.6246 42.8248C30.0639 44.3037 28.3628 45.6657 26.5156 46.905C24.6742 48.1501 22.7043 49.1848 20.5998 50.0032C18.4954 50.8274 16.2683 51.3389 13.9242 51.5347C13.6494 51.5581 13.3805 51.5756 13.1175 51.5931C12.8515 51.6078 12.5797 51.6165 12.2991 51.6165C9.61599 51.6165 7.36544 51.0612 5.54162 49.9564C3.71779 48.8574 2.33823 47.3083 1.40294 45.315C0.467647 43.3187 0 41.0009 0 38.3587C0 37.1049 0.105221 35.7808 0.315662 34.3837C0.526103 32.9896 0.853456 31.5399 1.29772 30.0346C2.02257 27.5503 3.33198 24.8847 5.22595 22.0379C7.12577 19.194 9.76213 16.2098 13.1292 13.0824C13.4624 12.7551 13.7722 12.5914 14.0528 12.5914C14.1931 12.5914 14.2778 12.6031 14.31 12.6265C14.4503 12.7668 14.5204 12.9071 14.5204 13.0473C14.5204 13.211 14.4064 13.4332 14.1814 13.7137C14.1814 13.7137 13.9505 13.968 13.4916 14.4737C13.0298 14.9735 12.4394 15.672 11.7146 16.5664C10.9897 17.4549 10.2122 18.4925 9.38801 19.6762C8.56963 20.8629 7.8097 22.1519 7.10823 23.546C5.82805 26.0889 4.84599 28.6492 4.16206 31.2271C3.4752 33.808 3.13323 36.2134 3.13323 38.4406C3.13323 40.6385 3.48689 42.6026 4.19713 44.3329C4.91322 46.0632 6.02388 47.434 7.52912 48.4482C9.03143 49.4683 11.0014 49.9944 13.4332 50.0265C14.6257 50.0265 15.7509 49.8775 16.8119 49.5823C17.87 49.2929 18.8754 48.9217 19.8282 48.4716C21.7748 47.5831 23.6775 46.3701 25.5335 44.8357C27.3866 43.2983 29.1578 41.5504 30.8413 39.5863C32.5307 37.6222 34.0915 35.5382 35.5178 33.3315C37.5754 30.1837 39.3437 27.0008 40.8256 23.7798C42.3045 20.5531 43.3216 17.5075 43.877 14.6373C44.0173 13.8833 44.1751 12.948 44.3563 11.8315C44.5434 10.7179 44.6369 9.57507 44.6369 8.40595C44.6369 7.3479 44.5229 6.33077 44.2979 5.35456C44.0699 4.3725 43.6665 3.56289 43.082 2.92279C42.6377 2.4493 42.0356 2.06642 41.2815 1.77706C40.5333 1.48186 39.6828 1.33279 38.7329 1.33279C38.0928 1.33279 37.4118 1.42048 36.6869 1.59C35.0648 1.9495 33.3608 2.64805 31.5779 3.68272C29.792 4.71154 28.0617 6.00926 26.387 7.57588C24.7181 9.13665 23.207 10.9196 21.8508 12.9304C20.5005 14.9355 19.4483 17.1217 18.6942 19.4892C17.9693 21.7193 17.6069 23.6571 17.6069 25.2997C17.6069 26.5857 17.829 27.6789 18.2733 28.5732C18.7234 29.4618 19.4103 30.1018 20.331 30.4906C21.1084 30.7946 21.8625 30.9465 22.5873 30.9465C24.6742 30.9465 26.6968 29.719 28.6551 27.2638C29.5202 26.1502 30.2451 25.0513 30.8296 23.9669C31.4668 22.6809 31.8935 21.4475 32.104 20.2608C32.3144 19.0771 32.4196 18.0395 32.4196 17.151C32.4196 16.505 32.3904 15.9526 32.3378 15.4908C32.2823 15.0319 32.2384 14.7046 32.2092 14.5087C32.2092 14.4561 32.2004 14.3918 32.1858 14.3217C32.1683 14.2515 32.1624 14.1902 32.1624 14.1346C32.1624 13.4332 32.4839 13.0181 33.1328 12.8837C33.3812 12.8837 33.6034 13.0006 33.7992 13.2344C33.9921 13.4682 34.1061 13.8657 34.1382 14.4269C34.1382 14.5672 34.1411 14.725 34.1499 14.8946C34.1645 15.0582 34.1733 15.2102 34.1733 15.3505C34.1733 16.9113 34.0242 18.2967 33.729 19.5126C33.4397 20.7226 33.1474 21.6696 32.8522 22.3535C32.5628 23.0404 32.4196 23.3823 32.4196 23.3823C32.0835 24.1072 31.686 24.8613 31.2271 25.6387C30.7653 26.4191 30.2158 27.2141 29.5787 28.0237C28.4622 29.3887 27.22 30.4555 25.8492 31.2271C24.4842 31.9929 23.1485 32.3729 21.8391 32.3729C20.217 32.3729 18.8871 31.9987 17.8524 31.2505C16.8236 30.4964 16.0637 29.491 15.5726 28.2342C15.0875 26.9803 14.8478 25.6271 14.8478 24.1773C14.8478 22.5026 15.1284 20.8278 15.6896 19.1501C16.4144 16.923 17.4374 14.7718 18.7643 12.6966C20.0884 10.6156 21.6287 8.71869 23.3823 7.00301C25.1419 5.29026 27.0417 3.8464 29.0759 2.67728C31.1102 1.50232 33.2146 0.719008 35.3892 0.327353C36.5875 0.111067 37.704 0 38.7329 0C38.9813 0 39.218 0.00876857 39.446 0.0233823C39.6711 0.0321509 39.8815 0.0526099 40.0773 0.0818382Z" fill="#184A3C"/>
<path d="M69.1434 30.6543C69.3363 30.7712 69.4357 30.929 69.4357 31.1219C69.4357 31.2009 69.4065 31.2973 69.3538 31.4142C68.4887 32.9428 67.5593 34.4481 66.5713 35.927C65.5805 37.4089 64.5137 38.6248 63.368 39.5747C62.2281 40.5187 60.9742 40.9893 59.6034 40.9893C58.2385 40.9893 57.1366 40.6444 56.2948 39.9488C55.4589 39.2473 55.0439 38.2156 55.0439 36.8506C55.0439 36.7659 55.0497 36.6752 55.0672 36.5817C55.0818 36.4823 55.0906 36.3888 55.0906 36.3011C54.2021 37.6427 53.2259 38.7621 52.1678 39.6565C51.1068 40.545 49.9348 40.9893 48.6488 40.9893C47.2838 40.9893 46.1878 40.6444 45.3636 39.9488C44.5452 39.2473 44.136 38.2273 44.136 36.8857C44.136 36.1082 44.288 35.2226 44.5919 34.2318C44.8959 33.2439 45.3811 32.1478 46.0533 30.9466L52.1678 19.9919H55.5933L49.6542 30.6543C48.8738 32.104 48.2542 33.3608 47.7953 34.4189C47.3335 35.4798 47.0354 36.3713 46.8951 37.0961C46.8951 37.1517 46.8863 37.213 46.8717 37.2832C46.8542 37.3533 46.8483 37.4323 46.8483 37.517C46.8483 37.9087 46.9565 38.3412 47.1757 38.8147C47.4007 39.2911 47.8216 39.5834 48.4383 39.6916C48.5231 39.7237 48.6634 39.7383 48.8592 39.7383C49.3327 39.7383 49.8764 39.6068 50.4843 39.3408C51.0981 39.0778 51.7703 38.5926 52.4952 37.8911C53.0564 37.3387 53.5591 36.7337 54.0033 36.079C54.4476 35.4243 54.8919 34.7053 55.3361 33.9161L56.6806 31.5779C56.7332 31.4698 56.7975 31.3675 56.8677 31.2739C56.9378 31.1746 56.9875 31.0635 57.0197 30.9466L63.1692 19.9919H66.5947L60.6556 30.6543C59.8752 32.104 59.2556 33.3608 58.7967 34.4189C58.3349 35.4798 58.0368 36.3713 57.8965 37.0961C57.8643 37.1838 57.8497 37.3387 57.8497 37.5638C57.8497 37.9554 57.955 38.3792 58.1654 38.8381C58.3758 39.2999 58.7879 39.5834 59.4047 39.6916C59.4807 39.7237 59.6326 39.7383 59.8606 39.7383C60.3341 39.7383 60.8777 39.6068 61.4857 39.3408C62.0995 39.0778 62.76 38.5926 63.4615 37.8911C64.35 37.0581 65.2035 36.0293 66.0219 34.8047C66.8461 33.5742 67.6499 32.2618 68.4302 30.8647C68.5705 30.7011 68.7254 30.6192 68.8979 30.6192C69.006 30.6192 69.0879 30.6309 69.1434 30.6543Z" fill="#184A3C"/>
<path d="M86.8436 30.6543C87.0365 30.7945 87.1359 30.9641 87.1359 31.157C87.1359 31.2125 87.1066 31.2973 87.054 31.4142C85.2916 34.5649 83.4678 36.9558 81.5826 38.5926C79.7032 40.2235 77.7186 41.036 75.6318 41.036C74.6789 41.036 73.9044 40.8899 73.3052 40.5917C72.7031 40.2965 72.2939 39.9429 72.0776 39.5279C71.8204 39.0222 71.6918 38.4756 71.6918 37.8911C71.6918 36.8097 72.0893 35.5149 72.8843 34.0096C73.6793 32.4985 74.8426 30.7419 76.38 28.7369C77.1048 27.8191 77.8122 26.8722 78.5078 25.8959C79.2093 24.9139 79.8113 23.8821 80.3199 22.7978L80.5187 22.3301H80.2731C79.0163 22.3301 78.0109 22.1518 77.2568 21.7923C76.5086 21.427 75.9386 21.05 75.5499 20.6583L69.564 31.3674C69.453 31.5632 69.301 31.6597 69.1081 31.6597C69.0204 31.6597 68.9239 31.6334 68.8158 31.5779C68.6434 31.4931 68.5586 31.3528 68.5586 31.157C68.5586 31.0722 68.5849 30.9758 68.6404 30.8647L74.8368 19.7347C74.6409 19.4015 74.5006 19.0537 74.4159 18.6942C74.3282 18.3288 74.2873 17.9781 74.2873 17.642C74.2873 17.113 74.372 16.6424 74.5445 16.2273C74.5971 16.1192 74.6526 16.014 74.7082 15.9117C74.7608 15.8123 74.8163 15.7071 74.8718 15.596C75.205 15.1751 75.5411 14.8682 75.8773 14.6724C76.2982 14.3684 76.722 14.1785 77.1516 14.0996C77.5871 14.0148 77.9729 13.9709 78.309 13.9709C78.613 13.9709 78.8468 13.9885 79.0105 14.0177C79.18 14.0411 79.2677 14.0528 79.2677 14.0528C78.5955 15.2541 78.0781 16.1806 77.7128 16.8353C77.3533 17.49 77.0873 17.9576 76.9178 18.2382C76.7541 18.513 76.6547 18.6796 76.6255 18.7409C76.6021 18.7965 76.5904 18.8228 76.5904 18.8228C76.5349 18.9339 76.4501 19.0917 76.3332 19.3021C76.2222 19.5126 76.1579 19.647 76.1345 19.6996C76.5787 20.3163 77.2364 20.7635 78.1103 21.0441C78.99 21.3188 80.0043 21.4533 81.15 21.4533C81.679 21.4533 82.2285 21.427 82.7984 21.3715C83.3742 21.3188 83.9676 21.2312 84.5755 21.1143C84.5755 21.1143 84.2306 21.7923 83.5467 23.1485C82.8686 24.5047 81.7755 26.2701 80.2731 28.4446L79.6418 29.3565C78.9696 30.3094 78.2652 31.3206 77.5257 32.3962C76.7921 33.466 76.1462 34.4627 75.585 35.3892C75.4447 35.6639 75.2839 36.0643 75.1057 36.5934C74.9244 37.1253 74.8368 37.6426 74.8368 38.1483C74.8368 38.5078 74.9186 38.8351 75.0823 39.1304C75.2518 39.4197 75.5178 39.5951 75.8773 39.6565C75.962 39.6798 76.0439 39.6915 76.1228 39.6915C76.2075 39.6915 76.2923 39.6915 76.38 39.6915C77.6105 39.6915 78.9345 39.1625 80.355 38.1015C81.3283 37.3533 82.2957 36.3888 83.2544 35.2021C84.2189 34.0096 85.1776 32.5658 86.1304 30.8647C86.2152 30.701 86.3672 30.6192 86.5864 30.6192C86.7033 30.6192 86.7881 30.6309 86.8436 30.6543Z" fill="#184A3C"/>
<path d="M176.902 1.83546C177.01 1.99914 177.066 2.12482 177.066 2.20958C177.066 2.34987 177.01 2.47556 176.902 2.5837C176.791 2.70061 176.668 2.75907 176.528 2.75907C176.355 2.75907 176.23 2.70061 176.154 2.5837C176.154 2.50771 175.969 2.38203 175.604 2.20958C175.493 2.15697 175.277 2.08098 174.949 1.98745C174.628 1.88807 174.204 1.83546 173.675 1.83546C173.4 1.83546 173.096 1.85885 172.763 1.90561C172.427 1.94653 172.065 2.0196 171.676 2.12774C170.811 2.3791 169.735 2.8526 168.449 3.55407C167.169 4.24969 165.737 5.3019 164.147 6.71068C162.557 8.12239 160.844 10.0134 159.014 12.3809C157.191 14.7513 155.302 17.7325 153.356 21.3246C152.435 23.0023 151.526 24.8525 150.632 26.878C149.743 28.8976 148.931 30.9932 148.2 33.1678C147.475 35.3424 146.896 37.5169 146.47 39.6915C146.04 41.866 145.827 43.9588 145.827 45.9696C145.827 48.1968 146.166 50.2398 146.844 52.0958C147.528 53.9489 148.644 55.4687 150.187 56.6554C151.737 57.8391 153.823 58.5844 156.442 58.8884C156.699 58.9176 156.951 58.9352 157.202 58.9352C157.451 58.9352 157.699 58.9352 157.95 58.9352C159.4 58.9352 160.762 58.8007 162.042 58.5377C163.328 58.2717 164.533 57.9297 165.655 57.5088C165.903 57.4299 166.146 57.3393 166.38 57.2399C166.619 57.1464 166.839 57.0412 167.034 56.9243C168.537 56.1994 169.797 55.4044 170.811 54.5393C171.831 53.6741 172.591 52.92 173.091 52.2829C173.596 51.6428 173.85 51.3242 173.85 51.3242C174.154 50.9033 174.517 50.6929 174.938 50.6929C175.131 50.6929 175.326 50.763 175.522 50.9033C175.747 51.0436 175.861 51.2804 175.861 51.6165C175.861 51.8094 175.794 52.0403 175.663 52.3063C175.537 52.5693 175.324 52.8119 175.02 53.0311C174.458 53.5046 173.842 53.981 173.172 54.4574C172.509 54.9309 171.869 55.3723 171.255 55.7785C170.638 56.1819 170.136 56.5092 169.747 56.7606C169.355 57.009 169.162 57.1347 169.162 57.1347C167.625 57.9999 165.903 58.7159 163.995 59.2859C162.083 59.8617 159.859 60.151 157.319 60.151H156.863C153.268 60.0634 150.398 59.3853 148.247 58.1168C146.101 56.8454 144.555 55.1297 143.605 52.9727C142.653 50.8127 142.179 48.3926 142.179 45.7124C142.179 43.1462 142.524 40.4456 143.22 37.5988C143.921 34.7549 144.862 31.8993 146.049 29.0291C147.233 26.1531 148.551 23.4057 150 20.7869C152.152 16.882 154.332 13.7108 156.547 11.2702C158.769 8.83263 160.853 6.88605 162.802 5.43634C162.802 5.43634 162.864 5.38373 162.989 5.27267C163.112 5.15576 163.305 5.00085 163.562 4.80502C161.411 5.97414 159.178 7.52322 156.863 9.44642C154.548 11.3725 152.248 13.7429 149.965 16.5547L148.586 18.32C148.554 18.3434 148.32 18.6708 147.884 19.3021C147.455 19.9276 146.879 20.7693 146.154 21.8274C145.429 22.8883 144.625 24.1042 143.746 25.475C142.872 26.84 141.969 28.2751 141.033 29.7774C140.098 31.2826 139.212 32.7908 138.379 34.3019C137.234 36.3361 136.123 38.3178 135.047 40.241C133.972 42.1583 132.984 43.8594 132.09 45.35C131.201 46.8465 130.424 47.9454 129.763 48.6469C129.567 48.8632 129.368 49.0444 129.167 49.1847C128.971 49.325 128.763 49.3952 128.547 49.3952C128.436 49.3952 128.269 49.3513 128.044 49.2666C127.708 49.1321 127.542 48.8281 127.542 48.3546C127.542 47.9338 127.72 47.5275 128.079 47.1388L128.676 46.3905C129.336 45.578 130.143 44.5112 131.096 43.1871C132.046 41.8602 133.063 40.2001 134.147 38.195C135.237 36.1841 136.325 33.7378 137.409 30.853C138.499 27.9623 139.49 24.5368 140.379 20.5764C140.829 18.5977 141.057 16.7709 141.057 15.0933C141.057 13.816 140.943 12.6556 140.718 11.6093C140.49 10.5571 140.197 9.61594 139.841 8.78002C139.753 9.22429 139.63 9.71239 139.467 10.2414C139.467 10.2414 139.283 10.7967 138.917 11.9016C138.558 13.0005 138.029 14.4941 137.327 16.3793C136.632 18.2586 135.784 20.3777 134.779 22.7393C133.773 25.0951 132.616 27.5268 131.306 30.0346C129.941 32.6242 128.413 35.1787 126.723 37.704C125.04 40.2293 123.193 42.5149 121.182 44.5667C119.171 46.6156 116.999 48.2523 114.67 49.477C112.346 50.7075 109.876 51.3242 107.258 51.3242H106.837C105.472 51.2687 104.419 51.0144 103.68 50.5643C102.938 50.12 102.412 49.6056 102.102 49.021C101.798 48.4365 101.617 47.925 101.564 47.4895C101.508 47.0598 101.482 46.8465 101.482 46.8465C101.482 46.7062 101.564 46.5776 101.728 46.4607C101.897 46.3496 101.996 46.297 102.02 46.297C102.353 46.297 102.523 46.4636 102.523 46.7997C102.523 46.8289 102.549 47.0131 102.604 47.3492C102.666 47.6824 102.829 48.0653 103.095 48.4949C103.359 48.9304 103.776 49.3075 104.346 49.629C104.913 49.9476 105.717 50.1083 106.755 50.1083H107.082C108.953 50.0528 110.736 49.5647 112.437 48.6469C114.144 47.7262 115.757 46.4753 117.277 44.8941C118.797 43.3187 120.246 41.5387 121.626 39.5512C123.006 37.5578 124.306 35.4447 125.531 33.2146C126.761 30.9786 127.933 28.7456 129.05 26.5155C131.169 22.2219 133.016 18.5977 134.591 15.6427C136.164 12.6819 137.298 10.5892 137.994 9.36458L139.128 7.40046C138.511 6.31026 137.853 5.45388 137.152 4.8284C136.456 4.19708 135.866 3.74697 135.375 3.47223C134.89 3.19164 134.65 3.05135 134.65 3.05135C133.621 2.49017 132.548 2.13943 131.435 1.99914C130.318 1.85885 129.272 1.77701 128.29 1.75362H127.752C125.794 1.75362 123.783 2.09851 121.719 2.78245C119.662 3.46054 117.628 4.41629 115.617 5.64679C113.612 6.87144 111.724 8.28607 109.946 9.89068C108.175 11.4894 106.594 13.211 105.2 15.0582C104.528 15.9233 103.908 16.7709 103.341 17.5952C102.771 18.4135 102.248 19.2261 101.774 20.0269C100.237 22.7334 99.1614 25.0541 98.5476 26.9949C97.9396 28.9356 97.6357 30.5782 97.6357 31.9169C97.6357 33.1737 97.8227 34.182 98.1968 34.9449C98.571 35.7106 99.0035 36.2894 99.4946 36.6869C99.9856 37.0785 100.395 37.3123 100.722 37.3883C101.032 37.4439 101.324 37.4935 101.599 37.5403C101.88 37.5812 102.16 37.5988 102.441 37.5988C103.61 37.5988 104.767 37.324 105.913 36.7687C107.059 36.2075 108.172 35.468 109.257 34.5474C110.847 33.2087 112.25 31.6333 113.466 29.8241C114.681 28.0091 115.652 26.2233 116.377 24.4696C116.789 23.5197 117.101 22.6078 117.312 21.7338C117.522 20.8541 117.663 20.1205 117.733 19.5359C117.803 18.9455 117.838 18.6474 117.838 18.6474C117.838 17.6741 118.241 17.186 119.054 17.186C119.302 17.2181 119.51 17.3233 119.674 17.5016C119.843 17.6828 119.931 17.9547 119.931 18.32C119.931 18.5158 119.887 18.7643 119.802 19.0683C119.574 19.9334 119.279 20.8161 118.914 21.7105C118.554 22.599 118.192 23.4232 117.826 24.1773C117.467 24.9255 117.172 25.5276 116.938 25.9777C116.704 26.422 116.587 26.6441 116.587 26.6441C115.798 28.2049 114.839 29.7598 113.711 31.3089C112.589 32.8521 111.329 34.2142 109.935 35.3891C108.649 36.4735 107.328 37.3153 105.971 37.9144C104.621 38.5165 103.25 38.8146 101.856 38.8146H101.611C101.47 38.8146 101.313 38.8088 101.143 38.7913C100.979 38.7766 100.839 38.7679 100.722 38.7679C98.4073 38.575 96.8319 37.5988 95.9989 35.8451C95.4143 34.676 95.1221 33.2555 95.1221 31.5778V31.2388C95.1221 31.2388 95.1601 30.7594 95.239 29.8008C95.3237 28.8362 95.578 27.518 95.9989 25.8491C96.4198 24.1744 97.1154 22.2833 98.0916 20.1789C99.0649 18.0745 100.418 15.8736 102.148 13.5734C103.879 11.2673 106.123 9.01384 108.883 6.8159C111.726 4.52443 114.711 2.82921 117.838 1.73024C120.962 0.631272 124.028 0.0817871 127.039 0.0817871H127.705C129.412 0.105169 130.92 0.309765 132.23 0.689728C133.539 1.06385 134.679 1.54318 135.655 2.12774L136.111 2.42002C136.585 2.75614 137.169 3.2121 137.865 3.78789C138.566 4.35783 139.256 5.10899 139.934 6.04429C140.618 6.97373 141.191 8.1487 141.653 9.57502C142.121 10.9955 142.354 12.7258 142.354 14.7659C142.354 16.7154 142.08 18.9806 141.536 21.5585C140.989 24.1393 140.019 27.0884 138.625 30.4087C138.602 30.4321 138.59 30.473 138.59 30.5256C138.59 30.7302 138.616 30.8296 138.672 30.8296C138.748 30.8296 138.824 30.7799 138.894 30.6776C138.964 30.5782 138.999 30.5256 138.999 30.5256C140.23 28.4913 141.396 26.6412 142.495 24.9723C143.594 23.2975 144.687 21.7221 145.78 20.2491C146.87 18.7701 147.984 17.3146 149.124 15.8883C151.158 13.3805 153.148 11.2673 155.098 9.55164C157.053 7.83888 158.88 6.43886 160.581 5.35451C162.288 4.2643 163.778 3.42546 165.059 2.8409C166.538 2.17158 168.04 1.66594 169.56 1.32105C171.08 0.970316 172.369 0.794949 173.43 0.794949C174.651 0.794949 175.528 0.955702 176.06 1.27429C176.589 1.59579 176.87 1.78285 176.902 1.83546Z" fill="#184A3C"/>
<path d="M167.491 30.6542C167.655 30.7711 167.737 30.9406 167.737 31.1569C167.737 31.268 167.725 31.3527 167.702 31.4141C167.053 32.554 166.369 33.688 165.644 34.8162C164.919 35.9474 164.151 36.9791 163.341 37.9144C162.537 38.8497 161.687 39.5979 160.792 40.1591C159.904 40.7144 158.957 40.9892 157.951 40.9892C156.586 40.9892 155.49 40.6443 154.666 39.9487C153.848 39.2472 153.438 38.2271 153.438 36.8856C153.438 36.1081 153.59 35.2225 153.894 34.2317C154.198 33.2438 154.684 32.1477 155.356 30.9465L161.47 19.9918H164.896L158.957 30.6542C158.176 32.1039 157.557 33.3607 157.098 34.4187C156.636 35.4797 156.338 36.3712 156.198 37.096C156.198 37.1515 156.189 37.2129 156.174 37.2831C156.157 37.3532 156.151 37.4321 156.151 37.5169C156.151 37.9085 156.259 38.3323 156.478 38.7912C156.703 39.253 157.124 39.5395 157.741 39.6564C157.826 39.6798 157.966 39.6914 158.162 39.6914C158.635 39.6914 159.179 39.5599 159.787 39.2939C160.401 39.0309 161.073 38.5516 161.798 37.8559C162.663 37.0142 163.505 35.9824 164.323 34.7578C165.147 33.5273 165.951 32.2296 166.731 30.8646C166.872 30.7009 167.038 30.6191 167.234 30.6191C167.351 30.6191 167.436 30.6308 167.491 30.6542ZM167.62 15.7245C167.339 16.2799 166.98 16.7388 166.544 17.1041C166.115 17.4636 165.635 17.6419 165.106 17.6419C164.878 17.6419 164.656 17.6039 164.44 17.525C163.768 17.2444 163.434 16.7271 163.434 15.9701C163.434 15.5579 163.575 15.0698 163.855 14.5087C164.183 13.8949 164.592 13.4214 165.083 13.094C165.574 12.7608 166.042 12.5913 166.486 12.5913C166.711 12.5913 166.907 12.6322 167.07 12.7082C167.708 12.9596 168.029 13.4769 168.029 14.2631C168.029 14.7629 167.892 15.2511 167.62 15.7245Z" fill="#184A3C"/>
<path d="M183.807 30.6543C183.971 30.7712 184.053 30.929 184.053 31.1219C184.053 31.233 184.041 31.3148 184.017 31.3675C182.872 33.4017 181.627 35.1408 180.288 36.5817C178.946 38.0168 177.377 39.1129 175.576 39.8669C173.782 40.6152 171.642 40.9893 169.158 40.9893C167.737 40.9893 166.65 40.5743 165.896 39.7383C165.7 39.4811 165.534 39.2298 165.393 38.9784C165.282 38.73 165.23 38.4523 165.23 38.1483C165.23 37.7596 165.303 37.4118 165.452 37.1078C165.607 36.798 165.7 36.6139 165.732 36.5583C166.013 36.1696 166.332 35.8773 166.691 35.6815C167.056 35.4886 167.407 35.3892 167.743 35.3892C167.936 35.3892 168.074 35.4009 168.153 35.4243C168.682 35.6201 168.948 36.0381 168.948 36.6752C168.948 36.8798 168.918 37.0844 168.866 37.2949C168.81 37.4995 168.714 37.7128 168.573 37.9379C168.41 38.2419 168.205 38.5225 167.965 38.7797C167.732 39.031 167.474 39.2093 167.194 39.3175C167.615 39.598 168.158 39.7383 168.831 39.7383H169.205C169.93 39.6857 170.625 39.2941 171.297 38.5692C171.967 37.8385 172.543 36.8448 173.028 35.588C173.519 34.3341 173.834 32.8727 173.975 31.2038C174.168 29.0292 174.53 27.1119 175.062 25.4517C175.591 23.7916 176.328 22.5026 177.272 21.5819C175.658 21.997 174.296 22.6575 173.191 23.5694C172.092 24.4755 171.137 25.5336 170.327 26.7494C169.523 27.9595 168.743 29.2484 167.989 30.6192L167.533 31.4142C167.445 31.61 167.29 31.7065 167.065 31.7065C167.01 31.7065 166.928 31.6802 166.82 31.6247C166.647 31.5399 166.563 31.385 166.563 31.157C166.563 31.0489 166.577 30.967 166.609 30.9115L167.065 30.0697C167.79 28.7925 168.541 27.5532 169.322 26.3519C170.108 25.1536 171.031 24.0722 172.092 23.1135C173.151 22.149 174.445 21.389 175.974 20.8337C177.508 20.2725 179.364 19.9919 181.539 19.9919C181.904 19.9919 182.088 20.1732 182.088 20.5297C182.088 20.898 181.904 21.0792 181.539 21.0792C181.539 21.0792 181.53 21.0792 181.516 21.0792C181.507 21.0792 181.46 21.0792 181.375 21.0792C180.51 21.0792 179.812 21.3715 179.283 21.9561C178.751 22.5406 178.353 23.3239 178.09 24.306C177.824 25.2822 177.622 26.3753 177.482 27.5912C177.342 28.8012 177.231 30.0317 177.155 31.2856C177.014 33.1796 176.655 34.8047 176.079 36.1608C175.509 37.5112 174.764 38.5751 173.846 39.3525C175.436 38.9083 176.781 38.2711 177.88 37.4352C178.984 36.6022 179.94 35.6201 180.744 34.489C181.554 33.3608 182.322 32.1508 183.047 30.8647C183.187 30.7011 183.354 30.6192 183.55 30.6192C183.658 30.6192 183.743 30.6309 183.807 30.6543Z" fill="#184A3C"/>
<path d="M200.539 30.6543C200.703 30.7712 200.785 30.929 200.785 31.1219C200.785 31.233 200.773 31.3148 200.75 31.3675C199.604 33.4017 198.359 35.1408 197.02 36.5817C195.679 38.0168 194.109 39.1129 192.309 39.8669C190.514 40.6152 188.375 40.9893 185.89 40.9893C184.47 40.9893 183.382 40.5743 182.628 39.7383C182.432 39.4811 182.266 39.2298 182.126 38.9784C182.015 38.73 181.962 38.4523 181.962 38.1483C181.962 37.7596 182.035 37.4118 182.184 37.1078C182.339 36.798 182.432 36.6139 182.465 36.5583C182.745 36.1696 183.064 35.8773 183.423 35.6815C183.789 35.4886 184.139 35.3892 184.476 35.3892C184.668 35.3892 184.806 35.4009 184.885 35.4243C185.414 35.6201 185.68 36.0381 185.68 36.6752C185.68 36.8798 185.65 37.0844 185.598 37.2949C185.542 37.4995 185.446 37.7128 185.306 37.9379C185.142 38.2419 184.937 38.5225 184.698 38.7797C184.464 39.031 184.207 39.2093 183.926 39.3175C184.347 39.598 184.891 39.7383 185.563 39.7383H185.937C186.662 39.6857 187.357 39.2941 188.03 38.5692C188.699 37.8385 189.275 36.8448 189.76 35.588C190.251 34.3341 190.567 32.8727 190.707 31.2038C190.9 29.0292 191.262 27.1119 191.794 25.4517C192.323 23.7916 193.06 22.5026 194.004 21.5819C192.39 21.997 191.028 22.6575 189.924 23.5694C188.825 24.4755 187.869 25.5336 187.059 26.7494C186.255 27.9595 185.475 29.2484 184.721 30.6192L184.265 31.4142C184.177 31.61 184.022 31.7065 183.797 31.7065C183.742 31.7065 183.66 31.6802 183.552 31.6247C183.379 31.5399 183.295 31.385 183.295 31.157C183.295 31.0489 183.309 30.967 183.341 30.9115L183.797 30.0697C184.522 28.7925 185.273 27.5532 186.054 26.3519C186.84 25.1536 187.764 24.0722 188.825 23.1135C189.883 22.149 191.177 21.389 192.706 20.8337C194.241 20.2725 196.097 19.9919 198.271 19.9919C198.636 19.9919 198.821 20.1732 198.821 20.5297C198.821 20.898 198.636 21.0792 198.271 21.0792C198.271 21.0792 198.262 21.0792 198.248 21.0792C198.239 21.0792 198.192 21.0792 198.107 21.0792C197.242 21.0792 196.544 21.3715 196.015 21.9561C195.483 22.5406 195.085 23.3239 194.822 24.306C194.556 25.2822 194.355 26.3753 194.214 27.5912C194.074 28.8012 193.963 30.0317 193.887 31.2856C193.747 33.1796 193.387 34.8047 192.811 36.1608C192.241 37.5112 191.496 38.5751 190.578 39.3525C192.168 38.9083 193.513 38.2711 194.612 37.4352C195.717 36.6022 196.672 35.6201 197.476 34.489C198.286 33.3608 199.054 32.1508 199.779 30.8647C199.92 30.7011 200.086 30.6192 200.282 30.6192C200.39 30.6192 200.475 30.6309 200.539 30.6543Z" fill="#184A3C"/>
<path d="M212.794 30.6542C212.957 30.7711 213.039 30.9406 213.039 31.1569C213.039 31.268 213.028 31.3527 213.004 31.4141C212.355 32.554 211.671 33.688 210.947 34.8162C210.222 35.9474 209.453 36.9791 208.643 37.9144C207.84 38.8497 206.989 39.5979 206.095 40.1591C205.206 40.7144 204.259 40.9892 203.254 40.9892C201.889 40.9892 200.793 40.6443 199.969 39.9487C199.15 39.2472 198.741 38.2271 198.741 36.8856C198.741 36.1081 198.893 35.2225 199.197 34.2317C199.501 33.2438 199.986 32.1477 200.658 30.9465L206.773 19.9918H210.198L204.259 30.6542C203.479 32.1039 202.859 33.3607 202.4 34.4187C201.939 35.4797 201.64 36.3712 201.5 37.096C201.5 37.1515 201.491 37.2129 201.477 37.2831C201.459 37.3532 201.453 37.4321 201.453 37.5169C201.453 37.9085 201.561 38.3323 201.781 38.7912C202.006 39.253 202.427 39.5395 203.043 39.6564C203.128 39.6798 203.268 39.6914 203.464 39.6914C203.938 39.6914 204.481 39.5599 205.089 39.2939C205.703 39.0309 206.375 38.5516 207.1 37.8559C207.965 37.0142 208.807 35.9824 209.625 34.7578C210.45 33.5273 211.253 32.2296 212.034 30.8646C212.174 30.7009 212.341 30.6191 212.537 30.6191C212.653 30.6191 212.738 30.6308 212.794 30.6542ZM212.922 15.7245C212.642 16.2799 212.282 16.7388 211.847 17.1041C211.417 17.4636 210.938 17.6419 210.409 17.6419C210.181 17.6419 209.959 17.6039 209.742 17.525C209.07 17.2444 208.737 16.7271 208.737 15.9701C208.737 15.5579 208.877 15.0698 209.158 14.5087C209.485 13.8949 209.894 13.4214 210.385 13.094C210.876 12.7608 211.344 12.5913 211.788 12.5913C212.013 12.5913 212.209 12.6322 212.373 12.7082C213.01 12.9596 213.332 13.4769 213.332 14.2631C213.332 14.7629 213.194 15.2511 212.922 15.7245Z" fill="#184A3C"/>
<path d="M235.715 24.6329C235.908 24.7206 236.007 24.8726 236.007 25.0888C236.007 25.2058 235.99 25.2934 235.961 25.3461C235.32 26.5473 234.525 27.5177 233.576 28.2572C232.631 28.9908 231.614 29.5257 230.524 29.8588C229.44 30.195 228.367 30.3616 227.309 30.3616H226.806C226.578 30.8935 226.327 31.4225 226.046 31.9516C225.772 32.4835 225.468 33.0272 225.135 33.5883C223.761 35.8184 222.218 37.5955 220.505 38.9195C218.789 40.2465 217.138 40.9362 215.548 40.9888H215.174C214.005 40.9888 213.075 40.7258 212.391 40.1938C211.713 39.6648 211.234 38.9984 210.953 38.1947C210.673 37.385 210.532 36.5871 210.532 35.798C210.532 35.6577 210.532 35.5261 210.532 35.4005C210.532 35.2777 210.547 35.1608 210.579 35.0497C210.711 33.8192 211.014 32.5127 211.491 31.1332C211.964 29.7536 212.619 28.4091 213.455 27.0997C215.215 24.364 216.98 22.4466 218.751 21.3477C220.519 20.2487 222.171 19.6992 223.708 19.6992H224.164C224.334 19.6992 224.635 19.7431 225.064 19.8278C225.5 19.9067 225.959 20.0938 226.444 20.389C226.935 20.6784 227.347 21.1226 227.683 21.7218C228.016 22.3239 228.186 23.154 228.186 24.212C228.186 24.3845 228.177 24.5598 228.163 24.7381C228.145 24.9193 228.127 25.1327 228.104 25.3811C228.049 25.9978 227.952 26.6321 227.812 27.2868C227.671 27.9415 227.502 28.6196 227.309 29.3211C228.703 29.3211 230.127 28.9762 231.576 28.2805C233.026 27.5791 234.166 26.4333 235.002 24.8433C235.087 24.6738 235.239 24.5861 235.458 24.5861C235.575 24.5861 235.659 24.6037 235.715 24.6329ZM226.97 25.6383C226.999 25.4454 227.02 25.2408 227.028 25.0304C227.043 24.82 227.052 24.6183 227.052 24.4225C227.052 24.1419 227.034 23.8584 227.005 23.569C226.982 23.2738 226.914 22.9844 226.806 22.7039C226.578 22.0667 226.228 21.6575 225.754 21.4763C225.286 21.298 224.869 21.2074 224.503 21.2074C224.415 21.2074 224.34 21.2161 224.269 21.2308C224.199 21.2395 224.135 21.2425 224.082 21.2425C223.217 21.3827 222.6 21.7539 222.235 22.3531C221.876 22.9552 221.668 23.5748 221.615 24.212V24.5511C221.615 25.4951 221.949 26.4333 222.621 27.3686C223.29 28.3039 224.307 28.8972 225.672 29.1457L226.093 29.2392C226.537 27.9853 226.83 26.7841 226.97 25.6383ZM224.258 33.0388C224.529 32.5654 224.784 32.0919 225.018 31.6242C225.257 31.1507 225.476 30.686 225.672 30.233C225.649 30.233 225.62 30.23 225.59 30.2213C225.567 30.2067 225.523 30.1979 225.462 30.1979C223.848 29.8939 222.627 29.1778 221.803 28.0467C220.984 26.9185 220.575 25.7523 220.575 24.5511V24.1302C220.598 23.9051 220.622 23.7034 220.645 23.5222C220.674 23.3439 220.721 23.1686 220.785 22.9961C219.304 24.1974 217.98 25.7757 216.81 27.7311C216.053 28.9879 215.387 30.2563 214.811 31.5424C214.241 32.8226 213.902 34.0326 213.794 35.1783C213.771 35.342 213.759 35.5028 213.759 35.6577C213.759 35.8067 213.759 35.9499 213.759 36.0902C213.759 36.9554 213.911 37.689 214.215 38.2882C214.519 38.8903 215.022 39.2586 215.723 39.3988C215.831 39.431 215.983 39.4456 216.179 39.4456C216.904 39.4456 217.737 39.1738 218.681 38.6272C219.631 38.0836 220.601 37.3295 221.592 36.3708C222.58 35.4063 223.469 34.2956 224.258 33.0388Z" fill="#184A3C"/>
<path d="M256.63 30.6545C256.794 30.7422 256.876 30.8971 256.876 31.1221C256.876 31.2332 256.864 31.315 256.841 31.3676C255.055 34.5184 253.228 36.9092 251.358 38.546C249.487 40.1769 247.505 40.9895 245.418 40.9895C244.466 40.9895 243.691 40.8492 243.092 40.5686C242.49 40.288 242.081 39.9256 241.864 39.4813C241.613 39.0078 241.49 38.4759 241.49 37.8913C241.49 36.8333 241.888 35.5414 242.683 34.0215C243.478 32.5017 244.638 30.7422 246.167 28.7371L246.634 28.1526C247.108 27.5388 247.64 26.8315 248.224 26.0365C248.809 25.2415 249.306 24.464 249.721 23.6982C250.142 22.9266 250.352 22.2777 250.352 21.7458C250.352 21.2168 250.086 20.9508 249.557 20.9508C249.502 20.9508 249.44 20.9596 249.37 20.9742C249.3 20.9917 249.236 20.9976 249.183 20.9976C248.651 21.0765 248.107 21.2548 247.546 21.5354C246.991 21.8159 246.424 22.1667 245.839 22.5876C244.249 23.7567 242.811 25.0749 241.525 26.5392C240.245 28.0064 239.167 29.4094 238.287 30.748C237.404 32.0808 236.744 33.1388 236.299 33.9163C236.299 33.9163 236.27 33.9689 236.217 34.0683C236.162 34.1618 236.022 34.4132 235.797 34.8165C235.569 35.2228 235.2 35.8804 234.686 36.7923C234.172 37.6984 233.438 38.9844 232.488 40.6504H229.062L240.613 19.9921H244.086L240.812 25.8494C241.73 24.7913 242.706 23.7859 243.735 22.8331C244.77 21.8832 245.828 21.1145 246.903 20.5299C247.979 19.9454 249.031 19.6531 250.06 19.6531C250.504 19.6531 250.937 19.7115 251.358 19.8284C251.778 19.9395 252.097 20.1879 252.316 20.5767C252.457 20.7725 252.562 20.9917 252.632 21.2314C252.702 21.4652 252.737 21.7516 252.737 22.0848C252.737 22.8097 252.497 23.7654 252.024 24.9492C251.548 26.1358 250.697 27.5914 249.475 29.3217C248.663 30.4908 247.809 31.7125 246.915 32.981C246.026 34.2524 245.342 35.3865 244.869 36.3831C244.542 37.0846 244.378 37.675 244.378 38.1485C244.378 38.6805 244.542 39.0663 244.869 39.3059C245.202 39.5398 245.635 39.6567 246.167 39.6567C246.728 39.6567 247.353 39.5251 248.049 39.2592C248.75 38.9961 249.446 38.5986 250.142 38.0667C251.124 37.3126 252.094 36.3422 253.053 35.1556C254.011 33.9718 254.95 32.5426 255.87 30.8649C255.987 30.672 256.142 30.5726 256.338 30.5726C256.423 30.5726 256.519 30.6019 256.63 30.6545Z" fill="#184A3C"/>
<path d="M272.822 30.6543C272.986 30.7712 273.068 30.929 273.068 31.1219C273.068 31.233 273.056 31.3148 273.033 31.3675C271.887 33.4017 270.642 35.1408 269.303 36.5817C267.962 38.0168 266.392 39.1129 264.592 39.8669C262.797 40.6152 260.657 40.9893 258.173 40.9893C256.753 40.9893 255.665 40.5743 254.911 39.7383C254.715 39.4811 254.549 39.2298 254.409 38.9784C254.297 38.73 254.245 38.4523 254.245 38.1483C254.245 37.7596 254.318 37.4118 254.467 37.1078C254.622 36.798 254.715 36.6139 254.748 36.5583C255.028 36.1696 255.347 35.8773 255.706 35.6815C256.072 35.4886 256.422 35.3892 256.758 35.3892C256.951 35.3892 257.089 35.4009 257.168 35.4243C257.697 35.6201 257.963 36.0381 257.963 36.6752C257.963 36.8798 257.933 37.0844 257.881 37.2949C257.825 37.4995 257.729 37.7128 257.589 37.9379C257.425 38.2419 257.22 38.5225 256.981 38.7797C256.747 39.031 256.49 39.2093 256.209 39.3175C256.63 39.598 257.174 39.7383 257.846 39.7383H258.22C258.945 39.6857 259.64 39.2941 260.313 38.5692C260.982 37.8385 261.558 36.8448 262.043 35.588C262.534 34.3341 262.85 32.8727 262.99 31.2038C263.183 29.0292 263.545 27.1119 264.077 25.4517C264.606 23.7916 265.343 22.5026 266.287 21.5819C264.673 21.997 263.311 22.6575 262.207 23.5694C261.108 24.4755 260.152 25.5336 259.342 26.7494C258.538 27.9595 257.758 29.2484 257.004 30.6192L256.548 31.4142C256.46 31.61 256.305 31.7065 256.08 31.7065C256.025 31.7065 255.943 31.6802 255.835 31.6247C255.662 31.5399 255.578 31.385 255.578 31.157C255.578 31.0489 255.592 30.967 255.624 30.9115L256.08 30.0697C256.805 28.7925 257.556 27.5532 258.337 26.3519C259.123 25.1536 260.047 24.0722 261.108 23.1135C262.166 22.149 263.46 21.389 264.989 20.8337C266.524 20.2725 268.38 19.9919 270.554 19.9919C270.919 19.9919 271.104 20.1732 271.104 20.5297C271.104 20.898 270.919 21.0792 270.554 21.0792C270.554 21.0792 270.545 21.0792 270.531 21.0792C270.522 21.0792 270.475 21.0792 270.39 21.0792C269.525 21.0792 268.827 21.3715 268.298 21.9561C267.766 22.5406 267.368 23.3239 267.105 24.306C266.839 25.2822 266.638 26.3753 266.497 27.5912C266.357 28.8012 266.246 30.0317 266.17 31.2856C266.03 33.1796 265.67 34.8047 265.094 36.1608C264.524 37.5112 263.779 38.5751 262.861 39.3525C264.451 38.9083 265.796 38.2711 266.895 37.4352C268 36.6022 268.955 35.6201 269.759 34.489C270.569 33.3608 271.337 32.1508 272.062 30.8647C272.203 30.7011 272.369 30.6192 272.565 30.6192C272.673 30.6192 272.758 30.6309 272.822 30.6543Z" fill="#184A3C"/>
</svg>
