<svg width="248" height="18" viewBox="0 0 248 18" fill="none" xmlns="http://www.w3.org/2000/svg">
<path d="M6.42878 17.9707C5.38321 17.9707 4.48444 17.8096 3.73249 17.4873C2.98054 17.1579 2.36823 16.6673 1.89558 16.0156C1.42292 15.3568 1.08275 14.5368 0.875069 13.5557L3.71101 12.8789C3.84707 13.8099 4.10847 14.5117 4.49519 14.9844C4.88907 15.457 5.51927 15.6934 6.38581 15.6934C7.18789 15.6934 7.77871 15.4785 8.15827 15.0488C8.54499 14.6191 8.73835 13.946 8.73835 13.0293V4.56445H2.79792V2.2334H11.5206V13.0293C11.5206 13.946 11.3881 14.723 11.1231 15.3604C10.8581 15.9906 10.4893 16.499 10.0167 16.8857C9.55118 17.2653 9.01049 17.541 8.3946 17.7129C7.78588 17.8848 7.1306 17.9707 6.42878 17.9707ZM20.9187 17.9707C19.78 17.9707 18.7738 17.7165 17.9001 17.208C17.0336 16.6924 16.3569 15.9798 15.8699 15.0703C15.3901 14.1536 15.1501 13.0973 15.1501 11.9014C15.1501 10.7054 15.3901 9.65267 15.8699 8.74316C16.3569 7.8265 17.0336 7.11393 17.9001 6.60547C18.7738 6.08984 19.78 5.83203 20.9187 5.83203C22.0574 5.83203 23.06 6.08984 23.9265 6.60547C24.7931 7.11393 25.4698 7.8265 25.9568 8.74316C26.4438 9.65267 26.6873 10.7054 26.6873 11.9014C26.6873 13.0973 26.4438 14.1536 25.9568 15.0703C25.4698 15.9798 24.7895 16.6924 23.9158 17.208C23.0492 17.7165 22.0502 17.9707 20.9187 17.9707ZM20.9187 15.9512C21.8282 15.9512 22.5479 15.5895 23.0779 14.8662C23.6078 14.1357 23.8728 13.1475 23.8728 11.9014C23.8728 10.6481 23.6078 9.65983 23.0779 8.93652C22.5479 8.21322 21.8282 7.85156 20.9187 7.85156C20.002 7.85156 19.2787 8.21322 18.7488 8.93652C18.226 9.65983 17.9646 10.6481 17.9646 11.9014C17.9646 13.1475 18.226 14.1357 18.7488 14.8662C19.2787 15.5895 20.002 15.9512 20.9187 15.9512ZM34.8285 17.9707C33.9692 17.9707 33.1671 17.8418 32.4223 17.584C31.6847 17.319 31.0652 16.9144 30.5639 16.3701C30.0698 15.8187 29.7475 15.1133 29.5971 14.2539L32.1215 13.7598C32.1931 14.5117 32.4545 15.0739 32.9057 15.4463C33.364 15.8187 33.9728 16.0049 34.7319 16.0049C35.4838 16.0049 36.0567 15.8402 36.4506 15.5107C36.8517 15.1813 37.0522 14.7874 37.0522 14.3291C37.0522 13.9281 36.9018 13.5951 36.601 13.3301C36.3074 13.0651 35.8347 12.8789 35.183 12.7715L33.9907 12.5674C33.5896 12.4958 33.1671 12.4027 32.7231 12.2881C32.2791 12.1663 31.8601 11.9945 31.4662 11.7725C31.0724 11.5433 30.7501 11.2354 30.4994 10.8486C30.256 10.4548 30.1342 9.95703 30.1342 9.35547C30.1342 8.58919 30.3383 7.94466 30.7465 7.42188C31.1547 6.89909 31.7061 6.50521 32.4008 6.24023C33.1026 5.9681 33.8904 5.83203 34.7641 5.83203C35.6163 5.83203 36.379 5.96094 37.0522 6.21875C37.7325 6.4694 38.2947 6.83822 38.7387 7.3252C39.1899 7.81217 39.4835 8.41016 39.6196 9.11914L37.0629 9.63477C37.0128 9.29102 36.9089 8.97949 36.7514 8.7002C36.5938 8.41374 36.3575 8.18815 36.0424 8.02344C35.7345 7.85156 35.3263 7.76562 34.8178 7.76562C34.2234 7.76562 33.7328 7.88737 33.3461 8.13086C32.9594 8.36719 32.766 8.70736 32.766 9.15137C32.766 9.44499 32.852 9.68848 33.0239 9.88184C33.2029 10.068 33.4535 10.222 33.7758 10.3438C34.0981 10.4655 34.4776 10.5693 34.9145 10.6553L36.2035 10.9023C36.8123 11.0026 37.3852 11.1781 37.9223 11.4287C38.4594 11.6722 38.8927 12.016 39.2221 12.46C39.5587 12.904 39.727 13.4876 39.727 14.2109C39.727 15.013 39.5157 15.6969 39.0932 16.2627C38.6707 16.8213 38.0906 17.2474 37.353 17.541C36.6153 17.8275 35.7739 17.9707 34.8285 17.9707ZM43.5069 17.7021V1.58887H46.1603V8.8291L45.9776 8.3457C46.3071 7.57943 46.7976 6.9707 47.4493 6.51953C48.1082 6.0612 48.9067 5.83203 49.8448 5.83203C50.7114 5.83203 51.4347 6.02897 52.0148 6.42285C52.5948 6.80957 53.0317 7.35742 53.3253 8.06641C53.6261 8.76823 53.7765 9.5918 53.7765 10.5371V17.7021H51.1124V10.8271C51.1124 9.86751 50.962 9.14062 50.6612 8.64648C50.3676 8.14518 49.8269 7.89453 49.0392 7.89453C48.1368 7.89453 47.4314 8.22754 46.923 8.89355C46.4145 9.55957 46.1603 10.5586 46.1603 11.8906V17.7021H43.5069ZM63.6997 17.7021L64.5591 2.2334H69.0923L72.7016 15.79H72.3042L75.9243 2.2334H80.4682L81.3276 17.7021H78.6206L77.9116 4.25293H77.9438L74.1733 17.7021H70.854L67.0835 4.25293H67.1157L66.396 17.7021H63.6997ZM90.5216 17.9707C89.3973 17.9707 88.4018 17.7236 87.5353 17.2295C86.6688 16.7354 85.9884 16.0335 85.4943 15.124C85.0001 14.2145 84.7531 13.1403 84.7531 11.9014C84.7531 10.6624 84.9966 9.58822 85.4835 8.67871C85.9705 7.76921 86.6437 7.06738 87.5031 6.57324C88.3624 6.0791 89.3543 5.83203 90.4787 5.83203C91.1089 5.83203 91.7427 5.92871 92.38 6.12207C93.0246 6.31543 93.6118 6.65918 94.1417 7.15332C94.6789 7.6403 95.1121 8.31706 95.4416 9.18359C95.771 10.043 95.9357 11.1351 95.9357 12.46H86.4611V10.7734H93.5724L93.1642 11.3857C93.1212 10.5192 92.9708 9.82454 92.713 9.30176C92.4624 8.77181 92.1365 8.38867 91.7355 8.15234C91.3416 7.90885 90.9012 7.78711 90.4142 7.78711C89.7983 7.78711 89.2791 7.9554 88.8566 8.29199C88.4341 8.62142 88.1118 9.09766 87.8898 9.7207C87.6749 10.3366 87.5675 11.0671 87.5675 11.9121C87.5675 13.1725 87.8146 14.1608 88.3087 14.877C88.8029 15.5859 89.5333 15.9404 90.5001 15.9404C91.159 15.9404 91.7212 15.7721 92.1867 15.4355C92.6522 15.099 92.9995 14.5977 93.2287 13.9316L95.6994 14.6191C95.4201 15.3711 95.0226 15.9941 94.507 16.4883C93.9914 16.9824 93.3898 17.3548 92.7023 17.6055C92.0148 17.849 91.2879 17.9707 90.5216 17.9707ZM101.982 17.7021C101.273 17.7021 100.711 17.516 100.296 17.1436C99.8804 16.764 99.6727 16.2448 99.6727 15.5859V1.58887H102.337V15.0918C102.337 15.3281 102.369 15.4857 102.433 15.5645C102.505 15.6432 102.652 15.6826 102.874 15.6826H103.851V17.7021H101.982ZM110.027 17.7021L105.655 6.10059H108.62L111.799 15.9082H111.488L114.657 6.10059H117.622L113.26 17.7021H110.027ZM125.634 17.9707C124.51 17.9707 123.514 17.7236 122.648 17.2295C121.781 16.7354 121.101 16.0335 120.607 15.124C120.112 14.2145 119.865 13.1403 119.865 11.9014C119.865 10.6624 120.109 9.58822 120.596 8.67871C121.083 7.76921 121.756 7.06738 122.615 6.57324C123.475 6.0791 124.467 5.83203 125.591 5.83203C126.221 5.83203 126.855 5.92871 127.492 6.12207C128.137 6.31543 128.724 6.65918 129.254 7.15332C129.791 7.6403 130.224 8.31706 130.554 9.18359C130.883 10.043 131.048 11.1351 131.048 12.46H121.573V10.7734H128.685L128.277 11.3857C128.234 10.5192 128.083 9.82454 127.825 9.30176C127.575 8.77181 127.249 8.38867 126.848 8.15234C126.454 7.90885 126.014 7.78711 125.527 7.78711C124.911 7.78711 124.391 7.9554 123.969 8.29199C123.546 8.62142 123.224 9.09766 123.002 9.7207C122.787 10.3366 122.68 11.0671 122.68 11.9121C122.68 13.1725 122.927 14.1608 123.421 14.877C123.915 15.5859 124.646 15.9404 125.612 15.9404C126.271 15.9404 126.834 15.7721 127.299 15.4355C127.765 15.099 128.112 14.5977 128.341 13.9316L130.812 14.6191C130.532 15.3711 130.135 15.9941 129.619 16.4883C129.104 16.9824 128.502 17.3548 127.815 17.6055C127.127 17.849 126.4 17.9707 125.634 17.9707ZM134.828 17.7021V6.10059H137.374V8.65723L137.277 8.33496C137.635 7.49707 138.151 6.87044 138.824 6.45508C139.497 6.03971 140.213 5.83203 140.973 5.83203C141.187 5.83203 141.402 5.84993 141.617 5.88574C141.839 5.92155 142.05 5.98242 142.251 6.06836L142.015 8.39941C141.578 8.27051 141.152 8.20605 140.736 8.20605C140.428 8.20605 140.085 8.26335 139.705 8.37793C139.333 8.48535 138.978 8.68945 138.641 8.99023C138.305 9.29102 138.026 9.72428 137.804 10.29C137.589 10.8486 137.481 11.5755 137.481 12.4707V17.7021H134.828ZM145.279 17.7021V6.10059H147.825V8.75391L147.75 8.28125C148.086 7.55078 148.58 6.95996 149.232 6.50879C149.884 6.05762 150.675 5.83203 151.606 5.83203C152.473 5.83203 153.196 6.02897 153.776 6.42285C154.363 6.80957 154.804 7.35742 155.097 8.06641C155.398 8.76823 155.548 9.5918 155.548 10.5371V17.7021H152.884V10.7197C152.884 9.84603 152.723 9.15853 152.401 8.65723C152.086 8.14876 151.552 7.89453 150.8 7.89453C149.934 7.89453 149.239 8.24544 148.716 8.94727C148.194 9.64909 147.932 10.6982 147.932 12.0947V17.7021H145.279ZM164.73 17.7021L170.896 2.2334H174.226L180.371 17.7021H177.385L172.551 4.48926L167.717 17.7021H164.73ZM168.404 13.1475V10.9023H176.676V13.1475H168.404ZM183.421 17.7021V6.10059H185.966V8.65723L185.87 8.33496C186.228 7.49707 186.743 6.87044 187.417 6.45508C188.09 6.03971 188.806 5.83203 189.565 5.83203C189.78 5.83203 189.995 5.84993 190.21 5.88574C190.432 5.92155 190.643 5.98242 190.843 6.06836L190.607 8.39941C190.17 8.27051 189.744 8.20605 189.329 8.20605C189.021 8.20605 188.677 8.26335 188.297 8.37793C187.925 8.48535 187.571 8.68945 187.234 8.99023C186.897 9.29102 186.618 9.72428 186.396 10.29C186.181 10.8486 186.074 11.5755 186.074 12.4707V17.7021H183.421ZM198.781 17.9707C197.656 17.9707 196.661 17.7236 195.794 17.2295C194.928 16.7354 194.247 16.0335 193.753 15.124C193.259 14.2145 193.012 13.1403 193.012 11.9014C193.012 10.6624 193.255 9.58822 193.742 8.67871C194.229 7.76921 194.903 7.06738 195.762 6.57324C196.621 6.0791 197.613 5.83203 198.738 5.83203C199.368 5.83203 200.002 5.92871 200.639 6.12207C201.283 6.31543 201.871 6.65918 202.401 7.15332C202.938 7.6403 203.371 8.31706 203.7 9.18359C204.03 10.043 204.195 11.1351 204.195 12.46H194.72V10.7734H201.831L201.423 11.3857C201.38 10.5192 201.23 9.82454 200.972 9.30176C200.721 8.77181 200.395 8.38867 199.994 8.15234C199.601 7.90885 199.16 7.78711 198.673 7.78711C198.057 7.78711 197.538 7.9554 197.116 8.29199C196.693 8.62142 196.371 9.09766 196.149 9.7207C195.934 10.3366 195.826 11.0671 195.826 11.9121C195.826 13.1725 196.074 14.1608 196.568 14.877C197.062 15.5859 197.792 15.9404 198.759 15.9404C199.418 15.9404 199.98 15.7721 200.446 15.4355C200.911 15.099 201.258 14.5977 201.488 13.9316L203.958 14.6191C203.679 15.3711 203.282 15.9941 202.766 16.4883C202.25 16.9824 201.649 17.3548 200.961 17.6055C200.274 17.849 199.547 17.9707 198.781 17.9707ZM210.241 17.7021C209.532 17.7021 208.97 17.516 208.555 17.1436C208.139 16.764 207.932 16.2448 207.932 15.5859V1.58887H210.596V15.0918C210.596 15.3281 210.628 15.4857 210.692 15.5645C210.764 15.6432 210.911 15.6826 211.133 15.6826H212.11V17.7021H210.241ZM215.622 17.7021V6.10059H218.275V17.7021H215.622ZM216.943 4.5C216.392 4.5 215.94 4.32454 215.589 3.97363C215.239 3.62272 215.063 3.17155 215.063 2.62012C215.063 2.06152 215.239 1.61035 215.589 1.2666C215.94 0.91569 216.392 0.740234 216.943 0.740234C217.502 0.740234 217.953 0.91569 218.297 1.2666C218.647 1.61035 218.823 2.06152 218.823 2.62012C218.823 3.17155 218.647 3.62272 218.297 3.97363C217.953 4.32454 217.502 4.5 216.943 4.5ZM225.997 17.9707C225.245 17.9707 224.569 17.8346 223.967 17.5625C223.366 17.2904 222.889 16.8965 222.538 16.3809C222.187 15.8581 222.012 15.235 222.012 14.5117C222.012 13.7311 222.238 13.0508 222.689 12.4707C223.147 11.8835 223.82 11.4287 224.708 11.1064C225.603 10.7842 226.71 10.623 228.028 10.623H229.768L229.575 10.8809V10.2256C229.575 9.39486 229.417 8.76823 229.102 8.3457C228.787 7.92318 228.264 7.71191 227.534 7.71191C226.839 7.71191 226.305 7.89453 225.933 8.25977C225.561 8.625 225.346 9.12988 225.288 9.77441L222.506 9.24805C222.599 8.61068 222.857 8.03418 223.28 7.51855C223.709 7.00293 224.293 6.59115 225.031 6.2832C225.768 5.97526 226.656 5.82129 227.695 5.82129C228.683 5.82129 229.51 5.98958 230.176 6.32617C230.842 6.66276 231.34 7.18555 231.669 7.89453C232.006 8.59635 232.174 9.50586 232.174 10.623V15.0918C232.174 15.3281 232.206 15.4857 232.271 15.5645C232.342 15.6432 232.489 15.6826 232.711 15.6826H233.291V17.7021H231.906C231.204 17.7021 230.656 17.516 230.262 17.1436C229.868 16.764 229.671 16.2448 229.671 15.5859V14.9307L230.122 15.0596C230.022 15.3675 229.875 15.6898 229.682 16.0264C229.489 16.363 229.231 16.6781 228.909 16.9717C228.586 17.2653 228.185 17.5052 227.705 17.6914C227.233 17.8776 226.663 17.9707 225.997 17.9707ZM226.728 16.0479C227.265 16.0479 227.748 15.9225 228.178 15.6719C228.615 15.4141 228.959 15.0238 229.209 14.501C229.467 13.971 229.596 13.305 229.596 12.5029V12.3096H228.071C227.233 12.3096 226.577 12.4206 226.105 12.6426C225.632 12.8574 225.299 13.126 225.106 13.4482C224.912 13.7633 224.816 14.0785 224.816 14.3936C224.816 14.6657 224.877 14.9307 224.998 15.1885C225.127 15.4391 225.331 15.6468 225.611 15.8115C225.89 15.9691 226.262 16.0479 226.728 16.0479ZM236.899 17.7021V6.10059H239.445V8.75391L239.37 8.28125C239.707 7.55078 240.201 6.95996 240.853 6.50879C241.504 6.05762 242.296 5.83203 243.227 5.83203C244.093 5.83203 244.816 6.02897 245.396 6.42285C245.984 6.80957 246.424 7.35742 246.718 8.06641C247.019 8.76823 247.169 9.5918 247.169 10.5371V17.7021H244.505V10.7197C244.505 9.84603 244.344 9.15853 244.021 8.65723C243.706 8.14876 243.173 7.89453 242.421 7.89453C241.554 7.89453 240.86 8.24544 240.337 8.94727C239.814 9.64909 239.553 10.6982 239.553 12.0947V17.7021H236.899Z" fill="#74928A"/>
</svg>
